<svg width="30" height="30" viewBox="0 0 30 30" fill="none" xmlns="http://www.w3.org/2000/svg">
<g clip-path="url(#clip0_74_68)">
<path d="M13.1919 29.7988C12.8487 29.3689 11.6426 26.1206 11.1804 24.3816C10.2497 20.8795 9.9707 18.4985 9.97065 14.0586C9.9706 9.26679 10.569 5.73448 12.0584 1.73506L12.6722 0.0869019H18.6073H24.5423L25.7744 0.693702C27.302 1.44607 28.6932 2.91067 29.2915 4.39651C29.7159 5.45023 29.7211 5.55586 29.778 14.3362C29.8378 23.5824 29.7942 24.2661 29.0397 25.8905C28.4206 27.2233 26.6177 28.9393 25.2748 29.474C24.2079 29.8987 23.9445 29.9192 18.7747 29.9797C14.4825 30.0299 13.3471 29.9931 13.1919 29.7988ZM18.0812 27.7618C18.6981 27.1823 18.6165 26.6675 17.6986 25.3474C15.3933 22.0319 14.1695 17.5055 14.5269 13.6162C14.821 10.4166 15.6585 8.01678 17.5108 5.06598C18.1624 4.02796 18.6955 3.0722 18.6955 2.94206C18.6955 2.45982 17.9014 1.84756 17.2759 1.84756C16.7505 1.84756 16.5407 2.00076 15.8165 2.91323C14.6076 4.43638 13.03 7.71776 12.4528 9.90953C12.0262 11.5296 11.9649 12.1243 11.9653 14.6355C11.9659 17.9041 12.3207 19.9973 13.3052 22.5408C13.8793 24.0241 15.5664 26.9256 16.3328 27.7478C16.8244 28.2752 17.5287 28.2809 18.0812 27.7618ZM22.4143 23.7103C22.9323 23.4331 22.8599 23.0072 22.1039 21.8845C20.6392 19.7097 19.952 17.4023 19.945 14.6355C19.938 11.9464 20.6559 9.64126 22.1572 7.531C22.9096 6.47333 22.9067 5.91903 22.1472 5.65299C21.6596 5.48217 21.562 5.52682 20.9988 6.17835C20.2134 7.08699 18.9982 9.55935 18.5729 11.1142C18.1293 12.7357 18.1311 16.4403 18.5764 18.2495C19.1512 20.5854 21.0306 23.9021 21.7792 23.9021C21.9314 23.9021 22.2172 23.8158 22.4143 23.7103ZM5.44422 29.6596C2.74241 29.0026 0.656314 26.7272 0.164913 23.9012C0.0235865 23.0885 -0.0258934 19.8983 0.0125834 14.0795L0.0695308 5.46155L0.657848 4.21969C1.71709 1.98377 3.8909 0.373366 6.26239 0.0677191C7.17824 -0.0503206 7.25479 -0.0325977 7.13847 0.270546C6.46533 2.02473 5.52045 6.24398 5.14588 9.1682C4.80544 11.8261 4.85375 17.3931 5.24077 20.1028C5.60569 22.6578 6.41383 26.1527 7.10175 28.1509C7.36232 28.9078 7.5755 29.5958 7.5755 29.6799C7.5755 29.8627 6.22632 29.8498 5.44422 29.6596Z" fill="url(#paint0_linear_74_68)"/>
</g>
<defs>
<linearGradient id="paint0_linear_74_68" x1="14.8984" y1="0" x2="14.8984" y2="30" gradientUnits="userSpaceOnUse">
<stop stop-color="#2368E1"/>
<stop offset="1" stop-color="#13397B"/>
</linearGradient>
<clipPath id="clip0_74_68">
<rect width="29.7967" height="30" fill="white"/>
</clipPath>
</defs>
</svg>
