<?xml version="1.0" encoding="UTF-8" standalone="no"?>
<svg
   width="980.73596"
   height="570.14655"
   viewBox="0 0 980.73596 570.14655"
   fill="none"
   version="1.1"
   id="svg46"
   sodipodi:docname="bgpattern.svg"
   inkscape:version="1.2 (dc2aedaf03, 2022-05-15)"
   xmlns:inkscape="http://www.inkscape.org/namespaces/inkscape"
   xmlns:sodipodi="http://sodipodi.sourceforge.net/DTD/sodipodi-0.dtd"
   xmlns="http://www.w3.org/2000/svg"
   xmlns:svg="http://www.w3.org/2000/svg">
  <sodipodi:namedview
     id="namedview48"
     pagecolor="#ffffff"
     bordercolor="#000000"
     borderopacity="0.25"
     inkscape:showpageshadow="2"
     inkscape:pageopacity="0.0"
     inkscape:pagecheckerboard="0"
     inkscape:deskcolor="#d1d1d1"
     showgrid="false"
     inkscape:zoom="0.64573942"
     inkscape:cx="363.14958"
     inkscape:cy="391.79891"
     inkscape:window-width="1920"
     inkscape:window-height="1009"
     inkscape:window-x="-8"
     inkscape:window-y="-8"
     inkscape:window-maximized="1"
     inkscape:current-layer="svg46" />
  <path
     fill-rule="evenodd"
     clip-rule="evenodd"
     d="m 65.90211,570.14652 0.64205,-56.28182 62.18265,-0.0745 -0.64304,56.34782 0.76735,0.008 0.64305,-56.35779 59.1126,-0.0706 -0.64304,56.41995 0.76735,0.008 0.64381,-56.42916 62.9494,-0.076 -0.64458,56.49668 0.76736,0.008 0.64457,-56.50589 64.48488,-0.0775 -0.64535,56.57495 0.76736,0.008 0.64535,-56.58416 64.45879,-0.0776 -0.64612,56.65323 0.76736,0.008 0.64611,-56.6632 64.48488,-0.0775 -0.64688,56.73226 0.76735,0.008 0.64689,-56.74147 66.01959,-0.0791 -0.64842,56.81207 0.76736,0.008 0.64842,-56.82128 63.71675,-0.0767 -0.64919,56.88958 0.76736,0.008 0.64919,-56.89878 66.01958,-0.0798 -0.64995,56.97014 0.76736,0.008 0.64995,-56.97935 69.08902,-0.0829 -0.65071,57.05379 0.76734,0.008 0.65073,-57.06299 61.41698,-0.0745 -0.65225,57.12899 0.76736,0.008 0.65225,-57.1382 64.481,-0.0775 -0.65225,57.20726 0.76741,0.008 0.65224,-57.21647 40.83116,-0.0491 v -0.76735 l -40.82347,0.0491 0.71358,-62.63477 56.07079,-0.0668 v -0.76735 l -56.05541,0.0668 0.71367,-62.63401 71.29514,-0.0859 v -0.76736 l -71.28745,0.0859 0.69829,-61.10006 86.54256,-0.10359 v -0.76736 l -86.53487,0.10359 0.71357,-62.92407 85.8213,-0.10282 v -0.76736 l -85.80592,0.10282 0.7827,-68.77286 100.98422,-0.12125 v -0.76735 l -100.97653,0.12124 0.63686,-55.72856 116.29307,-0.13966 v -0.76736 l -116.28538,0.13966 0.71367,-62.634163 131.52501,-0.15807 v -0.76736 l -131.51732,0.15807 0.68291,-59.725647 -0.76731,-0.0087 -0.68301,59.735317 -64.48102,0.0775 0.68295,-59.804067 -0.76736,-0.0087 -0.68295,59.813747 -61.41775,0.0737 0.68295,-59.878737 -0.76736,-0.0087 -0.68295,59.888467 -69.08901,0.083 0.68371,-59.962757 -0.76736,-0.0087 -0.68371,59.972437 -66.01959,0.0793 0.68524,-60.043038 -0.76735,-0.0087 -0.68525,60.052698 -63.71752,0.0766 0.68602,-60.120532 -0.76736,-0.0087 -0.68601,60.130202 -66.01883,0.0793 0.68678,-60.200804 -0.76736,-0.0087 -0.68678,60.210464 -64.48487,0.0775 0.68755,-60.279224 -0.76736,-0.0087 -0.68755,60.288874 -64.45879,0.0776 0.68832,-60.35764 -0.76736,-0.0087 -0.68832,60.36723 -64.48487,0.0775 0.68908,-60.43599 -0.76735,-0.0087 -0.68909,60.44574 -62.95016,0.0756 0.69062,-60.512572 -0.76736,-0.0087 -0.69062,60.522332 -59.1126,0.071 0.69062,-60.584556 -0.76736,-0.0087 -0.69139,60.594306 -38.04174,0.0457 0.002,0.76736 38.03176,-0.0457 -0.71441,62.634473 -53.27378,0.0637 7.7e-4,0.76736 53.26457,-0.0637 -0.63614,55.72779 -62.18226,0.0752 2.05958,-180.557742 -0.76728,-0.0087 -2.05973,180.567242 -5.63548,0.007 9.2e-4,0.76736 5.62581,-0.007 -0.78448,68.77364 -20.79784,0.0246 9.3e-4,0.76736 20.78816,-0.0246 -0.71778,62.92407 -20.07131,0.0238 9.3e-4,0.76736 20.06163,-0.0238 -0.69692,61.0993 -35.32114,0.043 9.2e-4,0.76736 35.3114,-0.043 -0.7144,62.63477 -50.55351,0.0606 9.2e-4,0.76736 50.54384,-0.0606 -0.71449,62.63401 L 0,513.17225 l 9.2e-4,0.76736 65.77626,-0.0791 -0.6419,56.27261 z m 68.63129,-498.157583 59.11337,-0.071 -0.71441,62.634313 -59.11337,0.0714 z m 59.88073,-0.0719 62.9494,-0.0757 -0.71442,62.634173 -62.94939,0.076 z m 63.71752,-0.0766 64.48411,-0.0775 -0.71441,62.634323 -64.48488,0.0775 z m 65.25146,-0.0784 64.45879,-0.0775 -0.71441,62.634473 -64.45879,0.0775 z m 65.22692,-0.0784 64.4841,-0.0775 -0.7144,62.634613 -64.48488,0.0776 z m 65.25146,-0.0784 66.01959,-0.0793 -0.7144,62.634323 -66.0196,0.0798 z m 66.78695,-0.0803 63.71752,-0.0766 -0.71518,62.634323 -63.71675,0.0767 z m 64.48488,-0.0776 66.01882,-0.0793 -0.71441,62.634773 -66.01882,0.0791 z m 66.78618,-0.0803 69.08902,-0.083 -0.71441,62.634323 -69.08902,0.0829 z m 69.85637,-0.084 61.41162,-0.0737 -0.71365,62.634633 -61.41238,0.0737 z m 62.18665,-0.0746 64.481,-0.0775 -0.71357,62.634783 -64.48876,0.0775 z m 63.12278,119.052433 0.63696,-55.72779 -64.48874,0.0775 -0.6369,55.72779 z m -65.25604,0.0783 0.6369,-55.72779 -61.41314,0.0736 -0.63537,55.7278 z m -62.17896,0.0745 0.63537,-55.72779 -69.08903,0.0829 -0.63537,55.72856 z m -69.85639,0.0844 0.63538,-55.72779 -66.01959,0.0791 -0.63538,55.72779 z m -66.78694,0.0806 0.63537,-55.72856 -63.71675,0.0767 -0.63613,55.72779 z m -64.48487,0.0776 0.63537,-55.72856 -66.01883,0.0798 -0.63614,55.7278 z m -66.78695,0.0798 0.63613,-55.72779 -64.48487,0.0776 -0.63537,55.72779 z m -65.25147,0.0783 0.63537,-55.72779 -64.45879,0.0776 -0.63613,55.72779 z m -65.22691,0.0791 0.63614,-55.72855 -64.48488,0.0775 -0.63537,55.72856 z m -65.25147,0.0783 0.63537,-55.72856 -62.95016,0.076 -0.63537,55.72779 z m -63.71752,0.0767 0.63537,-55.72856 -59.1126,0.0714 -0.63614,55.7278 z m -122.07174,0.91392 62.18257,-0.0752 -0.785,68.77364 -62.18204,0.0745 z m 62.94993,-0.076 59.11337,-0.0706 -0.785,68.77286 -59.11261,0.0714 z m 59.88073,-0.0721 62.94939,-0.0752 -0.78424,68.77287 -62.95016,0.076 z m 63.71675,-0.076 64.48488,-0.0776 -0.78424,68.77287 -64.48488,0.0775 z m 65.25224,-0.0791 64.45878,-0.0776 -0.78424,68.77364 -64.45878,0.0775 z m 65.22614,-0.0783 64.48488,-0.0775 -0.78424,68.77364 -64.48488,0.0775 z m 65.25223,-0.0783 66.0196,-0.0791 -0.78501,68.77287 -66.01883,0.0798 z m 66.78695,-0.0806 63.71675,-0.076 -0.78423,68.77287 -63.71752,0.0767 z m 64.48411,-0.0776 66.01959,-0.0791 -0.78424,68.77365 -66.01959,0.079 z m 66.78694,-0.0798 69.08903,-0.0829 -0.78424,68.77286 -69.08903,0.0829 z m 69.85639,-0.0844 61.41314,-0.0737 -0.78271,68.77363 -61.41467,0.0737 z m 62.18049,-0.0745 64.48876,-0.0775 -0.78278,68.77286 -64.48868,0.0776 z m 62.27104,194.25421 0.69829,-61.09929 -64.48869,0.0775 -0.69829,61.0993 z m -65.25605,0.0783 0.69829,-61.09929 -61.41315,0.0737 -0.69752,61.10006 z m 0.70597,-61.86665 -61.41238,0.0737 0.71748,-62.92407 61.41621,-0.0737 z m -62.88571,61.94185 0.69753,-61.10006 -69.08902,0.0829 -0.69753,61.10006 z m 0.70597,-61.86742 -69.08902,0.0829 0.71824,-62.92407 69.08826,-0.0829 z m -70.56234,61.95106 0.69752,-61.0993 -66.01959,0.0791 -0.69676,61.10007 z m 0.70596,-61.86665 -66.01959,0.0791 0.71825,-62.92407 66.01882,-0.0791 z m -67.49291,61.94723 0.69752,-61.10007 -63.71751,0.0767 -0.69676,61.10006 z m 0.70596,-61.86743 -63.71675,0.0767 0.71749,-62.92407 63.71751,-0.0767 z m -65.19007,61.94493 0.69676,-61.10006 -66.01883,0.0798 -0.69752,61.0993 z m 0.70597,-61.86742 -66.0196,0.0798 0.71749,-62.92407 66.01959,-0.0798 z m -67.49292,61.94723 0.69676,-61.0993 -64.48411,0.0775 -0.69753,61.0993 z m 0.70597,-61.86666 -64.48488,0.0775 0.71825,-62.92407 64.48411,-0.0776 z m -65.95821,61.94569 0.69753,-61.10006 -64.45879,0.0776 -0.69752,61.10006 z m 0.70597,-61.86741 -64.45878,0.0775 0.71748,-62.92407 64.45878,-0.0776 z m -65.93211,61.94568 0.69676,-61.10006 -64.48411,0.0775 -0.69753,61.10006 z m 0.70597,-61.86741 -64.48487,0.0775 0.71747,-62.92407 64.48488,-0.0775 z m -65.9582,61.94568 0.69753,-61.10006 -62.95016,0.076 -0.69677,61.10006 z m 0.70597,-61.86742 -62.9494,0.076 0.71748,-62.92407 62.94939,-0.076 z m -64.42273,61.94416 0.69677,-61.10006 -59.11338,0.0714 -0.69676,61.09929 z m 0.70521,-61.86742 -59.11261,0.0714 0.71748,-62.92407 59.11337,-0.0714 z m -60.58593,61.93955 0.69676,-61.10006 -62.18219,0.0745 -0.69699,61.10006 z m 0.70596,-61.86742 -62.18264,0.0745 0.71778,-62.92407 62.18235,-0.0745 z m 714.67828,-0.85867 -64.48871,0.0775 0.72132,-62.92407 64.48106,-0.0783 z m -1.42725,125.26878 0.71358,-62.63477 -64.48869,0.0775 -0.71364,62.63478 z m -65.2561,0.0783 0.71364,-62.63478 -61.41314,0.0745 -0.71441,62.63401 z m -62.18127,0.0745 0.71441,-62.63401 -69.08902,0.0829 -0.71441,62.634 z m -69.85637,0.0844 0.71441,-62.63477 -66.0196,0.0798 -0.71441,62.63401 z m -66.78695,0.0798 0.71441,-62.63401 -63.71675,0.0767 -0.71441,62.634 z m -64.48488,0.0775 0.71441,-62.634 -66.01882,0.079 -0.71441,62.63478 z m -66.78618,0.0806 0.71441,-62.63478 -64.48488,0.0775 -0.71441,62.63477 z m -65.25224,0.0783 0.71441,-62.63401 -64.45878,0.0775 -0.71441,62.63401 z m -65.22614,0.0783 0.71441,-62.634 -64.48488,0.0775 -0.71441,62.63401 z m -65.25223,0.0783 0.71441,-62.63401 -62.95017,0.076 -0.71441,62.63401 z m -63.71752,0.0767 0.71441,-62.63401 -59.11261,0.0706 -0.71441,62.63478 z m -59.87996,0.0721 0.71441,-62.63401 -62.18273,0.0745 -0.71441,62.634 z m -62.19148,0.84256 62.18227,-0.0752 -0.71441,62.63478 -62.18234,0.0745 z m 62.94963,-0.076 59.11337,-0.0714 -0.71441,62.63478 -59.11337,0.0706 z m 59.88072,-0.0721 62.9494,-0.0752 -0.71441,62.63401 -62.94939,0.076 z m 63.71752,-0.0767 64.48411,-0.0775 -0.71441,62.63477 -64.48411,0.0775 z m 65.25147,-0.0783 64.45955,-0.0775 -0.71517,62.63478 -64.45879,0.0775 z m 65.22691,-0.0783 64.48411,-0.0776 -0.71441,62.63402 -64.48411,0.0775 z m 65.25147,-0.0783 66.01959,-0.0798 -0.71441,62.63478 -66.01959,0.0791 z m 66.78695,-0.0806 63.71752,-0.0767 -0.71441,62.63478 -63.71752,0.0767 z m 64.48487,-0.0775 66.01959,-0.0791 -0.71517,62.63401 -66.01882,0.0798 z m 66.78694,-0.0798 69.08826,-0.0837 -0.71441,62.63478 -69.08825,0.0829 z m 69.85639,-0.0844 61.41467,-0.0736 -0.71364,62.63401 -61.41621,0.0745 z m 62.18203,-0.0745 64.48104,-0.0775 -0.71366,62.634 -64.48102,0.0775 z"
     fill="url(#paint0_radial_163_117)"
     id="path2"
     style="fill:url(#paint0_radial_163_117);stroke-width:0.767357" />
  <rect
     width="64.458015"
     height="68.294807"
     transform="scale(1,-1)"
     fill="url(#paint1_linear_163_117)"
     id="rect4"
     style="fill:url(#paint1_linear_163_117);stroke-width:0.767357"
     x="321.52228"
     y="-260.90149" />
  <rect
     x="254.76218"
     y="264.73828"
     width="65.22538"
     height="59.853874"
     fill="url(#paint2_linear_163_117)"
     id="rect6"
     style="fill:url(#paint2_linear_163_117);stroke-width:0.767357" />
  <rect
     x="648.4165"
     y="323.82483"
     width="69.829521"
     height="62.155945"
     fill="url(#paint3_linear_163_117)"
     id="rect8"
     style="fill:url(#paint3_linear_163_117);stroke-width:0.767357" />
  <rect
     x="649.95129"
     y="135.0549"
     width="70.596878"
     height="56.01709"
     fill="url(#paint4_linear_163_117)"
     id="rect10"
     style="fill:url(#paint4_linear_163_117);stroke-width:0.767357" />
  <rect
     x="327.62122"
     width="74.45945"
     height="72.332031"
     fill="url(#paint5_linear_163_117)"
     id="rect12"
     style="fill:url(#paint5_linear_163_117);stroke-width:0.767357"
     y="0" />
  <defs
     id="defs44">
    <radialGradient
       id="paint0_radial_163_117"
       cx="0"
       cy="0"
       r="1"
       gradientUnits="userSpaceOnUse"
       gradientTransform="matrix(14.463901,-318.92518,698.07347,31.659042,639.036,378.425)">
      <stop
         stop-color="#3B3C48"
         stop-opacity="0.56"
         id="stop14" />
      <stop
         offset="1"
         stop-color="#191B32"
         stop-opacity="0"
         id="stop16" />
    </radialGradient>
    <linearGradient
       id="paint1_linear_163_117"
       x1="42"
       y1="0"
       x2="42"
       y2="89"
       gradientUnits="userSpaceOnUse"
       gradientTransform="translate(419,-340)">
      <stop
         stop-color="white"
         stop-opacity="0"
         id="stop19" />
      <stop
         offset="1"
         stop-color="#7F84B0"
         stop-opacity="0.03"
         id="stop21" />
    </linearGradient>
    <linearGradient
       id="paint2_linear_163_117"
       x1="374.5"
       y1="345"
       x2="374.5"
       y2="423"
       gradientUnits="userSpaceOnUse">
      <stop
         stop-color="white"
         stop-opacity="0"
         id="stop24" />
      <stop
         offset="1"
         stop-color="#7F84B0"
         stop-opacity="0.03"
         id="stop26" />
    </linearGradient>
    <linearGradient
       id="paint3_linear_163_117"
       x1="890.5"
       y1="422"
       x2="890.5"
       y2="503"
       gradientUnits="userSpaceOnUse">
      <stop
         stop-color="#2B2E4A"
         stop-opacity="0.05"
         id="stop29" />
      <stop
         offset="1"
         stop-color="#7F84B0"
         stop-opacity="0.03"
         id="stop31" />
    </linearGradient>
    <linearGradient
       id="paint4_linear_163_117"
       x1="893"
       y1="176"
       x2="893"
       y2="249"
       gradientUnits="userSpaceOnUse">
      <stop
         stop-color="white"
         stop-opacity="0"
         id="stop34" />
      <stop
         offset="1"
         stop-color="#7F84B0"
         stop-opacity="0.03"
         id="stop36" />
    </linearGradient>
    <linearGradient
       id="paint5_linear_163_117"
       x1="475.465"
       y1="0"
       x2="475.465"
       y2="94.2612"
       gradientUnits="userSpaceOnUse">
      <stop
         stop-color="white"
         stop-opacity="0"
         id="stop39" />
      <stop
         offset="1"
         stop-color="#7F84B0"
         stop-opacity="0.03"
         id="stop41" />
    </linearGradient>
  </defs>
</svg>
