<svg width="176" height="132" viewBox="0 0 176 132" fill="none" xmlns="http://www.w3.org/2000/svg">
<path d="M8.08547 115.744C20.0024 74.6811 55.732 78.2598 69.4167 101.09C83.1014 123.921 45.1371 160.809 31.6356 76.9897C18.1341 -6.82984 62.0104 -4.50256 85.6362 7.13852" stroke="white"/>
<path d="M1.03604 114.955C1.02683 121.297 3.37737 131.357 12.8532 120.859" stroke="white"/>
<path d="M105.759 27.4144C105.779 27.4801 105.791 27.5546 105.795 27.6378C105.799 27.7044 105.777 27.7639 105.729 27.8164C105.698 27.8514 105.657 27.8786 105.608 27.8978C105.559 27.917 105.527 27.9354 105.511 27.9529C105.151 28.0883 104.854 28.162 104.621 28.1741C104.455 28.1827 104.261 28.151 104.041 28.0789C103.866 27.9377 103.661 27.8399 103.425 27.7853C103.188 27.7308 102.702 27.6975 101.967 27.6854C101.487 27.7603 101.064 27.8072 100.698 27.8261C100.613 28.448 100.45 29.0071 100.209 29.5036C100.159 29.8232 100.082 30.1109 99.9782 30.3666C99.8789 30.7055 99.8389 30.8995 99.8581 30.9486C99.8116 31.0178 99.6754 31.4504 99.4495 32.2464C99.2228 33.0258 99.0118 33.7877 98.8166 34.5321C98.6768 35.0567 98.5714 35.4376 98.5002 35.675C98.4256 35.8457 98.3311 36.1176 98.2169 36.4907C98.1185 36.8462 98.0481 37.1002 98.0059 37.2526L97.4708 39.0075C97.3505 39.2641 97.2047 39.6721 97.0334 40.2317C96.8778 40.7738 96.753 41.2643 96.6588 41.703L96.4543 42.5898C96.3866 42.8937 96.3233 43.1222 96.2644 43.2755C96.2222 43.4279 96.1849 43.5132 96.1525 43.5316C96.1201 43.55 96.0369 43.5543 95.9028 43.5445C95.7697 43.5514 95.6143 43.4509 95.4367 43.2431C95.2765 43.0512 95.1913 42.8553 95.181 42.6556C95.1621 42.2894 95.2551 41.6671 95.46 40.7887C95.6816 39.9094 95.8956 39.2058 96.1019 38.6777C96.153 38.3747 96.1988 38.1303 96.2393 37.9447C96.2964 37.7581 96.3311 37.6228 96.3435 37.5388C96.39 37.4696 96.4559 37.291 96.5411 37.0028C96.6421 36.6972 96.7195 36.4179 96.7732 36.1647C96.8076 35.8626 97.2371 34.1631 98.0618 31.0665L98.2094 30.5331C98.3463 30.2757 98.4715 29.9522 98.5849 29.5625C98.7137 29.4724 98.7713 29.2941 98.7575 29.0278C98.7549 28.9779 98.7764 28.91 98.8221 28.8242C98.8843 28.7376 98.9146 28.6776 98.9129 28.6443C98.9445 28.6093 98.9739 28.5327 99.0012 28.4144C99.0442 28.2787 99.0973 28.1758 99.1604 28.1058L99.1592 28.0808L98.761 28.1265L97.5441 28.3145L96.9974 28.3928C96.0363 28.5259 95.4817 28.613 95.3336 28.654C94.836 28.7131 94.4769 28.7066 94.2562 28.6346C94.0522 28.5617 93.977 28.3987 94.0307 28.1456C94.0703 27.9433 94.1624 27.7883 94.307 27.6807C94.4683 27.5722 94.7141 27.4844 95.0444 27.4173C95.1925 27.3763 95.4812 27.3113 95.9105 27.2223L96.5782 27.0627L97.4219 26.9189C98.3795 26.7193 99.398 26.5665 100.477 26.4607C100.926 26.4208 101.299 26.3848 101.598 26.3527C101.913 26.303 102.12 26.2673 102.219 26.2455C102.452 26.2501 102.829 26.2724 103.348 26.3123C103.885 26.3513 104.271 26.4065 104.509 26.4776C104.879 26.5419 105.151 26.6447 105.326 26.7859C105.516 26.9262 105.661 27.1357 105.759 27.4144ZM102.84 41.2084C102.701 41.1154 102.605 41.0286 102.551 40.948C102.497 40.8673 102.465 40.7438 102.457 40.5773C102.449 40.4275 102.451 40.3023 102.462 40.2015C102.483 39.633 102.574 38.9691 102.735 38.2098L102.834 37.704C102.862 37.2853 103.108 36.3964 103.572 35.0374C104.036 33.6783 104.422 32.7488 104.73 32.2489C104.859 32.1588 104.998 32.1099 105.148 32.1021C105.364 32.091 105.551 32.1564 105.709 32.2985C105.812 32.3599 105.868 32.4821 105.878 32.6652C105.887 32.8317 105.833 33.0848 105.717 33.4245C105.617 33.7468 105.433 34.2319 105.166 34.8799C105.107 35.0165 105.003 35.2722 104.855 35.647C104.725 36.0209 104.661 36.2411 104.664 36.3077C104.666 36.341 104.675 36.3572 104.692 36.3563C104.725 36.3546 104.758 36.3446 104.79 36.3262C104.822 36.2912 104.854 36.2645 104.886 36.2462C105.053 35.9205 105.472 35.4649 106.143 34.8795C106.83 34.2933 107.303 33.9267 107.563 33.7798C107.676 33.7072 107.822 33.6328 108.002 33.5568C108.181 33.4808 108.304 33.4244 108.369 33.3877C108.628 33.2407 108.941 33.1578 109.307 33.1389C109.54 33.1269 109.742 33.1581 109.913 33.2328C110.099 33.2899 110.23 33.3916 110.304 33.538C110.327 33.6536 110.373 33.743 110.443 33.8062C110.53 33.8684 110.59 33.907 110.624 33.922C110.674 33.9194 110.709 33.9426 110.728 33.9917C110.746 34.0241 110.756 34.0487 110.757 34.0653C110.763 34.1818 110.7 34.2602 110.569 34.3003C110.436 34.3239 110.196 34.353 109.847 34.3877C109.665 34.4138 109.476 34.4653 109.279 34.5422C109.083 34.6191 108.888 34.7126 108.693 34.8228C107.788 35.4036 107.111 35.8558 106.66 36.1795C106.226 36.5024 105.79 36.9338 105.35 37.4739C105.178 37.683 104.955 38.0534 104.682 38.5848C104.571 38.7074 104.462 39.0217 104.355 39.528C104.263 40.0167 104.221 40.3193 104.227 40.4358C104.213 40.4866 104.185 40.5882 104.142 40.7405C104.099 40.8763 104.031 41.0133 103.938 41.1516C103.752 41.4283 103.593 41.57 103.46 41.5769C103.31 41.5846 103.103 41.4618 102.84 41.2084ZM118.094 32.0089C118.241 32.2683 118.323 32.5562 118.339 32.8724C118.365 33.3718 118.255 33.828 118.009 34.2413C117.855 34.4829 117.723 34.8402 117.614 35.3131C117.522 35.7852 117.437 36.4154 117.361 37.2037C117.244 37.8439 117.111 38.8271 116.963 40.1531C116.733 40.866 116.593 41.3989 116.545 41.7519C116.533 41.8526 116.461 42.0649 116.327 42.3889C116.211 42.712 116.115 42.9673 116.042 43.1547C115.462 44.5364 114.775 45.6067 113.98 46.3654C113.184 47.1241 112.297 47.5621 111.319 47.6794C111.054 47.7265 110.897 47.7513 110.847 47.7539C110.697 47.7616 110.554 47.744 110.419 47.7009C110.3 47.657 110.163 47.5973 110.009 47.5218C109.941 47.492 109.846 47.4385 109.725 47.3613C109.604 47.2841 109.518 47.2218 109.465 47.1744C109.43 47.1429 109.411 47.1021 109.409 47.0522C109.405 46.969 109.45 46.8831 109.546 46.7948C109.641 46.7064 109.797 46.6566 110.014 46.6454C110.134 46.706 110.335 46.7289 110.618 46.7143C110.901 46.6997 111.066 46.6578 111.112 46.5887C111.144 46.5536 111.241 46.4902 111.403 46.3984C111.566 46.3232 111.754 46.2551 111.968 46.194C112.471 45.9176 112.912 45.5694 113.291 45.1493C113.687 44.745 114.045 44.2342 114.363 43.6169C114.747 42.9629 114.992 42.3745 115.098 41.8516C115.23 41.4944 115.37 40.9864 115.52 40.3278C115.685 39.6517 115.812 39.0444 115.901 38.5057L115.592 38.8221C115.514 38.9263 115.314 39.0868 114.991 39.3038C114.668 39.504 114.473 39.6059 114.406 39.6094C114.39 39.6102 114.365 39.6198 114.333 39.6382C114.3 39.6566 114.285 39.6907 114.288 39.7406C114.292 39.8072 114.081 39.9266 113.656 40.0987C113.23 40.2543 112.959 40.335 112.842 40.3411C112.676 40.3497 112.488 40.2759 112.28 40.1198C112.087 39.9461 111.945 39.7783 111.853 39.6161C111.797 39.5022 111.724 39.3725 111.633 39.227C111.542 39.0815 111.468 38.9434 111.411 38.8129C111.354 38.6656 111.32 38.5005 111.311 38.3174C111.299 38.101 111.308 37.9337 111.335 37.8155C111.496 37.0562 111.774 35.982 112.17 34.5931C112.582 33.2033 112.903 32.3106 113.133 31.9148C113.256 31.7249 113.41 31.6251 113.593 31.6157C113.843 31.6028 114.049 31.7256 114.213 31.9842C114.373 32.1762 114.456 32.3388 114.463 32.4719C114.468 32.5718 114.434 32.7154 114.36 32.9028C114.287 33.0902 114.19 33.3122 114.069 33.5687C114.012 33.7552 113.939 33.9593 113.851 34.1808C113.762 34.4023 113.719 34.5381 113.721 34.588C113.708 34.6555 113.669 34.8661 113.604 35.2199C113.538 35.5571 113.472 35.7274 113.405 35.7309C113.294 35.8368 113.189 36.226 113.09 36.8987C112.991 37.5713 112.951 38.0908 112.97 38.4569C112.98 38.64 113.009 38.7303 113.059 38.7277C114.041 38.677 115.069 37.8896 116.141 36.3655C116.253 35.6254 116.355 35.0027 116.445 34.4973C116.618 33.6373 116.745 32.8713 116.827 32.1995C116.915 31.9614 116.983 31.8243 117.031 31.7885C117.079 31.736 117.186 31.7054 117.352 31.6968C117.552 31.6865 117.694 31.6958 117.779 31.7248C117.864 31.7538 117.969 31.8485 118.094 32.0089ZM126.091 39.9818C126.036 39.8845 125.948 39.789 125.826 39.6951C125.72 39.5838 125.667 39.5115 125.665 39.4782C125.655 39.2951 125.606 39.1558 125.518 39.0602C125.483 39.0286 125.463 38.9546 125.457 38.8381C125.443 38.5718 125.544 38.1159 125.761 37.4705C125.994 36.8076 126.299 36.0909 126.677 35.3204C126.771 35.2154 126.887 35.0342 127.024 34.7768C127.178 34.5185 127.278 34.3714 127.327 34.3356C127.323 34.269 127.345 34.2094 127.393 34.1569C127.439 34.0878 127.496 34.0515 127.562 34.048L127.554 33.8982C127.547 33.7484 127.803 33.3764 128.323 32.7821C128.842 32.1711 129.271 31.7485 129.609 31.514C130.011 31.2096 130.428 31.0461 130.86 31.0238C131.16 31.0083 131.422 31.0782 131.647 31.2335C131.736 31.329 132.137 31.6671 132.851 32.2477L133.818 33.0238L133.433 34.2954C133.306 34.7525 133.252 35.1642 133.271 35.5304C133.304 36.1629 133.518 36.7609 133.915 37.3246C134.007 37.5034 134.183 37.6695 134.441 37.8231C134.699 37.9766 134.954 38.0636 135.206 38.084C135.575 38.1316 135.768 38.3052 135.783 38.6048C135.8 38.9377 135.661 39.1452 135.365 39.2273C135.299 39.2473 135.2 39.2608 135.067 39.2677C134.085 39.3185 133.2 38.6716 132.413 37.3271C132.341 37.2306 132.24 37.0523 132.11 36.792C131.996 36.5308 131.928 36.3508 131.907 36.2518C131.814 36.3901 131.697 36.5546 131.557 36.7455C131.416 36.9363 131.283 37.1017 131.157 37.2418C129.436 39.1498 128.052 40.1309 127.003 40.1851C126.67 40.2023 126.366 40.1345 126.091 39.9818ZM126.918 38.5373C126.922 38.6205 127.007 38.6411 127.172 38.5993C127.353 38.5565 127.565 38.4621 127.808 38.316C128.067 38.1691 128.324 37.9806 128.58 37.7505C129.947 36.4448 130.924 35.3179 131.509 34.3698L132.012 33.4426C131.827 33.1017 131.64 32.861 131.449 32.7207C131.257 32.5637 131.086 32.4891 130.937 32.4968C130.587 32.5149 130.061 32.9843 129.357 33.9052C128.653 34.8094 128.023 35.8683 127.469 37.0819C127.333 37.3726 127.215 37.6708 127.114 37.9764C127.012 38.2654 126.947 38.4523 126.918 38.5373ZM152.21 23.8124C152.3 23.9413 152.349 24.0973 152.359 24.2803C152.37 24.4967 152.341 24.7319 152.27 24.9859C152.199 25.2232 152.117 25.4193 152.025 25.5743C151.902 25.7809 151.715 26.0243 151.462 26.3043C151.209 26.5678 151.04 26.7016 150.957 26.7059C150.874 26.7102 150.789 26.6896 150.704 26.6439C150.617 26.5816 150.548 26.5435 150.497 26.5294C150.413 26.5004 150.368 26.4443 150.364 26.3611C150.359 26.2779 150.403 26.1588 150.495 26.0038C150.587 25.8322 150.656 25.7118 150.702 25.6427C150.934 25.2802 151.043 24.9742 151.03 24.7245C151.027 24.6579 151.004 24.5423 150.962 24.3776C150.928 24.3626 150.869 24.3573 150.786 24.3616C150.636 24.3694 150.455 24.4204 150.243 24.5148C149.791 24.8052 149.384 25.1684 149.023 25.6043C148.737 25.8861 148.495 26.2073 148.297 26.568C148.115 26.9279 147.95 27.2869 147.801 27.645C147.652 27.9865 147.548 28.2256 147.488 28.3622C147.119 29.2991 146.891 29.895 146.804 30.1498C146.732 30.3705 146.637 30.6258 146.519 30.9156C146.399 31.1888 146.34 31.342 146.342 31.3753C146.312 31.4436 146.306 31.494 146.325 31.5264C146.359 31.5413 146.434 31.5458 146.551 31.5398C146.751 31.5294 146.933 31.5117 147.099 31.4864C147.578 31.3949 148.042 31.3375 148.492 31.3143C148.841 31.2962 149.11 31.3241 149.297 31.3978C149.484 31.455 149.606 31.5654 149.665 31.7293C149.79 31.8897 149.855 32.0282 149.861 32.1447C149.869 32.2945 149.767 32.4083 149.554 32.4861C149.341 32.5638 148.937 32.6598 148.342 32.774C147.995 32.842 147.764 32.8873 147.648 32.91C147.349 32.9421 147.084 32.9725 146.852 33.0012C146.619 33.0132 146.444 33.0306 146.329 33.0532C146.312 33.0541 146.271 33.0646 146.205 33.0847C146.155 33.0872 146.108 33.1398 146.063 33.2422C146.017 33.328 145.974 33.4637 145.934 33.6494C145.94 33.7659 145.938 33.8829 145.927 34.0002C145.915 34.101 145.904 34.1934 145.891 34.2774C145.866 34.429 145.846 34.6887 145.831 35.0566C145.788 35.1923 145.761 35.3105 145.75 35.4113C145.738 35.512 145.726 35.5961 145.712 35.6635C145.707 35.8808 145.667 36.0831 145.594 36.2705C145.57 36.789 145.548 37.6496 145.527 38.8523C145.526 39.8037 145.504 40.5141 145.462 40.9835C145.42 41.4697 145.314 41.8423 145.144 42.1014C144.862 42.4498 144.634 42.5617 144.46 42.4372C144.342 42.4099 144.214 42.3498 144.076 42.2568C143.938 42.1804 143.868 42.109 143.864 42.0424C143.877 41.9583 143.896 41.8572 143.924 41.7389C143.952 41.6373 143.972 41.5445 143.984 41.4604C144.012 41.3422 144.018 41.1416 144.003 40.8586C144.013 40.7246 144.013 40.5577 144.002 40.358C144.01 40.1741 144.013 39.9235 144.014 39.6064C144.046 38.2864 144.088 37.3246 144.14 36.7211C144.192 36.1176 144.309 35.3105 144.49 34.2998C144.513 34.0983 144.518 33.8727 144.506 33.6231C144.494 33.3901 144.453 33.242 144.383 33.1788C144.312 33.0991 144.201 33.0547 144.05 33.0458C143.682 33.0314 143.38 32.9887 143.142 32.9175C142.922 32.8454 142.782 32.7192 142.722 32.5387C142.601 32.4448 142.538 32.3563 142.533 32.2731C142.526 32.1233 142.653 32.0082 142.916 31.9279C143.195 31.83 143.526 31.7795 143.909 31.7764C143.976 31.7729 144.134 31.7564 144.383 31.7269C144.648 31.6965 144.827 31.6038 144.919 31.4488C145.027 31.2764 145.122 31.0128 145.204 30.6581C145.244 30.4724 145.32 30.1764 145.433 29.7701C145.546 29.3637 145.623 29.0927 145.666 28.957C145.715 28.9211 145.761 28.8519 145.806 28.7495C145.851 28.647 145.871 28.5625 145.868 28.4959C145.873 28.2787 145.958 27.9823 146.122 27.6066C146.303 27.2301 146.623 26.6378 147.082 25.8297C147.656 24.999 148.158 24.3806 148.588 23.9745C149.018 23.5685 149.521 23.3005 150.099 23.1705C150.163 23.1171 150.32 23.0923 150.57 23.0961C150.837 23.0823 150.987 23.0746 151.02 23.0728C151.354 23.0723 151.59 23.1185 151.728 23.2115C151.866 23.3045 152.027 23.5048 152.21 23.8124ZM150.603 38.7402C150.465 38.6472 150.369 38.5604 150.314 38.4798C150.26 38.3991 150.229 38.2756 150.22 38.1092C150.212 37.9594 150.214 37.8341 150.226 37.7334C150.246 37.1649 150.337 36.501 150.498 35.7416L150.597 35.2359C150.626 34.8172 150.872 33.9283 151.336 32.5692C151.8 31.2101 152.185 30.2806 152.493 29.7807C152.622 29.6906 152.762 29.6417 152.911 29.634C153.128 29.6228 153.315 29.6882 153.472 29.8303C153.576 29.8917 153.632 30.014 153.641 30.1971C153.65 30.3635 153.596 30.6166 153.48 30.9564C153.38 31.2786 153.197 31.7638 152.93 32.4117C152.87 32.5483 152.766 32.804 152.619 33.1788C152.488 33.5527 152.424 33.773 152.428 33.8395C152.429 33.8728 152.439 33.889 152.455 33.8882C152.489 33.8865 152.521 33.8764 152.554 33.8581C152.585 33.823 152.617 33.7964 152.65 33.778C152.817 33.4523 153.235 32.9967 153.906 32.4113C154.593 31.8251 155.067 31.4585 155.326 31.3116C155.439 31.239 155.586 31.1647 155.765 31.0886C155.945 31.0126 156.067 30.9562 156.132 30.9195C156.391 30.7726 156.704 30.6896 157.07 30.6707C157.303 30.6587 157.505 30.69 157.676 30.7646C157.863 30.8217 157.993 30.9235 158.067 31.0698C158.09 31.1855 158.136 31.2749 158.206 31.338C158.293 31.4003 158.353 31.4389 158.388 31.4538C158.437 31.4512 158.472 31.4745 158.491 31.5235C158.51 31.556 158.519 31.5805 158.52 31.5971C158.526 31.7137 158.463 31.792 158.332 31.8322C158.2 31.8557 157.959 31.8848 157.611 31.9195C157.428 31.9456 157.239 31.9971 157.043 32.074C156.846 32.1509 156.651 32.2445 156.456 32.3547C155.552 32.9354 154.874 33.3877 154.424 33.7114C153.99 34.0342 153.553 34.4656 153.114 35.0057C152.941 35.2149 152.718 35.5852 152.445 36.1167C152.335 36.2392 152.226 36.5536 152.118 37.0598C152.027 37.5485 151.984 37.8511 151.99 37.9676C151.976 38.0184 151.948 38.12 151.906 38.2724C151.863 38.4081 151.795 38.5451 151.702 38.6835C151.516 38.9601 151.356 39.1018 151.223 39.1087C151.073 39.1165 150.867 38.9936 150.603 38.7402ZM161.571 39.1247C160.856 39.1617 160.251 38.9259 159.758 38.4174C159.264 37.9088 158.997 37.2551 158.955 36.4562C158.914 35.6572 159.044 34.7744 159.344 33.8076C159.66 32.8233 160.082 31.9337 160.608 31.1388C161.134 30.3439 161.682 29.7982 162.251 29.5018C162.574 29.3015 162.944 29.1906 163.36 29.1691C163.676 29.1528 164.039 29.2258 164.448 29.3883C164.737 29.4902 164.96 29.6205 165.119 29.7792C165.277 29.9379 165.424 30.189 165.558 30.5325C165.624 30.8295 165.659 31.0363 165.665 31.1528C165.671 31.2527 165.64 31.4712 165.574 31.8084C165.406 32.4346 165.167 32.9726 164.857 33.4226C164.562 33.855 164.164 34.2344 163.664 34.5607C163.406 34.7409 163.077 34.8413 162.678 34.8619C162.328 34.88 161.992 34.8389 161.67 34.7388C161.364 34.6211 161.121 34.4417 160.941 34.2007L160.756 34.01L160.692 34.2136C160.389 35.1304 160.254 35.9051 160.286 36.5376C160.309 36.9703 160.41 37.3156 160.59 37.5733C160.716 37.7504 161.004 37.8273 161.453 37.8041C161.786 37.7869 162.026 37.7411 162.172 37.6668C162.417 37.5706 162.629 37.4596 162.806 37.3336C162.998 37.1902 163.183 37.0471 163.359 36.9045L163.457 36.8494L163.432 36.8507C163.626 36.7405 163.788 36.6404 163.917 36.5502C164.046 36.4601 164.134 36.3972 164.182 36.3613C164.216 36.3596 164.248 36.3495 164.281 36.3312C164.313 36.3128 164.345 36.2778 164.376 36.2261C164.522 36.1518 164.698 36.1678 164.904 36.2739C165.11 36.3801 165.217 36.5248 165.227 36.7079C165.2 36.8427 165.062 37.0669 164.811 37.3802C164.56 37.6936 164.368 37.862 164.236 37.8855C164.219 37.8864 164.162 37.9144 164.065 37.9695C163.968 38.0246 163.903 38.0696 163.872 38.1046L163.897 38.1033C163.757 38.3108 163.613 38.4184 163.463 38.4262L163.263 38.4365C163.203 38.5731 162.986 38.7179 162.61 38.8708C162.25 39.0229 161.904 39.1075 161.571 39.1247ZM162.411 33.574C162.91 33.5482 163.354 33.2416 163.74 32.6542C164.112 32.1009 164.285 31.5579 164.257 31.0253C164.242 30.7424 164.174 30.5456 164.051 30.4352C163.949 30.3904 163.856 30.3701 163.773 30.3744C163.69 30.3787 163.549 30.411 163.352 30.4713C163.138 30.5324 162.818 30.7826 162.39 31.222C161.961 31.6446 161.647 32.0197 161.446 32.3471L161.149 32.8882C161.28 32.8314 161.403 32.8 161.52 32.7939C161.652 32.7704 161.727 32.7749 161.746 32.8073C161.758 33.0403 161.826 33.2287 161.95 33.3725C162.074 33.5163 162.228 33.5834 162.411 33.574ZM169.007 38.0646C168.463 37.8757 168.074 37.6205 167.84 37.2988C167.606 36.9604 167.473 36.4833 167.441 35.8675C167.426 35.5679 167.432 35.217 167.462 34.815L167.465 33.9136C167.457 33.7638 167.435 33.6482 167.397 33.5667C167.36 33.4852 167.28 33.3975 167.158 33.3036C167.123 33.2721 167.036 33.1931 166.896 33.0669C166.756 32.9406 166.692 32.8354 166.704 32.7513L166.673 32.6278C166.667 32.5113 166.678 32.4022 166.706 32.3006C166.751 32.1982 166.798 32.1457 166.848 32.1431C166.898 32.1405 166.964 32.1288 167.046 32.1078C167.128 32.0702 167.202 32.058 167.27 32.0712C167.503 32.0592 167.622 32.1031 167.627 32.203C167.701 32.3327 167.81 32.3437 167.954 32.2361C168.115 32.111 168.262 31.8865 168.395 31.5625C168.609 31.1843 168.931 30.7838 169.359 30.3611C169.804 29.9209 170.172 29.6099 170.463 29.4279C170.576 29.3553 170.764 29.2872 171.028 29.2235C171.291 29.1432 171.522 29.0978 171.722 29.0875C172.021 29.072 172.283 29.1253 172.506 29.2472C172.746 29.3684 172.989 29.5477 173.235 29.7854C173.563 30.002 173.74 30.36 173.766 30.8594C173.784 31.2089 173.719 31.5711 173.572 31.9458C173.518 32.199 173.268 32.529 172.822 32.9359C172.392 33.3419 171.99 33.6297 171.615 33.7993C171.155 33.9399 170.625 34.0257 170.026 34.0566C169.627 34.0773 169.367 34.0573 169.247 33.9968C169.041 33.8906 168.923 34.3473 168.892 35.3669C168.882 35.4843 168.881 35.6428 168.892 35.8426C168.906 36.1255 168.96 36.3481 169.051 36.5102C169.069 36.526 169.131 36.5896 169.236 36.7009C169.341 36.7956 169.471 36.8807 169.625 36.9562C169.778 37.015 169.938 37.0402 170.105 37.0316C170.254 37.0238 170.37 37.0011 170.452 36.9636C170.632 36.9042 170.802 36.8036 170.962 36.6618C171.12 36.5034 171.342 36.2667 171.626 35.9516C171.879 35.6715 172.06 35.4786 172.172 35.3727C172.247 35.2186 172.41 35.1351 172.66 35.1222C172.726 35.1187 172.843 35.1293 173.012 35.154C173.167 35.2628 173.249 35.3838 173.256 35.5169C173.263 35.6501 173.192 35.904 173.045 36.2788C172.97 36.4496 172.774 36.6933 172.457 37.0101C172.155 37.3094 171.884 37.5488 171.643 37.7281C171.141 38.0377 170.633 38.2059 170.117 38.2325C169.8 38.2489 169.43 38.1929 169.007 38.0646ZM170.218 32.9202C170.382 32.8784 170.622 32.8243 170.935 32.758C171.249 32.6917 171.501 32.5702 171.692 32.3934C171.899 32.1992 172.133 31.8783 172.394 31.431C172.437 31.2952 172.455 31.1608 172.448 31.0276C172.435 30.778 172.376 30.6058 172.271 30.5111C172.149 30.4006 172.012 30.3492 171.863 30.3569C171.63 30.369 171.393 30.4813 171.154 30.694C170.99 30.7525 170.75 30.9485 170.433 31.2819C170.133 31.6145 169.875 31.945 169.659 32.2732C169.441 32.5849 169.375 32.7635 169.461 32.8091C169.43 32.8608 169.516 32.8981 169.717 32.9211C169.918 32.9274 170.084 32.9271 170.218 32.9202ZM104.538 73.8643C104.269 73.8281 103.985 73.6675 103.687 73.3825C103.404 73.0801 103.215 72.7978 103.118 72.5358C103.116 72.5025 103.097 72.4701 103.062 72.4385C103.027 72.3903 103 72.3583 102.982 72.3425C102.913 72.296 102.866 72.0231 102.84 71.5238C102.819 71.1243 102.814 70.7073 102.825 70.2729C102.853 69.8375 102.893 69.485 102.946 69.2152L103.327 67.8688L103.625 66.852L104.224 65.3691L103.211 65.1461C103.094 65.1355 102.991 65.0824 102.903 64.9868C102.831 64.8904 102.793 64.8006 102.789 64.7174C102.782 64.5842 102.84 64.4226 102.964 64.2327C103.103 64.0252 103.215 63.9193 103.298 63.915C103.349 63.9291 103.482 63.9305 103.699 63.9193C104.198 63.8935 104.571 63.8492 104.818 63.7864C104.981 63.7112 105.091 63.572 105.147 63.3688C105.207 63.2322 105.273 63.0619 105.346 62.8579C105.436 62.653 105.518 62.4652 105.592 62.2944C105.637 62.192 105.704 62.0383 105.794 61.8334C105.899 61.611 106.028 61.3624 106.181 61.0875C106.212 61.0358 106.28 60.9154 106.387 60.7263C106.494 60.5206 106.627 60.3468 106.786 60.205C106.897 60.0825 107.035 60.017 107.202 60.0084C107.368 59.9997 107.59 60.0968 107.867 60.2994C107.903 60.3476 107.948 60.412 108.003 60.4927C108.073 60.5724 108.111 60.6456 108.114 60.7122C108.117 60.7788 108.058 60.9237 107.936 61.147C107.847 61.3518 107.756 61.5401 107.665 61.7117C107.59 61.8658 107.522 62.0028 107.461 62.1228C107.278 62.466 107.15 62.723 107.075 62.8937C106.92 63.1187 106.845 63.2894 106.851 63.4059C106.857 63.5225 106.969 63.5751 107.185 63.5639C107.418 63.5519 107.807 63.4818 108.351 63.3535C108.582 63.3082 108.739 63.2834 108.822 63.2791C109.405 63.249 109.734 63.474 109.809 63.9541C109.83 64.0531 109.845 64.1692 109.852 64.3023C109.864 64.5353 109.788 64.6811 109.624 64.7396C109.477 64.7973 109.128 64.8403 108.579 64.8687C108.051 64.9795 107.504 65.0495 106.938 65.0787C106.838 65.0839 106.722 65.0982 106.59 65.1217C106.473 65.1278 106.349 65.1509 106.218 65.191C106.086 65.2312 105.989 65.2863 105.926 65.3563C105.879 65.4255 105.827 65.5367 105.768 65.6899C105.72 65.7424 105.614 65.9399 105.448 66.2822C105.24 66.7769 105.105 67.076 105.044 67.1793C104.663 68.534 104.401 69.9161 104.257 71.3254C104.237 71.5934 104.229 71.7607 104.232 71.8273C104.245 72.077 104.338 72.2475 104.509 72.3387C104.681 72.43 104.966 72.4653 105.366 72.4447C105.932 72.4154 106.42 72.3318 106.83 72.1938C107.318 71.9516 107.683 71.7491 107.925 71.5864C108.07 71.4955 108.2 71.4137 108.313 71.3411C108.442 71.251 108.53 71.188 108.578 71.1521C108.623 71.0497 108.679 70.9968 108.745 70.9933C108.879 70.9864 109.002 71.1136 109.116 71.3747C109.129 71.641 109.083 71.8771 108.977 72.0828C108.871 72.2886 108.592 72.5366 108.139 72.827C107.206 73.4928 106.256 73.8506 105.291 73.9005C105.025 73.9142 104.774 73.9022 104.538 73.8643ZM115.189 72.6129C114.792 73.0006 114.302 73.2095 113.719 73.2396C113.303 73.2611 112.899 73.1819 112.505 73.0019C112.129 72.8211 111.807 72.5624 111.539 72.2258C111.309 71.9707 111.135 71.6792 111.018 71.3515C110.901 71.0238 110.83 70.6186 110.805 70.1359C110.797 69.9694 110.796 69.6357 110.804 69.1346C110.822 68.5162 110.988 67.8651 111.304 67.1812C111.635 66.4965 112.054 65.8824 112.56 65.3389C113.065 64.7788 113.571 64.3855 114.076 64.1591C114.334 63.9789 114.571 63.8832 114.787 63.872C114.904 63.866 115.021 63.8683 115.138 63.8789C115.256 63.8896 115.381 63.8997 115.515 63.9095C115.884 63.9405 116.163 64.0012 116.351 64.0916C116.555 64.1645 116.728 64.2891 116.871 64.4653C117.308 64.8599 117.541 65.3318 117.57 65.8811C117.524 66.284 117.289 66.7551 116.867 67.2943C116.444 67.8335 115.925 68.2775 115.308 68.6265C115.014 68.7418 114.675 68.8094 114.293 68.8292C113.777 68.8558 113.355 68.7691 113.027 68.5691C112.875 68.5269 112.757 68.508 112.674 68.5123C112.524 68.52 112.413 68.6259 112.34 68.8299C112.284 69.0331 112.236 69.4027 112.197 69.9388C112.186 70.0562 112.187 70.223 112.198 70.4394C112.242 71.2883 112.549 71.7397 113.119 71.7937C113.506 71.8571 113.783 71.8845 113.949 71.8759C114.149 71.8656 114.37 71.7874 114.613 71.6414L115.073 71.3422C115.171 71.2871 115.259 71.2158 115.338 71.1283C115.416 71.0408 115.488 70.962 115.551 70.892C115.582 70.857 115.63 70.8045 115.693 70.7344C115.755 70.6478 115.811 70.5948 115.86 70.5756C115.925 70.5389 115.982 70.5192 116.032 70.5166C116.099 70.5132 116.176 70.5509 116.263 70.6299C116.35 70.6921 116.419 70.7386 116.471 70.7693C116.62 70.7616 116.659 70.8681 116.587 71.0888C116.514 71.2928 116.344 71.5436 116.075 71.8412C115.823 72.1212 115.527 72.3785 115.189 72.6129ZM114.891 67.3213C115.167 67.1902 115.44 66.9675 115.707 66.6533C115.991 66.3382 116.128 66.0808 116.118 65.881C116.108 65.6813 116.024 65.5187 115.867 65.3933C115.711 65.2679 115.499 65.2121 115.233 65.2258C115.033 65.2362 114.884 65.2605 114.786 65.299C114.556 65.3776 114.291 65.5749 113.99 65.8908C113.689 66.1901 113.429 66.4956 113.212 66.8072C112.994 67.1189 112.912 67.2984 112.964 67.3457C113.055 67.4912 113.384 67.5494 113.95 67.5201C114.332 67.5003 114.646 67.4341 114.891 67.3213ZM120.946 72.9913C120.38 73.0206 119.883 72.9295 119.455 72.7179C119.027 72.5064 118.736 72.2044 118.582 71.8118C118.45 71.5182 118.383 71.3548 118.381 71.3215C118.376 71.2216 118.431 71.1437 118.545 71.0877C118.661 71.0817 118.797 71.1248 118.952 71.2169C119.123 71.3082 119.26 71.3679 119.362 71.396C119.623 71.6161 119.971 71.715 120.403 71.6926C120.736 71.6754 121.032 71.5934 121.292 71.4464C121.568 71.2987 121.718 71.1324 121.742 70.9476C121.737 70.8643 121.639 70.5774 121.447 70.0866C121 69.5089 120.644 68.9182 120.379 68.3144C120.13 67.6931 119.994 67.166 119.972 66.7333C119.955 66.417 120.03 66.0877 120.196 65.7454C120.362 65.403 120.597 65.1072 120.901 64.8578C121.295 64.4036 121.774 63.9866 122.339 63.607C122.92 63.2265 123.448 62.9572 123.924 62.7991C124.124 62.7888 124.366 62.8013 124.652 62.8366C124.954 62.871 125.165 62.9185 125.285 62.9791C125.472 63.0362 125.656 63.2103 125.838 63.5013C126.02 63.7923 126.118 64.0709 126.131 64.3372C126.145 64.6035 126.023 64.977 125.764 65.4577C125.736 65.5759 125.678 65.7375 125.588 65.9424C125.499 66.1473 125.455 66.2747 125.458 66.3246C125.4 66.4945 125.296 66.5833 125.146 66.5911C124.997 66.5988 124.843 66.54 124.687 66.4145C124.546 66.2716 124.429 66.1025 124.335 65.907C124.275 65.7099 124.241 65.5364 124.233 65.3866C124.223 65.1869 124.279 64.9837 124.402 64.7771C124.575 64.5845 124.66 64.455 124.657 64.3884C124.654 64.3218 124.56 64.2932 124.377 64.3027C124.178 64.313 123.803 64.4909 123.253 64.8364C122.704 65.1819 122.272 65.538 121.957 65.9047C121.672 66.2032 121.5 66.429 121.441 66.5823C121.381 66.7189 121.359 66.9286 121.373 67.2116C121.386 67.4613 121.452 67.7583 121.57 68.1027C121.703 68.4295 121.831 68.6482 121.954 68.7587C121.991 68.8236 122.065 68.9616 122.176 69.1728C122.303 69.3832 122.447 69.5843 122.607 69.7763C122.979 70.5081 123.176 71.0821 123.197 71.4982C123.222 71.9809 123.049 72.3403 122.677 72.5765C122.322 72.8118 121.745 72.9501 120.946 72.9913ZM129.78 73.9868C129.326 73.9268 128.985 73.7859 128.757 73.564C128.546 73.358 128.429 73.0303 128.405 72.5809C128.399 72.4643 128.405 72.2554 128.423 71.9541C128.478 71.7176 128.515 71.482 128.537 71.2473C128.601 70.8768 128.673 70.6561 128.753 70.5853C128.769 70.5678 128.784 70.5336 128.798 70.4828C128.812 70.432 128.793 70.3913 128.741 70.3606C128.73 70.1442 128.789 69.8407 128.919 69.4502C128.947 69.3319 128.982 69.2133 129.026 69.0942C129.07 68.9751 129.1 68.8985 129.114 68.8643C129.079 68.8327 129.06 68.7837 129.057 68.7171C129.053 68.6339 129.09 68.5485 129.169 68.461C129.264 68.3726 129.327 68.2942 129.357 68.2259C129.403 68.1568 129.4 68.0902 129.347 68.0262C129.309 67.9447 129.448 67.562 129.763 66.8782C129.957 66.4343 130.061 66.1869 130.075 66.1361C130.056 66.087 130.156 65.7731 130.377 65.1943C130.614 64.6146 130.8 64.1794 130.935 63.8887C131.081 63.7978 131.019 63.7425 130.751 63.723C130.483 63.7035 130.158 63.7119 129.776 63.7483C129.226 63.7601 128.801 63.757 128.499 63.7392C128.197 63.7048 127.952 63.6424 127.764 63.5519C127.604 63.3766 127.522 63.239 127.517 63.1391C127.508 62.9727 127.703 62.8708 128.102 62.8335C128.534 62.7945 129.197 62.7019 130.09 62.5555L131.358 62.3899L131.411 61.9616C131.624 61.5501 131.774 61.2335 131.863 61.012C131.951 60.7738 132.012 60.512 132.048 60.2264C132.094 60.1573 132.169 59.9865 132.271 59.7142C132.391 59.441 132.461 59.1787 132.481 58.9273C132.648 58.6016 132.799 58.2934 132.934 58.0027C133.085 57.6945 133.176 57.5146 133.207 57.4629C133.382 57.3037 133.503 57.2223 133.569 57.2189C133.669 57.2137 133.84 57.2883 134.082 57.4428C134.512 57.7042 134.733 57.9348 134.743 58.1345C134.748 58.2344 134.704 58.3368 134.609 58.4419C134.549 58.5785 134.463 58.8499 134.351 59.2563C134.242 59.4121 134.128 59.6266 134.008 59.8998C133.888 60.1564 133.809 60.4024 133.771 60.638C133.653 60.9279 133.533 61.1927 133.412 61.4326C133.306 61.655 133.229 61.7675 133.179 61.7701C133.201 61.8691 133.237 61.934 133.289 61.9647C133.341 61.9954 133.425 62.0077 133.541 62.0017C133.624 61.9974 133.724 61.9839 133.84 61.9613C133.972 61.9377 134.13 61.9213 134.313 61.9118C134.478 61.8865 134.618 61.8543 134.733 61.815C134.865 61.7748 134.989 61.7517 135.105 61.7457C135.188 61.7414 135.289 61.7612 135.409 61.8051C135.586 62.0129 135.681 62.2333 135.693 62.4663C135.703 62.6494 135.635 62.7864 135.489 62.8774C135.407 62.8983 135.226 62.9577 134.947 63.0556C134.669 63.1534 134.363 63.2192 134.031 63.2531L132.715 63.4463L132.334 64.3171C132.228 64.5229 132.138 64.7194 132.064 64.9068C131.99 65.0942 131.938 65.2054 131.906 65.2404C131.91 65.3236 131.853 65.4935 131.732 65.7501C131.612 66.0066 131.522 66.2115 131.464 66.3647C131.392 66.6021 131.305 66.8403 131.2 67.0793C131.095 67.3017 131.027 67.447 130.997 67.5153C130.947 67.5179 130.915 67.5363 130.9 67.5704C130.901 67.5871 130.903 67.6204 130.905 67.6703L130.966 67.8675C130.97 67.9507 130.932 68.0361 130.854 68.1236C130.789 68.1603 130.725 68.222 130.663 68.3087C130.617 68.3945 130.587 68.4544 130.572 68.4886C130.607 68.5202 130.626 68.5609 130.628 68.6108C130.634 68.7274 130.584 68.8802 130.477 69.0693C130.492 69.3522 130.397 69.7827 130.193 70.3606C130.225 70.6594 130.252 70.8499 130.273 70.9323C130.294 71.0147 130.337 71.0458 130.403 71.0257L130.503 71.0205L130.826 70.9788C131.054 70.8669 130.959 71.4559 130.542 72.7458L130.177 73.4406C130.162 73.4747 130.109 73.5693 130.016 73.7242C129.925 73.8958 129.846 73.9834 129.78 73.9868ZM144.487 71.6998C144.256 71.7451 144.082 71.7708 143.966 71.7768C143.35 71.8086 142.832 71.6434 142.413 71.2812C141.994 70.9191 141.766 70.3968 141.731 69.7143C141.627 68.9854 141.738 68.0701 142.065 66.9685C142.409 65.8659 142.861 64.933 143.422 64.1697C143.814 63.6655 144.151 63.2559 144.435 62.9408C144.719 62.6257 144.984 62.4118 145.228 62.299C145.57 62.1311 145.957 62.036 146.39 62.0137C146.693 62.0648 146.991 62.1745 147.283 62.343C147.592 62.5106 147.752 62.686 147.761 62.869L147.892 62.9874C147.992 62.9823 148.09 63.1024 148.186 63.3477C148.282 63.5765 148.336 63.8323 148.351 64.1153C148.363 64.3483 148.332 64.5502 148.257 64.7209C148.207 65.0406 148.105 65.3212 147.95 65.5629C147.813 65.8036 147.669 65.9279 147.519 65.9356C147.336 65.9451 147.247 65.9998 147.252 66.0996C147.255 66.1662 147.224 66.2012 147.157 66.2046C147.074 66.2089 146.972 66.1642 146.85 66.0703C146.728 65.9765 146.639 65.8643 146.582 65.7337C146.58 65.6838 146.606 65.5406 146.66 65.3041C146.715 65.0676 146.768 64.8062 146.82 64.5198C146.86 64.3175 146.875 64.1414 146.868 63.9916C146.851 63.6588 146.717 63.4988 146.467 63.5117C146.334 63.5185 146.203 63.5587 146.073 63.6322C145.426 64.0328 144.865 64.6458 144.391 65.4714C143.916 66.297 143.54 67.4179 143.263 68.8341C143.199 69.2046 143.172 69.498 143.183 69.7144C143.192 69.8809 143.207 70.0136 143.229 70.1126C143.267 70.2107 143.304 70.2673 143.338 70.2822C143.423 70.3112 143.598 70.3188 143.865 70.305C144.48 70.2732 144.909 70.1759 145.151 70.0132C145.669 69.7028 146.24 69.2894 146.864 68.7732C146.928 68.7198 147.024 68.6314 147.151 68.508C147.277 68.368 147.398 68.27 147.511 68.214C147.619 68.0249 147.721 67.9112 147.819 67.8727C147.917 67.8176 148.073 67.7845 148.29 67.7733C148.51 67.8287 148.689 67.9112 148.828 68.0208C148.967 68.1138 148.971 68.197 148.841 68.2705C148.791 68.2731 148.759 68.2914 148.744 68.3256C148.729 68.3597 148.722 68.3851 148.723 68.4018C148.76 68.4833 148.638 68.6982 148.356 69.0466C148.073 69.395 147.757 69.7284 147.406 70.0469C147.054 70.3488 146.812 70.5032 146.679 70.5101C146.612 70.5135 146.554 70.5248 146.505 70.5441C146.456 70.5633 146.434 70.6062 146.437 70.6728C146.44 70.7394 146.191 70.9108 145.687 71.1871C145.2 71.446 144.8 71.6168 144.487 71.6998ZM152.74 70.8227C152.575 70.8646 152.426 70.889 152.293 70.8959C152.077 70.907 151.876 70.9007 151.691 70.8769C151.506 70.8364 151.411 70.7829 151.408 70.7163C151.405 70.6664 151.395 70.6335 151.377 70.6177C151.36 70.602 151.326 70.5954 151.276 70.5979C151.259 70.5822 151.207 70.5431 151.12 70.4808C151.033 70.4186 150.93 70.3655 150.811 70.3216C150.65 70.0963 150.562 69.8505 150.548 69.5842C150.533 69.3012 150.585 68.8563 150.704 68.2493C150.727 67.7141 150.942 67.0354 151.35 66.2133C151.758 65.3911 152.243 64.6067 152.806 63.86C153.384 63.1125 153.908 62.5848 154.376 62.2769C154.613 62.0143 154.923 61.8731 155.305 61.8534C155.605 61.8379 155.892 61.8982 156.166 62.0342C156.406 62.1553 156.659 62.3675 156.925 62.6709C157.207 62.9734 157.432 63.2872 157.599 63.6123C157.679 63.8586 157.724 64.0982 157.736 64.3312C157.749 64.5809 157.736 64.9737 157.697 65.5098C157.629 65.8137 157.574 66.1837 157.529 66.6199C157.502 67.0553 157.496 67.4311 157.512 67.7473C157.491 67.9821 157.518 68.1726 157.592 68.319C157.666 68.4487 157.761 68.5105 157.877 68.5045C157.96 68.5002 158.05 68.4705 158.148 68.4154C158.31 68.3236 158.491 68.2725 158.691 68.2622C158.874 68.2527 159.026 68.2949 159.148 68.3888C159.269 68.4826 159.335 68.6294 159.346 68.8291C159.361 69.1287 159.169 69.4391 158.768 69.7602C158.384 70.0804 158.009 70.25 157.643 70.2689C157.393 70.2819 157.15 70.1025 156.914 69.7308C156.694 69.3417 156.468 68.8444 156.236 68.2388L156.057 67.6723L155.036 68.7515L154.491 69.3554C154.239 69.6354 154.097 69.8013 154.067 69.8529C153.9 70.1787 153.458 70.5019 152.74 70.8227ZM152.739 69.3458C153.126 69.0921 153.596 68.659 154.148 68.0463C154.701 67.4337 155.155 66.8511 155.51 66.2987C155.991 65.5896 156.28 64.8988 156.379 64.2261C156.302 64.0298 156.184 63.8357 156.024 63.6437C155.864 63.4517 155.725 63.3504 155.607 63.3397C155.275 63.357 154.935 63.5664 154.589 63.9682C154.242 64.3699 153.837 64.9249 153.373 65.6331L152.612 66.8991C152.519 67.0374 152.363 67.4043 152.143 67.9997C151.923 68.5785 151.816 68.9262 151.822 69.0427C151.841 69.4089 151.958 69.5864 152.175 69.5752C152.341 69.5666 152.529 69.4901 152.739 69.3458ZM161.015 69.9445C160.826 69.8541 160.688 69.7611 160.6 69.6655C160.528 69.5691 160.487 69.4294 160.478 69.2463C160.461 68.9134 160.533 68.3756 160.695 67.6329C160.723 67.2142 160.756 66.8788 160.793 66.6265C160.846 66.3568 160.941 66.0932 161.078 65.8358C161.131 65.5827 161.229 65.2021 161.369 64.6942C161.675 63.5102 161.878 62.5985 161.979 61.9591C162.093 61.586 162.193 61.2555 162.278 60.9673C162.363 60.6792 162.442 60.4165 162.513 60.1792C162.485 60.2808 162.663 59.7041 163.049 58.4492C163.162 58.0428 163.237 57.7302 163.276 57.5112C163.42 56.7528 163.599 56.1761 163.813 55.7812C163.92 55.6088 163.996 55.463 164.04 55.3439C164.101 55.224 164.154 55.1294 164.201 55.0602C164.199 55.027 164.223 55.0007 164.272 54.9815C164.32 54.9456 164.377 54.926 164.444 54.9225C164.644 54.9122 164.814 54.9702 164.954 55.0964C165.035 55.0589 165.14 55.1536 165.269 55.3806C165.414 55.6067 165.482 55.7868 165.472 55.9208C165.483 56.1372 165.435 56.3399 165.328 56.529C165.265 56.599 165.197 56.7278 165.123 56.9151C165.048 57.0859 164.981 57.2312 164.92 57.3512C164.893 57.4694 164.845 57.6722 164.776 57.9594C164.723 58.2292 164.668 58.4573 164.611 58.6438C164.538 58.8479 164.465 59.0436 164.391 59.231C164.333 59.4009 164.283 59.5537 164.24 59.6894C164.184 59.9092 164.085 60.2398 163.941 60.6812C163.737 61.2591 163.601 61.7084 163.535 62.0289C163.506 62.1305 163.459 62.3416 163.392 62.6621C163.202 63.5064 163.009 64.1255 162.812 64.5195C162.69 64.7428 162.605 65.0392 162.558 65.4088C162.527 65.7776 162.505 66.004 162.493 66.0881C162.282 66.85 162.18 67.2975 162.187 67.4307C162.161 67.5822 162.118 67.8765 162.057 68.3135C161.985 68.8513 161.904 69.2393 161.817 69.4775C161.803 69.862 161.688 70.0599 161.472 70.0711C161.339 70.078 161.186 70.0358 161.015 69.9445ZM164.93 71.144C164.711 71.0886 164.546 70.972 164.437 70.794C164.327 70.6161 164.256 70.3611 164.222 70.0291C164.21 69.7961 164.242 69.444 164.318 68.9728C164.392 68.4849 164.435 68.1823 164.446 68.0649L164.461 67.8639C164.473 67.7798 164.49 67.6287 164.512 67.4106C164.551 67.1917 164.573 67.1405 164.579 67.257L164.719 66.5738C164.813 66.1184 164.908 65.6963 165.004 65.3074C165.101 64.9186 165.17 64.6397 165.211 64.4706L165.467 63.6063C165.949 61.9459 166.36 60.8649 166.701 60.3633C166.715 60.2958 166.737 60.2363 166.767 60.1846C166.797 60.1163 166.819 60.0485 166.832 59.981C166.838 59.7804 166.887 59.6027 166.98 59.4477C167.116 59.1903 167.23 58.9591 167.319 58.7542L167.405 58.4744C167.642 57.8948 167.853 57.45 168.037 57.1401C168.096 56.9868 168.178 56.8073 168.284 56.6016C168.407 56.3949 168.508 56.2479 168.587 56.1604L168.561 56.1367C168.637 55.9992 168.724 55.9113 168.823 55.8728C168.937 55.8335 169.086 55.8091 169.269 55.7997C169.486 55.7885 169.612 55.8153 169.649 55.8802C169.702 55.9275 169.734 56.076 169.747 56.3257L169.759 56.5504C169.767 56.7169 169.757 56.8425 169.728 56.9275C169.716 57.0116 169.663 57.1145 169.569 57.2361L169.594 57.2348C169.594 57.2348 169.579 57.2773 169.55 57.3622C169.521 57.4472 169.492 57.5238 169.462 57.5921C169.361 57.8977 169.286 58.0685 169.238 58.1043C169.144 58.226 168.837 58.9011 168.317 60.1296C167.812 61.3406 167.472 62.2009 167.298 62.7106L167.193 63.0915L167.151 63.2439C166.988 63.6528 166.9 63.8744 166.885 63.9085L166.535 65.3785L166.437 65.9093L166.241 66.4702L166.116 66.9523C166.086 67.0206 166.065 67.1051 166.054 67.2058C166.042 67.3065 166.013 67.3832 165.965 67.4357L165.947 67.5618C165.795 68.4876 165.707 69.3766 165.684 70.2289L165.664 70.3301C165.646 70.6147 165.598 70.8258 165.522 70.9633C165.446 71.1007 165.332 71.1733 165.183 71.1811C165.149 71.1828 165.065 71.1704 164.93 71.144Z" fill="white"/>
</svg>
