<svg width="30" height="30" viewBox="0 0 30 30" fill="none" xmlns="http://www.w3.org/2000/svg">
<g clip-path="url(#clip0_77_112)">
<path d="M0 0.00415039V1.59212V3.18008L0.985408 4.40423C2.61075 6.4235 3.53295 8.18314 4.23487 10.6052C4.53477 11.6401 4.57437 12.1114 4.57437 14.6272C4.57437 16.4881 4.50509 17.763 4.3746 18.3017C3.68412 21.1519 2.50609 23.6803 0.954067 25.643L0 26.8496V28.4247V30H3.21694H6.43389L6.21653 29.4798C5.95838 28.862 5.94936 28.6109 6.15824 27.8587C6.45694 26.7831 7.81504 25.6506 8.80632 25.6506C9.03698 25.6506 9.46166 25.7191 9.74983 25.8027C10.038 25.8863 10.4642 25.9136 10.6972 25.8633C11.3392 25.7248 12.122 24.9561 12.3021 24.2871C12.6109 23.1404 12.0586 22.1721 10.6652 21.4175C9.81633 20.9578 9.35841 19.4088 9.75804 18.3488C10.1252 17.375 11.2175 16.655 12.3308 16.6528C12.8891 16.6516 13.7545 15.8575 13.9657 15.1527C14.4034 13.6918 13.3707 12.3025 11.8472 12.3025C11.1468 12.3025 10.2455 11.767 9.79172 11.0813C8.98275 9.8588 9.43151 7.97592 10.7016 7.26351C11.5112 6.80938 11.8464 6.23903 11.8475 5.31319C11.8486 4.47049 11.4905 3.79104 10.7599 3.2498C10.3245 2.92725 9.98366 2.90425 8.24887 3.08107C7.32936 3.1748 7.23937 3.15513 6.66208 2.73454C5.99331 2.2473 5.55836 1.48274 5.43764 0.582685L5.36 0.00415039H2.68001H0Z" fill="url(#paint0_linear_77_112)"/>
<path d="M29.9959 0L25.1687 0.0395432L20.3413 0.0790875L20.2144 0.56945C20.0266 1.29454 20.314 2.16219 20.9066 2.65832C21.5668 3.21103 21.8978 3.89026 21.8938 4.68363C21.8878 5.84791 21.0579 7.11264 20.0501 7.49341C19.8179 7.58114 19.2105 7.65332 18.7003 7.65364C17.5859 7.65432 16.9623 7.97812 16.5982 8.74538C16.2945 9.38542 16.279 10.0492 16.5523 10.6948C16.822 11.3321 17.17 11.6234 18.0567 11.9538C19.0916 12.3395 19.6768 13.0998 19.766 14.1748C19.8057 14.6538 19.7558 15.1901 19.6473 15.452C19.3906 16.0719 18.5713 16.7569 17.8564 16.9494C16.6313 17.2793 15.8891 18.3819 16.1076 19.5468C16.3215 20.6869 17.1927 21.3012 18.596 21.3012C19.7305 21.3012 20.5562 21.6914 21.0619 22.4665C21.853 23.679 21.6871 25.0316 20.6251 26.0255C19.8482 26.7527 19.6473 27.1183 19.6473 27.8057C19.6473 28.5024 19.8804 29.0848 20.36 29.5876L20.7535 30H25.3747H29.9959V28.4612C29.9959 27.0703 29.9635 26.8865 29.6553 26.549C26.5895 23.1911 25.1989 19.6093 25.1972 15.0659C25.1955 10.8161 26.6824 6.72487 29.2982 3.77966L29.9959 2.99373V1.49686L29.9959 0Z" fill="url(#paint1_linear_77_112)"/>
</g>
<defs>
<linearGradient id="paint0_linear_77_112" x1="7.03344" y1="0.00415039" x2="7.03344" y2="30" gradientUnits="userSpaceOnUse">
<stop stop-color="#3A96CE"/>
<stop offset="1" stop-color="#11A1F8"/>
</linearGradient>
<linearGradient id="paint1_linear_77_112" x1="23.0328" y1="0" x2="23.0328" y2="30" gradientUnits="userSpaceOnUse">
<stop stop-color="#E14C36"/>
<stop offset="1" stop-color="#F42405"/>
</linearGradient>
<clipPath id="clip0_77_112">
<rect width="29.9959" height="30" fill="white"/>
</clipPath>
</defs>
</svg>
