<svg width="30" height="30" viewBox="0 0 30 30" fill="none" xmlns="http://www.w3.org/2000/svg">
<g clip-path="url(#clip0_74_74)">
<path fill-rule="evenodd" clip-rule="evenodd" d="M20.9737 2.14824C20.033 2.30627 19.1937 2.83144 18.6402 3.60824C18.3661 3.99299 18.1705 4.42795 18.0646 4.88829C17.9586 5.34863 17.9443 5.82533 18.0226 6.29117C18.1009 6.75701 18.2701 7.20287 18.5207 7.6033C18.7713 8.00373 19.0983 8.35089 19.4831 8.62494C21.6896 10.1962 22.9237 12.7929 22.7481 15.5054C22.5724 18.218 21.015 20.6311 18.6253 21.9029C18.2082 22.1248 17.839 22.4267 17.5386 22.7913C17.2382 23.1559 17.0126 23.5761 16.8746 24.0279C16.7366 24.4797 16.689 24.9542 16.7344 25.4244C16.7799 25.8946 16.9175 26.3513 17.1394 26.7683C17.3613 27.1853 17.6631 27.5546 18.0277 27.855C18.3923 28.1554 18.8125 28.381 19.2643 28.519C19.7161 28.6569 20.1907 28.7046 20.6609 28.6591C21.1311 28.6137 21.5877 28.4761 22.0048 28.2542C26.5908 25.8135 29.5915 21.1572 29.9273 15.9704C30.2632 10.7837 27.8889 5.77905 23.6569 2.76533C23.272 2.49132 22.837 2.29578 22.3766 2.1899C21.9163 2.08402 21.4395 2.06987 20.9737 2.14824Z" fill="#374060"/>
<path fill-rule="evenodd" clip-rule="evenodd" d="M15.7107 0.0170616C11.4261 -0.187057 7.11102 1.44324 4.02524 4.75147C-0.911991 10.0446 -1.35825 18.1756 2.96827 23.9793C7.2948 29.7829 15.2193 31.6643 21.6872 28.4181C22.1094 28.2062 22.4857 27.9132 22.7946 27.5558C23.1036 27.1985 23.3391 26.7838 23.4878 26.3354C23.6365 25.8871 23.6954 25.4138 23.6611 24.9427C23.6269 24.4715 23.5002 24.0117 23.2883 23.5896C23.0764 23.1674 22.7834 22.7911 22.4261 22.4821C22.0687 22.1732 21.6541 21.9376 21.2057 21.789C20.7573 21.6403 20.284 21.5814 19.8129 21.6156C19.3418 21.6498 18.882 21.7765 18.4598 21.9884C15.0671 23.6912 11.0095 22.7305 8.73537 19.68C6.46129 16.6295 6.69201 12.4392 9.28581 9.65839C11.8796 6.8776 16.0175 6.3686 19.2039 8.4352C20.0043 8.95426 20.9782 9.1341 21.9112 8.93514C22.8442 8.73619 23.66 8.17474 24.1791 7.37431C24.6981 6.57388 24.878 5.60003 24.679 4.66701C24.48 3.73399 23.9186 2.91822 23.1182 2.39916C20.8412 0.922385 18.2815 0.139533 15.7107 0.0170616Z" fill="url(#paint0_linear_74_74)"/>
</g>
<defs>
<linearGradient id="paint0_linear_74_74" x1="12.3791" y1="0" x2="12.3791" y2="30" gradientUnits="userSpaceOnUse">
<stop stop-color="#5477F1"/>
<stop offset="1" stop-color="#0039FF"/>
</linearGradient>
<clipPath id="clip0_74_74">
<rect width="29.9587" height="30" fill="white"/>
</clipPath>
</defs>
</svg>
