<svg width="291" height="33" viewBox="0 0 291 33" fill="none" xmlns="http://www.w3.org/2000/svg">
<g clip-path="url(#clip0_2169_40)">
<rect x="127" y="-1" width="56" height="34" rx="5" fill="url(#paint0_linear_2169_40)"/>
<rect x="-11" y="-1" width="56" height="34" rx="5" fill="#0D162E"/>
<rect x="58" y="-1" width="56" height="34" rx="5" fill="#0B193E"/>
<g clip-path="url(#clip1_2169_40)">
<path d="M228.139 10.7996C227.958 10.7996 227.804 10.9348 227.776 11.119L225.68 24.7956C225.672 24.8456 225.675 24.8967 225.688 24.9453C225.702 24.994 225.725 25.0391 225.757 25.0775C225.789 25.1159 225.829 25.1468 225.873 25.1679C225.918 25.1891 225.967 25.2001 226.016 25.2001H228.502C228.683 25.2001 228.837 25.0646 228.865 24.8806L229.481 20.8644C229.509 20.6805 229.663 20.545 229.844 20.545H232.105C234.746 20.545 236.988 18.5626 237.397 15.8765C237.81 13.1676 235.753 10.8054 232.837 10.7996H228.139ZM230.556 13.8527H232.365C233.854 13.8527 234.338 14.7565 234.185 15.7559C234.032 16.7575 233.279 17.4953 231.838 17.4953H229.998L230.556 13.8527ZM242.454 14.7824C241.826 14.7848 241.104 14.9171 240.293 15.2646C238.432 16.0623 237.539 17.7107 237.16 18.9125C237.16 18.9125 235.952 22.5791 238.68 24.5936C238.68 24.5936 241.21 26.5329 244.059 24.4741L244.009 24.7956C244.002 24.8456 244.005 24.8966 244.018 24.9452C244.032 24.9938 244.055 25.0389 244.087 25.0773C244.119 25.1157 244.158 25.1466 244.203 25.1678C244.248 25.189 244.296 25.2 244.345 25.2001H246.705C246.886 25.2001 247.04 25.0646 247.069 24.8806L248.504 15.5148C248.512 15.4649 248.509 15.4138 248.496 15.3651C248.482 15.3164 248.459 15.2713 248.427 15.2328C248.395 15.1943 248.355 15.1634 248.311 15.1422C248.266 15.1209 248.218 15.1099 248.168 15.1099H245.808C245.627 15.1099 245.473 15.2454 245.445 15.4293L245.368 15.9334C245.368 15.9334 244.337 14.7752 242.454 14.7824ZM242.531 17.7407C242.802 17.7407 243.05 17.7792 243.272 17.8527C244.291 18.1889 244.868 19.1953 244.701 20.2862C244.495 21.6294 243.424 22.6184 242.051 22.6184C241.78 22.6184 241.532 22.5802 241.309 22.5067C240.291 22.1704 239.71 21.164 239.877 20.0732C240.083 18.73 241.158 17.7407 242.531 17.7407Z" fill="#003087"/>
<path d="M262.127 10.7996C261.946 10.7996 261.792 10.9348 261.763 11.119L259.667 24.7956C259.659 24.8456 259.662 24.8967 259.676 24.9453C259.689 24.994 259.713 25.0391 259.745 25.0775C259.777 25.1159 259.816 25.1468 259.861 25.1679C259.905 25.1891 259.954 25.2001 260.003 25.2001H262.489C262.67 25.2001 262.824 25.0646 262.853 24.8806L263.468 20.8644C263.497 20.6805 263.651 20.545 263.832 20.545H266.092C268.733 20.545 270.975 18.5626 271.384 15.8765C271.797 13.1676 269.74 10.8054 266.825 10.7996H262.127ZM264.543 13.8527H266.352C267.841 13.8527 268.326 14.7565 268.172 15.7559C268.019 16.7575 267.266 17.4953 265.826 17.4953H263.985L264.543 13.8527ZM276.441 14.7824C275.813 14.7848 275.091 14.9171 274.28 15.2646C272.419 16.0623 271.526 17.7107 271.147 18.9125C271.147 18.9125 269.94 22.5791 272.668 24.5936C272.668 24.5936 275.197 26.5329 278.046 24.4741L277.997 24.7956C277.989 24.8456 277.992 24.8967 278.006 24.9453C278.019 24.994 278.042 25.0391 278.074 25.0775C278.106 25.1159 278.146 25.1468 278.191 25.1679C278.235 25.1891 278.284 25.2001 278.333 25.2001H280.693C280.874 25.2001 281.028 25.0646 281.056 24.8806L282.492 15.5148C282.5 15.4648 282.497 15.4137 282.484 15.365C282.47 15.3163 282.447 15.2711 282.415 15.2326C282.383 15.1941 282.343 15.1632 282.299 15.142C282.254 15.1208 282.205 15.1098 282.156 15.1099H279.796C279.615 15.1099 279.461 15.2454 279.433 15.4293L279.355 15.9334C279.355 15.9334 278.324 14.7752 276.441 14.7824ZM276.518 17.7407C276.789 17.7407 277.037 17.7792 277.259 17.8527C278.278 18.1889 278.855 19.1953 278.688 20.2862C278.482 21.6294 277.411 22.6184 276.038 22.6184C275.767 22.6184 275.519 22.5802 275.296 22.5067C274.278 22.1704 273.697 21.164 273.864 20.0732C274.071 18.73 275.145 17.7407 276.518 17.7407Z" fill="#0070E0"/>
<path d="M249.624 15.1099C249.437 15.1099 249.304 15.2978 249.361 15.4809L251.949 23.7409L249.609 27.6334C249.496 27.8224 249.628 28.0664 249.844 28.0664H252.609C252.688 28.0663 252.766 28.0453 252.834 28.0053C252.903 27.9653 252.961 27.9078 253.002 27.8381L260.228 15.5402C260.339 15.3513 260.207 15.1096 259.992 15.1096H257.227C257.147 15.1097 257.069 15.1311 257 15.1719C256.93 15.2126 256.872 15.2712 256.832 15.3419L253.987 20.2822L252.543 15.3785C252.496 15.2189 252.353 15.1096 252.191 15.1096L249.624 15.1099Z" fill="#003087"/>
<path d="M285.174 10.7996C284.993 10.7996 284.839 10.9351 284.811 11.119L282.714 24.7951C282.706 24.8451 282.709 24.8962 282.722 24.945C282.736 24.9937 282.759 25.0388 282.791 25.0773C282.823 25.1158 282.863 25.1467 282.907 25.1679C282.952 25.1891 283.001 25.2001 283.05 25.2001H285.536C285.717 25.2001 285.871 25.0646 285.899 24.8806L287.996 11.204C288.003 11.1541 288 11.1031 287.987 11.0544C287.974 11.0058 287.95 10.9608 287.918 10.9223C287.886 10.8839 287.847 10.853 287.802 10.8319C287.758 10.8107 287.709 10.7996 287.66 10.7996H285.174Z" fill="#0070E0"/>
<path d="M207.413 10.7996C207.253 10.7997 207.098 10.8586 206.976 10.9656C206.854 11.0727 206.774 11.2209 206.749 11.3836L205.645 18.5837C205.696 18.2475 205.978 17.9997 206.309 17.9997H209.543C212.797 17.9997 215.559 15.5573 216.064 12.2476C216.101 12.0005 216.122 11.751 216.127 11.501C215.3 11.0548 214.329 10.7996 213.264 10.7996H207.413Z" fill="#001C64"/>
<path d="M216.127 11.5012C216.123 11.7513 216.101 12.0007 216.064 12.2478C215.559 15.5576 212.797 17.9999 209.543 17.9999H206.309C205.978 17.9999 205.697 18.2475 205.645 18.584L204.63 25.2003L203.995 29.351C203.982 29.4312 203.987 29.5132 204.008 29.5914C204.03 29.6696 204.067 29.742 204.119 29.8038C204.17 29.8655 204.234 29.9151 204.305 29.9491C204.377 29.9831 204.455 30.0006 204.534 30.0006H208.044C208.204 30.0005 208.359 29.9416 208.481 29.8345C208.602 29.7275 208.683 29.5793 208.708 29.4165L209.633 23.3843C209.658 23.2214 209.738 23.0732 209.86 22.9661C209.982 22.859 210.137 22.8002 210.297 22.8002H212.364C215.618 22.8002 218.38 20.3578 218.885 17.0481C219.243 14.699 218.093 12.5614 216.127 11.5012Z" fill="#0070E0"/>
<path d="M203.425 6.00024C203.094 6.00024 202.812 6.24777 202.761 6.58377L200.007 24.5509C199.954 24.892 200.211 25.2005 200.546 25.2005H204.631L205.645 18.5842L206.748 11.384C206.773 11.2213 206.854 11.0731 206.976 10.966C207.098 10.859 207.252 10.8001 207.413 10.8H213.264C214.329 10.8 215.3 11.0555 216.127 11.5014C216.184 8.48805 213.767 6.00024 210.444 6.00024H203.425Z" fill="#003087"/>
</g>
<g clip-path="url(#clip2_2169_40)">
<path d="M152.333 21.827H149.093L151.12 10.2107H154.36L152.333 21.827Z" fill="white"/>
<path d="M164.08 10.4946C163.44 10.2595 162.427 10 161.173 10C157.973 10 155.72 11.5817 155.706 13.8431C155.68 15.5115 157.32 16.4382 158.546 16.9945C159.8 17.563 160.226 17.934 160.226 18.4407C160.213 19.2189 159.213 19.5777 158.28 19.5777C156.986 19.5777 156.293 19.3927 155.24 18.9598L154.813 18.7742L154.36 21.3818C155.12 21.7027 156.52 21.9875 157.973 22C161.373 22 163.587 20.4428 163.613 18.0329C163.626 16.7105 162.76 15.6973 160.893 14.8693C159.76 14.3378 159.066 13.9794 159.066 13.4356C159.079 12.9412 159.653 12.4348 160.932 12.4348C161.986 12.41 162.76 12.6447 163.346 12.8796L163.639 13.003L164.08 10.4946Z" fill="white"/>
<path d="M168.386 17.7118C168.653 17.0444 169.68 14.4616 169.68 14.4616C169.666 14.4864 169.946 13.782 170.106 13.3495L170.333 14.3504C170.333 14.3504 170.946 17.131 171.08 17.7118C170.573 17.7118 169.026 17.7118 168.386 17.7118ZM172.386 10.2107H169.88C169.107 10.2107 168.52 10.4206 168.186 11.1745L163.373 21.8268H166.773C166.773 21.8268 167.333 20.3931 167.453 20.0843C167.826 20.0843 171.133 20.0843 171.613 20.0843C171.706 20.4922 172 21.8268 172 21.8268H175L172.386 10.2107Z" fill="white"/>
<path d="M146.387 10.2107L143.213 18.1319L142.867 16.5254C142.28 14.6717 140.44 12.6577 138.387 11.6562L141.293 21.8147H144.72L149.813 10.2107H146.387Z" fill="white"/>
<path d="M140.267 10.2107H135.053L135 10.4454C139.067 11.4094 141.76 13.733 142.867 16.5259L141.733 11.1872C141.547 10.4452 140.973 10.2352 140.267 10.2107Z" fill="#FAA61A"/>
</g>
<path d="M107.737 16.0666C107.739 22.5914 102.451 27.8818 95.9266 27.8835C89.4016 27.8851 84.1114 22.5974 84.1096 16.0726C84.1096 16.0704 84.1096 16.0687 84.1096 16.0666C84.1079 9.54191 89.3959 4.25125 95.9204 4.24951C102.445 4.24778 107.736 9.53578 107.737 16.0606C107.737 16.0626 107.737 16.0644 107.737 16.0666Z" fill="#FF9900"/>
<path d="M80.0001 4.25274C73.5139 4.29394 68.2622 9.57088 68.2622 16.0667C68.2622 22.5879 73.5549 27.8806 80.0762 27.8806C83.1369 27.8806 85.9267 26.7142 88.0261 24.8025C88.0261 24.8025 88.0257 24.8022 88.0251 24.8019H88.0277C88.4575 24.4102 88.8585 23.9875 89.227 23.5369H86.8066C86.4834 23.1465 86.1897 22.7397 85.9258 22.3199H90.1002C90.3541 21.9137 90.5839 21.4918 90.7879 21.0549H85.2366C85.0474 20.6493 84.8831 20.2345 84.7429 19.8137H91.2822C91.6763 18.6361 91.8902 17.3762 91.8902 16.0666C91.8902 15.1983 91.7961 14.3518 91.6179 13.5367H84.3961C84.4855 13.1173 84.5985 12.7029 84.7331 12.2957H91.2749C91.1286 11.8623 90.9587 11.4401 90.7655 11.0307H85.2359C85.4354 10.6046 85.6614 10.1901 85.9138 9.78981H90.0851C89.8075 9.34755 89.5003 8.92501 89.1682 8.52475H86.8425C87.2021 8.10155 87.5979 7.70301 88.0277 7.33141C85.9282 5.41941 83.1375 4.25274 80.0762 4.25274C80.0507 4.25274 80.0255 4.25261 80.0001 4.25274Z" fill="#CC0000"/>
<path d="M106.552 22.2427C106.617 22.2427 106.679 22.2593 106.74 22.2921C106.802 22.3249 106.849 22.3723 106.883 22.4337C106.917 22.4945 106.934 22.5587 106.934 22.6251C106.934 22.6907 106.917 22.7541 106.884 22.8149C106.85 22.8756 106.803 22.9229 106.742 22.9567C106.682 22.9899 106.618 23.0067 106.552 23.0067C106.486 23.0067 106.423 22.9899 106.362 22.9567C106.301 22.9228 106.255 22.8757 106.22 22.8149C106.187 22.7541 106.17 22.6907 106.17 22.6251C106.17 22.5587 106.187 22.4945 106.221 22.4337C106.256 22.3723 106.303 22.3253 106.364 22.2921C106.426 22.2593 106.488 22.2427 106.552 22.2427ZM106.552 22.306C106.499 22.306 106.447 22.3199 106.396 22.3475C106.345 22.3751 106.305 22.4141 106.277 22.4659C106.248 22.5168 106.234 22.5696 106.234 22.6251C106.234 22.68 106.248 22.7331 106.276 22.7835C106.304 22.8337 106.344 22.8732 106.394 22.9015C106.445 22.9296 106.497 22.9435 106.552 22.9435C106.607 22.9435 106.66 22.9296 106.711 22.9015C106.761 22.8732 106.801 22.8337 106.829 22.7835C106.857 22.7331 106.87 22.6801 106.87 22.6251C106.87 22.5696 106.856 22.5167 106.828 22.4659C106.799 22.4141 106.759 22.3751 106.708 22.3475C106.658 22.3197 106.606 22.306 106.552 22.306ZM106.385 22.836V22.4251H106.527C106.575 22.4251 106.609 22.4288 106.631 22.4368C106.653 22.4444 106.67 22.4573 106.683 22.4764C106.695 22.4952 106.702 22.5152 106.702 22.5365C106.702 22.5667 106.691 22.5928 106.67 22.6149C106.649 22.6371 106.62 22.6497 106.585 22.6524C106.599 22.6584 106.611 22.666 106.62 22.6743C106.636 22.6903 106.656 22.7173 106.68 22.7556L106.73 22.836H106.65L106.613 22.7713C106.585 22.7204 106.562 22.6887 106.544 22.6756C106.532 22.6664 106.514 22.6616 106.491 22.6616H106.452V22.8364H106.385M106.451 22.6047H106.532C106.57 22.6047 106.596 22.5988 106.61 22.5875C106.624 22.5757 106.631 22.5608 106.631 22.5419C106.631 22.5296 106.628 22.5187 106.622 22.5093C106.615 22.4996 106.605 22.4927 106.593 22.4877C106.581 22.4831 106.559 22.4804 106.527 22.4804H106.452V22.6047" fill="#FCB340"/>
<path d="M83.9964 19.4559L84.1538 18.3865C84.0678 18.3865 83.9414 18.4237 83.8296 18.4237C83.3918 18.4237 83.3371 18.1897 83.3715 18.0188L83.803 15.8681H84.4686L84.6058 14.6544H83.9784L84.1062 13.9189H82.7939C82.7662 13.9467 82.0515 18.0552 82.0515 18.5557C82.0515 19.2964 82.4672 19.626 83.0536 19.6208C83.5126 19.6169 83.8703 19.4899 83.9964 19.4559Z" fill="#000066"/>
<path d="M84.3948 17.4175C84.3948 19.1951 85.568 19.6173 86.5677 19.6173C87.4905 19.6173 87.9744 19.4035 87.9744 19.4035L88.196 18.1901C88.196 18.1901 87.4162 18.5072 86.7825 18.5072C85.4317 18.5072 85.6685 17.5 85.6685 17.5L88.2636 17.5079C88.2636 17.5079 88.4288 16.6931 88.4288 16.3609C88.4288 15.532 87.9772 14.5144 86.5961 14.5144C85.3313 14.5147 84.3948 15.8775 84.3948 17.4175ZM86.6009 15.6408C87.3108 15.6408 87.1798 16.4387 87.1798 16.5033H85.7833C85.7833 16.4207 85.9152 15.6408 86.6009 15.6408Z" fill="#000066"/>
<path d="M94.5661 19.4555L94.7913 18.0843C94.7913 18.0843 94.1737 18.3937 93.7504 18.3937C92.858 18.3937 92.5 17.7124 92.5 16.9803C92.5 15.4953 93.2677 14.6783 94.1224 14.6783C94.7635 14.6783 95.2777 15.0381 95.2777 15.0381L95.4831 13.7057C95.4831 13.7057 94.8759 13.2672 94.2223 13.2647C92.2563 13.2569 91.1313 14.6257 91.1313 16.992C91.1313 18.5604 91.9644 19.6277 93.4655 19.6277C93.8899 19.6277 94.5661 19.4555 94.5661 19.4555Z" fill="#000066"/>
<path d="M77.0781 14.5339C76.2155 14.5339 75.5545 14.8111 75.5545 14.8111L75.3718 15.8947C75.3718 15.8947 75.9175 15.673 76.7426 15.673C77.211 15.673 77.5537 15.7257 77.5537 16.1063C77.5537 16.3375 77.5118 16.4229 77.5118 16.4229C77.5118 16.4229 77.1422 16.3921 76.971 16.3921C75.743 16.3921 74.7405 16.8563 74.7405 18.2561C74.7405 19.3591 75.4902 19.6121 75.9549 19.6121C76.8425 19.6121 77.1938 19.0517 77.2141 19.0501L77.2038 19.5151H78.3114L78.8055 16.0511C78.8055 14.5811 77.5234 14.5339 77.0781 14.5339ZM77.2698 17.3467C77.2939 17.5582 77.2151 18.5582 76.4575 18.5582C76.0669 18.5582 75.9654 18.2595 75.9654 18.0833C75.9654 17.7387 76.1525 17.3255 77.0741 17.3255C77.2887 17.3255 77.2337 17.341 77.2698 17.3467Z" fill="#000066"/>
<path d="M79.9826 19.5865C80.266 19.5865 81.8856 19.6587 81.8856 17.9873C81.8856 16.4245 80.3864 16.7335 80.3864 16.1055C80.3864 15.7932 80.6308 15.6948 81.0776 15.6948C81.2548 15.6948 81.9372 15.7512 81.9372 15.7512L82.0957 14.6405C82.0957 14.6405 81.6541 14.5417 80.9352 14.5417C80.0046 14.5417 79.0601 14.9132 79.0601 16.1841C79.0601 17.6244 80.635 17.4797 80.635 18.0864C80.635 18.4913 80.195 18.5247 79.8558 18.5247C79.269 18.5247 78.7408 18.3232 78.7389 18.3329L78.571 19.4323C78.6016 19.4416 78.9276 19.5865 79.9826 19.5865Z" fill="#000066"/>
<path d="M104.942 13.5264L104.714 15.2209C104.714 15.2209 104.241 14.5669 103.499 14.5669C102.105 14.5669 101.386 15.9566 101.386 17.553C101.386 18.5837 101.899 19.594 102.946 19.594C103.7 19.594 104.117 19.0685 104.117 19.0685L104.062 19.5172H105.286L106.247 13.5356L104.942 13.5264ZM104.401 16.8198C104.401 17.4842 104.072 18.3718 103.391 18.3718C102.938 18.3718 102.726 17.9917 102.726 17.3953C102.726 16.42 103.164 15.7766 103.716 15.7766C104.169 15.7766 104.401 16.0873 104.401 16.8198Z" fill="#000066"/>
<path d="M70.2672 19.522L71.033 15.006L71.1455 19.522H72.012L73.6287 15.006L72.9126 19.522H74.2003L75.1919 13.5324L73.1463 13.5168L71.9295 17.184L71.8962 13.5324H70.0215L69.0156 19.522H70.2672Z" fill="#000066"/>
<path d="M89.6476 19.5307C90.0137 17.4487 90.1441 15.8045 91.2118 16.145C91.3652 15.3392 91.7306 14.6384 91.8976 14.2973C91.8976 14.2973 91.8448 14.2188 91.5148 14.2188C90.9514 14.2188 90.1993 15.362 90.1993 15.362L90.3117 14.6551H89.1402L88.3557 19.5306L89.6476 19.5307Z" fill="#000066"/>
<path d="M97.2008 14.5339C96.3378 14.5339 95.6768 14.8111 95.6768 14.8111L95.4942 15.8947C95.4942 15.8947 96.0402 15.673 96.8649 15.673C97.3334 15.673 97.676 15.7257 97.676 16.1063C97.676 16.3375 97.6342 16.4229 97.6342 16.4229C97.6342 16.4229 97.2648 16.3921 97.0936 16.3921C95.8654 16.3921 94.863 16.8563 94.863 18.2561C94.863 19.3591 95.6126 19.6121 96.0773 19.6121C96.9646 19.6121 97.3162 19.0517 97.3364 19.0501L97.326 19.5151H98.4338L98.9278 16.0511C98.928 14.5811 97.6458 14.5339 97.2008 14.5339ZM97.3922 17.3467C97.4162 17.5582 97.3374 18.5582 96.58 18.5582C96.189 18.5582 96.0877 18.2595 96.0877 18.0833C96.0877 17.7387 96.2746 17.3255 97.1964 17.3255C97.4112 17.3255 97.3562 17.341 97.3922 17.3467Z" fill="#000066"/>
<path d="M100.203 19.5308C100.404 17.999 100.776 15.8486 101.767 16.145C101.92 15.3392 101.772 15.3413 101.443 15.3413C100.879 15.3413 100.754 15.3618 100.754 15.3618L100.867 14.655H99.6952L98.9106 19.5306L100.203 19.5308Z" fill="#000066"/>
<path d="M84.3243 19.0744L84.4818 18.0052C84.3958 18.0052 84.2693 18.042 84.1577 18.042C83.7198 18.042 83.6716 17.8092 83.6994 17.6371L84.0532 15.4555H84.7186L84.8793 14.2728H84.2518L84.3796 13.5374H83.1217C83.094 13.5651 82.3792 17.6738 82.3792 18.174C82.3792 18.9147 82.795 19.2446 83.3814 19.2392C83.8406 19.2354 84.1982 19.1083 84.3243 19.0744Z" fill="white"/>
<path d="M84.7229 17.036C84.7229 18.8136 85.8962 19.236 86.8958 19.236C87.8185 19.236 88.2245 19.0297 88.2245 19.0297L88.4461 17.8165C88.4461 17.8165 87.7442 18.1257 87.1104 18.1257C85.7597 18.1257 85.9962 17.1187 85.9962 17.1187H88.5525C88.5525 17.1187 88.7176 16.3036 88.7176 15.9715C88.7176 15.1427 88.305 14.1328 86.924 14.1328C85.6592 14.1331 84.7229 15.4959 84.7229 17.036ZM86.9288 15.2593C87.6386 15.2593 87.5077 16.0571 87.5077 16.1216H86.1112C86.1112 16.0392 86.2432 15.2593 86.9288 15.2593Z" fill="white"/>
<path d="M94.8941 19.0739L95.1191 17.7026C95.1191 17.7026 94.5019 18.012 94.0783 18.012C93.1861 18.012 92.8282 17.3307 92.8282 16.5987C92.8282 15.1138 93.5959 14.2968 94.4506 14.2968C95.0915 14.2968 95.6059 14.6567 95.6059 14.6567L95.8113 13.3243C95.8113 13.3243 95.0485 13.0156 94.3946 13.0156C92.9425 13.0156 91.5298 14.2754 91.5298 16.6412C91.5298 18.21 92.2926 19.2462 93.7937 19.2462C94.2181 19.2463 94.8941 19.0739 94.8941 19.0739Z" fill="white"/>
<path d="M77.4061 14.1523C76.5436 14.1523 75.8824 14.4295 75.8824 14.4295L75.6998 15.5131C75.6998 15.5131 76.2456 15.2914 77.0705 15.2914C77.5389 15.2914 77.8816 15.3441 77.8816 15.7247C77.8816 15.9559 77.8396 16.0413 77.8396 16.0413C77.8396 16.0413 77.4701 16.0103 77.299 16.0103C76.2112 16.0103 75.0684 16.4746 75.0684 17.8743C75.0684 18.9773 75.8181 19.2303 76.2828 19.2303C77.1702 19.2303 77.5528 18.6545 77.5732 18.6527L77.5317 19.1334H78.6393L79.1334 15.6693C79.1334 14.1997 77.8514 14.1523 77.4061 14.1523ZM77.6756 16.9729C77.6996 17.1845 77.5429 18.1763 76.7856 18.1763C76.3949 18.1763 76.2933 17.8779 76.2933 17.7014C76.2933 17.3571 76.4804 16.9438 77.4021 16.9438C77.6165 16.9441 77.6394 16.967 77.6756 16.9729Z" fill="white"/>
<path d="M80.3106 19.2048C80.594 19.2048 82.2137 19.2768 82.2137 17.6055C82.2137 16.043 80.7144 16.3516 80.7144 15.7239C80.7144 15.4114 80.9588 15.313 81.4054 15.313C81.5828 15.313 82.265 15.3694 82.265 15.3694L82.4237 14.2587C82.4237 14.2587 81.9821 14.1599 81.2632 14.1599C80.3326 14.1599 79.3881 14.5314 79.3881 15.8023C79.3881 17.2424 80.963 17.0979 80.963 17.7046C80.963 18.1095 80.523 18.1424 80.184 18.1424C79.5972 18.1424 79.0688 17.9411 79.0669 17.9507L78.8992 19.0502C78.9296 19.0595 79.2554 19.2048 80.3106 19.2048Z" fill="white"/>
<path d="M105.314 13.1556L105.042 14.8392C105.042 14.8392 104.569 14.1852 103.828 14.1852C102.675 14.1852 101.714 15.5748 101.714 17.1714C101.714 18.2021 102.227 19.212 103.274 19.212C104.028 19.212 104.445 18.6866 104.445 18.6866L104.39 19.1353H105.614L106.574 13.1536L105.314 13.1556ZM104.729 16.4382C104.729 17.1026 104.4 17.9901 103.718 17.9901C103.266 17.9901 103.054 17.6101 103.054 17.0137C103.054 16.0385 103.492 15.395 104.044 15.395C104.497 15.3949 104.729 15.706 104.729 16.4382Z" fill="white"/>
<path d="M70.5954 19.1406L71.3611 14.6246L71.4735 19.1406H72.3402L73.9568 14.6246L73.2407 19.1406H74.5284L75.5202 13.1509H73.5288L72.2887 16.8259L72.2242 13.1509H70.3886L69.3826 19.1406H70.5954Z" fill="white"/>
<path d="M89.9756 19.1488C90.3417 17.0667 90.4096 15.376 91.2833 15.6855C91.4362 14.8796 91.5838 14.5679 91.7508 14.2268C91.7508 14.2268 91.6725 14.2104 91.5082 14.2104C90.9449 14.2104 90.5276 14.98 90.5276 14.98L90.6397 14.2732H89.4685L88.6838 19.1488H89.9756Z" fill="white"/>
<path d="M97.7966 14.1523C96.934 14.1523 96.2729 14.4295 96.2729 14.4295L96.0904 15.5131C96.0904 15.5131 96.6362 15.2914 97.4611 15.2914C97.9295 15.2914 98.2719 15.3441 98.2719 15.7247C98.2719 15.9559 98.2302 16.0413 98.2302 16.0413C98.2302 16.0413 97.8607 16.0103 97.6895 16.0103C96.6018 16.0103 95.459 16.4746 95.459 17.8743C95.459 18.9773 96.2086 19.2303 96.6733 19.2303C97.5607 19.2303 97.9433 18.6545 97.9635 18.6527L97.9223 19.1334C97.9223 19.1334 99.0295 19.1334 99.0299 19.1334L99.5239 15.6693C99.5241 14.1997 98.2419 14.1523 97.7966 14.1523ZM98.0664 16.9729C98.0904 17.1845 97.9336 18.1763 97.176 18.1763C96.7854 18.1763 96.684 17.8779 96.684 17.7014C96.684 17.3571 96.8711 16.9438 97.7927 16.9438C98.0071 16.9441 98.0299 16.967 98.0664 16.9729Z" fill="white"/>
<path d="M100.536 19.1488C100.902 17.0667 100.97 15.376 101.844 15.6855C101.997 14.8796 102.145 14.5679 102.312 14.2268C102.312 14.2268 102.233 14.2104 102.069 14.2104C101.506 14.2104 101.088 14.98 101.088 14.98L101.2 14.2732H100.029L99.2446 19.1488H100.536Z" fill="white"/>
<path d="M106.547 18.3965C106.611 18.3965 106.674 18.4129 106.735 18.4462C106.796 18.4785 106.844 18.526 106.878 18.5874C106.912 18.6485 106.929 18.7121 106.929 18.7786C106.929 18.8444 106.912 18.9078 106.878 18.9685C106.845 19.0292 106.798 19.0768 106.737 19.1102C106.677 19.1436 106.613 19.1604 106.547 19.1604C106.481 19.1604 106.417 19.1436 106.357 19.1102C106.296 19.0765 106.249 19.0292 106.216 18.9685C106.181 18.9078 106.165 18.8444 106.165 18.7786C106.165 18.7121 106.182 18.6485 106.216 18.5874C106.25 18.526 106.298 18.4788 106.359 18.4462C106.421 18.4129 106.483 18.3965 106.547 18.3965ZM106.547 18.4594C106.494 18.4594 106.442 18.4733 106.391 18.5012C106.34 18.5284 106.3 18.5677 106.271 18.6192C106.243 18.67 106.228 18.7232 106.228 18.7784C106.228 18.8336 106.242 18.8864 106.27 18.9368C106.299 18.987 106.338 19.0265 106.389 19.0549C106.439 19.0826 106.492 19.0966 106.547 19.0966C106.602 19.0966 106.655 19.0826 106.706 19.0549C106.756 19.0265 106.796 18.987 106.824 18.9368C106.852 18.886 106.865 18.8336 106.865 18.7784C106.865 18.7232 106.851 18.67 106.823 18.6192C106.794 18.5677 106.755 18.5284 106.703 18.5012C106.653 18.4734 106.601 18.4594 106.547 18.4594ZM106.38 18.9896V18.5785H106.521C106.57 18.5785 106.605 18.5824 106.626 18.5902C106.648 18.5976 106.665 18.6108 106.678 18.6298C106.691 18.6488 106.697 18.6686 106.697 18.69C106.697 18.72 106.686 18.7462 106.665 18.7684C106.644 18.7905 106.615 18.8033 106.58 18.8057C106.594 18.8118 106.606 18.8192 106.615 18.8274C106.631 18.8437 106.651 18.8709 106.675 18.9089L106.726 18.9894H106.645L106.608 18.9248C106.58 18.8737 106.557 18.842 106.539 18.829C106.527 18.8196 106.509 18.8149 106.486 18.8149H106.447V18.9897L106.38 18.9896ZM106.446 18.7582H106.527C106.565 18.7582 106.591 18.7525 106.605 18.741C106.619 18.7298 106.627 18.7145 106.627 18.6954C106.627 18.6833 106.623 18.6724 106.617 18.6632C106.61 18.6533 106.6 18.6462 106.588 18.6413C106.576 18.6366 106.554 18.6342 106.522 18.6342H106.447V18.7582" fill="white"/>
<path d="M19.5 24.8947C21.8594 22.6989 23.3342 19.5255 23.3342 15.9985C23.3342 12.4718 21.8594 9.30093 19.5 7.10483C17.4356 5.17446 14.6771 3.99976 11.6758 3.99976C5.22194 3.99976 0 9.37152 0 15.9985C0 22.628 5.22194 27.9998 11.6758 27.9998C14.6768 28.0001 17.4353 26.8228 19.5 24.8947Z" fill="#0066CB"/>
<path d="M19.5 24.8946C21.8594 22.6988 23.3342 19.5254 23.3342 15.9984C23.3342 12.4717 21.8594 9.30084 19.5 7.10474" fill="#0066CB"/>
<path d="M19.5 24.8946C21.8594 22.6988 23.3342 19.5254 23.3342 15.9984C23.3342 12.4717 21.8594 9.30084 19.5 7.10474" stroke="#0066CB" stroke-width="0.3097"/>
<path d="M27.3416 4C24.3229 4 21.5644 5.1747 19.5 7.10507C19.0835 7.49984 18.6845 7.92399 18.3202 8.3772H20.6797C21.0095 8.77931 21.3045 9.20344 21.5647 9.64707H17.4355C17.1927 10.054 16.9672 10.4781 16.7589 10.917H22.241C22.4317 11.329 22.5879 11.7528 22.7267 12.1891H16.2729C16.1341 12.6011 16.0127 13.0252 15.926 13.4589H23.0739C23.2475 14.2779 23.3341 15.1284 23.3341 15.9987C23.3341 17.3315 23.1258 18.6139 22.7267 19.8106H16.2732C16.412 20.2466 16.5682 20.6707 16.7589 21.0824H22.241C22.0327 21.5216 21.8246 21.9454 21.5644 22.3526H17.4352C17.6955 22.7962 18.0078 23.2204 18.3202 23.6228H20.6797C20.3154 24.0757 19.9164 24.4998 19.5 24.8946C21.5644 26.8227 24.3229 28 27.3416 28C33.778 28 39 22.6282 39 15.9987C39 9.37176 33.7777 4 27.3416 4Z" fill="#CC0001"/>
<path d="M37.7682 22.6646H37.8204C37.8381 22.6646 37.8548 22.6672 37.8548 22.6595C37.8725 22.65 37.8896 22.6353 37.8896 22.6209C37.8896 22.6059 37.8722 22.5915 37.8548 22.5842C37.8548 22.5768 37.8204 22.5791 37.8204 22.5791H37.7682V22.6646ZM37.7682 22.8595H37.699V22.5184H37.8378C37.8722 22.5184 37.8896 22.5184 37.9244 22.5356C37.9418 22.5551 37.9589 22.5867 37.9589 22.6212C37.9589 22.6599 37.9415 22.6944 37.9067 22.7084L37.9589 22.8598H37.8722L37.8378 22.7234H37.7679V22.8595H37.7682ZM37.8204 22.984C37.9766 22.984 38.1154 22.8525 38.1154 22.6889C38.1154 22.5254 37.9766 22.3938 37.8204 22.3938C37.6645 22.3938 37.5428 22.5254 37.5428 22.6889C37.5428 22.8525 37.6645 22.984 37.8204 22.984ZM37.4387 22.6889C37.4387 22.4743 37.6123 22.3015 37.8204 22.3015C38.0287 22.3015 38.202 22.4743 38.202 22.6889C38.202 22.9036 38.0284 23.0763 37.8204 23.0763C37.6123 23.0763 37.4387 22.9036 37.4387 22.6889Z" fill="#231F20"/>
<path d="M9.85401 19.338H8.37929L9.24661 14.6606L7.25142 19.338H6.03693L5.79408 14.6874L4.82274 19.338H3.48682L4.61437 13.2546H6.92195L6.95642 17.0202L8.55256 13.2546H10.9986L9.85401 19.338Z" fill="#231F20"/>
<path d="M26.0751 19.2766C25.676 19.389 25.3636 19.4376 25.0342 19.4376C24.2883 19.4376 23.8889 19.0549 23.8889 18.3507C23.8889 18.2117 23.8889 18.0632 23.9234 17.9067L24.01 17.4219L24.0796 17.0319L24.7562 13.2539H26.1962L25.9881 14.3896H26.734L26.526 15.5912H25.7801L25.3984 17.6557C25.381 17.748 25.381 17.8141 25.381 17.8604C25.381 18.1162 25.5198 18.2284 25.8667 18.2284C26.0403 18.2284 26.1614 18.214 26.2657 18.182L26.0751 19.2766Z" fill="#231F20"/>
<path d="M20.3155 15.9525C20.3155 16.5788 20.6453 17.0081 21.4256 17.3319C22.0157 17.5807 22.1194 17.6539 22.1194 17.8781C22.1194 18.1879 21.8591 18.3262 21.2697 18.3262C20.8359 18.3262 20.4195 18.2658 19.9512 18.1291L19.7603 19.2719L19.8124 19.2818L20.09 19.3329C20.1767 19.3476 20.2984 19.3623 20.4717 19.3767C20.8185 19.4035 21.0962 19.4185 21.2868 19.4185C22.8311 19.4185 23.5426 18.8944 23.5426 17.766C23.5426 17.0883 23.2476 16.6887 22.5187 16.3885C21.8942 16.1374 21.825 16.0838 21.825 15.8525C21.825 15.5843 22.0678 15.4479 22.5364 15.4479C22.8311 15.4479 23.2302 15.4773 23.5944 15.5236L23.8028 14.3779C23.4211 14.3243 22.8485 14.2805 22.5187 14.2805C20.8707 14.2805 20.2981 15.041 20.3155 15.9525Z" fill="#231F20"/>
<path d="M13.5667 17.1344C13.4108 17.1172 13.3413 17.1127 13.2369 17.1127C12.4218 17.1127 12.0054 17.366 12.0054 17.8655C12.0054 18.1724 12.2134 18.3701 12.5258 18.3701C13.1155 18.3705 13.5493 17.8658 13.5667 17.1344ZM14.5555 19.3379H13.341L13.3758 18.8237C12.9941 19.2306 12.5084 19.4231 11.8489 19.4231C11.0508 19.4231 10.5129 18.8722 10.5129 18.0728C10.5129 16.8665 11.4498 16.1644 13.063 16.1644C13.2366 16.1644 13.4447 16.1763 13.6531 16.2031C13.7049 16.0399 13.7223 15.9693 13.7223 15.8815C13.7223 15.5525 13.4621 15.4305 12.7854 15.4305C12.369 15.4305 11.9007 15.4842 11.5709 15.5694L11.3799 15.6205L11.2411 15.6521L11.4492 14.541C12.1777 14.3506 12.646 14.2778 13.1838 14.2778C14.4328 14.2778 15.0924 14.7799 15.0924 15.7304C15.0924 15.9741 15.075 16.1593 14.971 16.7103L14.676 18.465L14.6241 18.7793L14.5893 19.0303L14.5545 19.2034V19.3379" fill="#231F20"/>
<path d="M18.6153 16.2861C18.6153 16.1839 18.6327 16.0986 18.6327 16.035C18.6327 15.6329 18.3725 15.3963 17.9387 15.3963C17.4704 15.3963 17.1406 15.7131 17.0192 16.2832L18.6153 16.2861ZM19.3264 19.2305C18.8234 19.3672 18.3374 19.4327 17.8343 19.4301C16.2037 19.4301 15.3708 18.6697 15.3708 17.2148C15.3708 15.516 16.4465 14.2656 17.9039 14.2656C19.1007 14.2656 19.8643 14.9651 19.8643 16.0641C19.8643 16.4301 19.8121 16.783 19.6733 17.2851H16.7934C16.776 17.3605 16.776 17.395 16.776 17.441C16.776 18.0136 17.2098 18.3062 18.0598 18.3062C18.5802 18.3062 19.0488 18.2113 19.5693 17.9941L19.3264 19.2305Z" fill="#231F20"/>
<path d="M33.3444 16.5033C33.3444 15.9866 33.1363 15.4966 32.5466 15.4966C31.8007 15.4966 31.3498 16.3986 31.3498 17.1929C31.3498 17.8633 31.6619 18.3143 32.1827 18.304C32.4947 18.304 33.1714 17.863 33.2928 17.0926C33.327 16.915 33.3444 16.718 33.3444 16.5033ZM34.8191 17.0952C34.6107 18.7403 33.4832 19.4695 31.9914 19.4695C30.3604 19.4695 29.7012 18.4458 29.7012 17.1907C29.7012 15.4356 30.8117 14.2488 32.5466 14.2488C34.0558 14.2488 34.8542 15.2261 34.8542 16.4816C34.8539 16.786 34.8539 16.8077 34.8191 17.0952Z" fill="#231F20"/>
<path d="M35.3046 18.5775H35.3564C35.3564 18.5775 35.3741 18.5775 35.3912 18.5702C35.4083 18.5628 35.4086 18.5459 35.4086 18.5312C35.4086 18.5191 35.4086 18.5044 35.3912 18.4973C35.3912 18.49 35.3564 18.49 35.3393 18.49H35.3046V18.5775ZM35.3046 18.7701H35.235V18.429H35.3738C35.3912 18.429 35.426 18.4315 35.4605 18.4488C35.4778 18.4657 35.4949 18.4999 35.4949 18.5341C35.4949 18.5705 35.4775 18.6072 35.4431 18.6216L35.4949 18.7704H35.4083L35.3561 18.6363H35.3046V18.7701ZM35.3564 18.8943C35.513 18.8943 35.6344 18.7627 35.6344 18.5992C35.6344 18.4383 35.513 18.3067 35.3564 18.3067C35.2006 18.3067 35.0617 18.4383 35.0617 18.5992C35.0617 18.7627 35.2006 18.8943 35.3564 18.8943ZM34.9751 18.5992C34.9751 18.3871 35.1487 18.2144 35.3567 18.2144C35.5651 18.2144 35.7384 18.3871 35.7384 18.5992C35.7384 18.8138 35.5648 18.9866 35.3567 18.9866C35.1484 18.9866 34.9751 18.8138 34.9751 18.5992Z" fill="white"/>
<path d="M10.2182 18.9867H8.76082L9.62814 14.3096L7.63295 18.9867H6.31443L6.07159 14.339L5.20427 18.9867H3.88574L5.01329 12.9033H7.28578L7.38981 16.6715L9.00335 12.9033H11.3628L10.2182 18.9867Z" fill="white"/>
<path d="M26.4394 18.9285C26.0404 19.0407 25.728 19.0892 25.3982 19.0892C24.6523 19.0892 24.2529 18.7043 24.2529 18.0027C24.2529 17.8634 24.2703 17.7152 24.2877 17.559L24.3743 17.0736L24.4436 16.681L25.1206 12.9033H26.5605L26.3524 14.0391H27.0984L26.89 15.2431H26.1441L25.7624 17.3073C25.7451 17.3977 25.745 17.4658 25.745 17.5124C25.745 17.7685 25.9012 17.8781 26.2481 17.8781C26.4043 17.8781 26.526 17.8634 26.6298 17.8315L26.4394 18.9285Z" fill="white"/>
<path d="M30.1692 15.46L30.1348 15.3041L30.4298 14.529C30.3599 14.5216 30.3254 14.5194 30.3254 14.5146C30.2388 14.4974 30.204 14.4878 30.1866 14.4878C30.1522 14.4779 30.1 14.4756 30.0481 14.4756C29.5625 14.4756 29.2327 14.6925 28.7815 15.2776L28.938 14.3977H27.4285L26.5435 19.338H27.9837C28.1744 18.2045 28.2613 17.559 28.3827 17.0224C28.5734 16.1329 29.2156 15.7283 29.6839 15.8183C29.7357 15.8282 29.7705 15.8282 29.8398 15.8551L29.9264 15.8889L30.1692 15.46Z" fill="#231F20"/>
<path d="M30.6724 14.0805C30.551 14.0317 30.5336 14.0317 30.5165 14.0269C30.4466 14.0096 30.3948 14.0001 30.3948 13.9975C30.3429 13.9902 30.2907 13.9854 30.2386 13.9854C29.7703 13.9854 29.4234 14.2048 28.9722 14.7899L29.111 14.039H27.7925L26.9075 18.9866H28.3648C28.8853 15.962 29.1107 15.4309 29.8047 15.4309C29.8569 15.4309 29.9088 15.4357 29.9783 15.443L30.1519 15.4795L30.6724 14.0805Z" fill="white"/>
<path d="M20.6794 15.6041C20.6794 16.2278 21.0263 16.6593 21.8073 16.9835C22.397 17.2297 22.484 17.3029 22.484 17.5297C22.484 17.8366 22.2237 17.9755 21.6511 17.9755C21.1999 17.9755 20.8009 17.9145 20.3326 17.7804L20.1245 18.9212L20.1938 18.933L20.454 18.9816C20.5406 18.9991 20.6797 19.0135 20.853 19.026C21.1999 19.0528 21.4601 19.0672 21.6511 19.0672C23.2122 19.0672 23.9236 18.5456 23.9236 17.4172C23.9236 16.7372 23.6289 16.3399 22.8827 16.04C22.2756 15.789 22.2057 15.7331 22.2057 15.5012C22.2057 15.2355 22.4489 15.0991 22.9171 15.0991C23.2118 15.0991 23.5938 15.1259 23.9754 15.1722L24.1835 14.0269C23.8019 13.9733 23.2296 13.9292 22.8827 13.9292C21.2521 13.9295 20.6794 14.69 20.6794 15.6041Z" fill="white"/>
<path d="M13.879 16.7835C13.7228 16.7666 13.6533 16.764 13.5492 16.764C12.7338 16.764 12.3173 17.0173 12.3173 17.5168C12.3173 17.824 12.5083 18.0214 12.8378 18.0214C13.4278 18.0218 13.8442 17.5146 13.879 16.7835ZM14.937 18.9866H13.7225L13.7573 18.475C13.393 18.8815 12.89 19.0719 12.2304 19.0719C11.4497 19.0719 10.9119 18.5209 10.9119 17.7215C10.9119 16.5171 11.8487 15.8132 13.462 15.8132C13.6182 15.8132 13.8262 15.8276 14.0517 15.8522C14.0865 15.6886 14.1035 15.6206 14.1035 15.5305C14.1035 15.2038 13.8433 15.0821 13.1667 15.0821C12.7502 15.0821 12.2816 15.1332 11.9695 15.2185L11.7615 15.2721L11.6401 15.3041L11.831 14.1901C12.5596 14 13.0278 13.9294 13.5657 13.9294C14.8147 13.9294 15.4742 14.4315 15.4742 15.3798C15.4742 15.6235 15.4568 15.8087 15.3702 16.3593L15.0578 18.1169L15.0059 18.4312L14.9712 18.6822L14.9538 18.8525L14.937 18.9866Z" fill="white"/>
<path d="M18.9274 15.9377C18.9274 15.8329 18.9274 15.7499 18.9274 15.6841C18.9274 15.282 18.6846 15.0479 18.2507 15.0479C17.7825 15.0479 17.4527 15.3621 17.3139 15.9351L18.9274 15.9377ZM19.691 18.8818C19.205 19.0159 18.7193 19.0817 18.216 19.0817C16.5854 19.0817 15.7351 18.3212 15.7351 16.8639C15.7351 15.1676 16.8105 13.9172 18.2678 13.9172C19.4649 13.9172 20.2282 14.6167 20.2282 15.7135C20.2282 16.0792 20.1761 16.435 20.0543 16.9367H17.1747C17.1574 17.0124 17.1574 17.0466 17.1574 17.0926C17.1574 17.6655 17.5909 17.9581 18.4237 17.9581C18.9442 17.9581 19.4128 17.8604 19.9329 17.6435L19.691 18.8818Z" fill="white"/>
<path d="M33.6912 16.1107C33.6912 15.594 33.4832 15.1044 32.8935 15.1044C32.1476 15.1044 31.6967 16.006 31.6967 16.8006C31.6967 17.4732 32.0091 17.9245 32.5295 17.9143C32.8419 17.9143 33.5182 17.4732 33.6397 16.7029C33.6741 16.5224 33.6912 16.3254 33.6912 16.1107ZM35.2007 16.7447C34.975 18.3896 33.8645 19.1206 32.373 19.1206C30.7247 19.1206 30.0654 18.0945 30.0654 16.8393C30.0654 15.0868 31.193 13.8977 32.9282 13.8977C34.4371 13.8977 35.2355 14.875 35.2355 16.1302C35.2355 16.4371 35.2355 16.457 35.2007 16.7447Z" fill="white"/>
</g>
<defs>
<linearGradient id="paint0_linear_2169_40" x1="127" y1="15.5854" x2="183.005" y2="20.0838" gradientUnits="userSpaceOnUse">
<stop stop-color="#00569F"/>
<stop offset="1" stop-color="#004F9B"/>
</linearGradient>
<clipPath id="clip0_2169_40">
<rect width="291" height="33" fill="white"/>
</clipPath>
<clipPath id="clip1_2169_40">
<rect width="88" height="24" fill="white" transform="translate(200 6)"/>
</clipPath>
<clipPath id="clip2_2169_40">
<rect width="40" height="12" fill="white" transform="translate(135 10)"/>
</clipPath>
</defs>
</svg>
