<svg width="92" height="32" viewBox="0 0 92 32" fill="none" xmlns="http://www.w3.org/2000/svg">
<g clip-path="url(#clip0_19_482)">
<mask id="mask0_19_482" style="mask-type:luminance" maskUnits="userSpaceOnUse" x="0" y="0" width="92" height="32">
<path d="M91.6667 0.75708H0V31.0599H91.6667V0.75708Z" fill="white"/>
</mask>
<g mask="url(#mask0_19_482)">
<path d="M-0.0471191 24.526V17.9709L8.43325 0.75708H19.9708V7.31505L11.4947 24.526H-0.0471191Z" fill="#777C99"/>
<path d="M39.9615 24.3038H36.4378V21.9969H36.3725C35.8723 22.9856 35.1436 23.6996 34.1865 24.1391C33.2295 24.5565 32.2181 24.7652 31.1523 24.7652C29.8254 24.7652 28.6618 24.5345 27.6612 24.0731C26.6824 23.5897 25.8668 22.9417 25.2142 22.1287C24.5617 21.3158 24.0723 20.36 23.746 19.2616C23.4198 18.141 23.2566 16.9436 23.2566 15.6693C23.2566 14.1314 23.4633 12.8022 23.8765 11.6816C24.2898 10.5611 24.8336 9.63839 25.5078 8.91334C26.2038 8.1883 26.9869 7.66101 27.857 7.33145C28.7488 6.97992 29.6514 6.80415 30.565 6.80415C31.087 6.80415 31.6199 6.85908 32.1637 6.96893C32.7075 7.05681 33.2295 7.21061 33.7298 7.43032C34.23 7.65002 34.6868 7.93564 35.1001 8.28717C35.5351 8.61673 35.894 9.0122 36.1768 9.47357H36.242V0.773193H39.9615V24.3038ZM26.976 15.966C26.976 16.691 27.0631 17.405 27.2371 18.1081C27.4328 18.8111 27.7156 19.4373 28.0853 19.9866C28.4768 20.5359 28.9663 20.9753 29.5536 21.3048C30.1408 21.6344 30.8368 21.7992 31.6417 21.7992C32.4682 21.7992 33.1751 21.6234 33.7624 21.2718C34.3714 20.9203 34.8608 20.4589 35.2306 19.8877C35.6221 19.3164 35.9049 18.6793 36.0789 17.9762C36.2747 17.2512 36.3725 16.5152 36.3725 15.7682C36.3725 13.8787 35.9484 12.4067 35.1001 11.3521C34.2735 10.2975 33.1425 9.7702 31.7069 9.7702C30.8368 9.7702 30.0973 9.95699 29.4883 10.3305C28.901 10.682 28.4116 11.1544 28.0201 11.7475C27.6503 12.3188 27.3784 12.9779 27.2044 13.7249C27.0522 14.45 26.976 15.1969 26.976 15.966Z" fill="#777C99"/>
<path d="M56.84 20.514C56.84 20.9753 56.8943 21.3049 57.0032 21.5026C57.1337 21.7003 57.3729 21.7992 57.7209 21.7992C57.8297 21.7992 57.9602 21.7992 58.1124 21.7992C58.2647 21.7992 58.4387 21.7772 58.6345 21.7333V24.3368C58.504 24.3808 58.3299 24.4247 58.1124 24.4686C57.9167 24.5346 57.71 24.5895 57.4925 24.6335C57.275 24.6774 57.0575 24.7103 56.84 24.7323C56.6225 24.7542 56.4376 24.7653 56.2853 24.7653C55.5241 24.7653 54.8932 24.6115 54.393 24.3038C53.8927 23.9963 53.5664 23.458 53.4142 22.689C52.6747 23.414 51.7611 23.9414 50.6736 24.2709C49.6077 24.6005 48.5746 24.7653 47.574 24.7653C46.8127 24.7653 46.0841 24.6554 45.388 24.4356C44.692 24.2379 44.0721 23.9414 43.5283 23.5458C43.0062 23.1284 42.5822 22.6121 42.2558 21.9969C41.9513 21.3598 41.7991 20.6238 41.7991 19.7889C41.7991 18.7343 41.984 17.8774 42.3537 17.2183C42.7452 16.5592 43.2456 16.0429 43.8546 15.6694C44.4853 15.2959 45.1814 15.0323 45.9427 14.8785C46.7257 14.7026 47.5087 14.5708 48.2918 14.4829C48.9661 14.3511 49.6077 14.2632 50.2167 14.2193C50.8258 14.1534 51.3587 14.0546 51.8155 13.9227C52.294 13.7908 52.6637 13.5931 52.9248 13.3295C53.2076 13.0439 53.3489 12.6265 53.3489 12.0771C53.3489 11.5938 53.2293 11.1984 52.9901 10.8908C52.7725 10.5831 52.4897 10.3525 52.1417 10.1987C51.8155 10.0229 51.4457 9.91301 51.0324 9.86907C50.6192 9.80316 50.2277 9.77025 49.8579 9.77025C48.8138 9.77025 47.9547 9.98995 47.2804 10.4293C46.6061 10.8688 46.2254 11.5499 46.1384 12.4727H42.419C42.4842 11.3741 42.7452 10.4623 43.2021 9.73725C43.6588 9.01225 44.2352 8.43003 44.9312 7.99061C45.6491 7.5512 46.4538 7.24362 47.3457 7.06785C48.2374 6.89208 49.151 6.8042 50.0862 6.8042C50.9128 6.8042 51.7285 6.89208 52.5332 7.06785C53.3381 7.24362 54.0558 7.52923 54.6867 7.92471C55.3392 8.32017 55.8612 8.83648 56.2527 9.47362C56.6442 10.0889 56.84 10.8468 56.84 11.7476V20.514ZM53.1206 15.7683C52.555 16.1418 51.859 16.3724 51.0324 16.4604C50.2059 16.5263 49.3793 16.6361 48.5528 16.7899C48.1613 16.8558 47.7807 16.9546 47.4109 17.0865C47.0411 17.1963 46.7148 17.3611 46.4321 17.5808C46.1493 17.7785 45.9209 18.0532 45.7469 18.4047C45.5947 18.7343 45.5185 19.1407 45.5185 19.6241C45.5185 20.0416 45.6382 20.3931 45.8774 20.6787C46.1167 20.9643 46.3994 21.195 46.7257 21.3708C47.0737 21.5246 47.4435 21.6344 47.835 21.7003C48.2483 21.7662 48.6181 21.7992 48.9443 21.7992C49.3576 21.7992 49.8035 21.7443 50.282 21.6344C50.7606 21.5246 51.2064 21.3379 51.6197 21.0741C52.0547 20.8105 52.4137 20.481 52.6964 20.0855C52.9792 19.6681 53.1206 19.1627 53.1206 18.5695V15.7683Z" fill="#777C99"/>
<path d="M59.635 0.773193H63.3544V4.33245H59.635V0.773193ZM59.635 7.26554H63.3544V24.3038H59.635V7.26554Z" fill="#777C99"/>
<path d="M66.1997 0.773193H69.9192V24.3038H66.1997V0.773193Z" fill="#777C99"/>
<path d="M70.8071 7.26562H74.8855L79.2901 19.9866H79.3554L83.6293 7.26562H87.5118L80.954 25.2267C80.6495 25.9956 80.345 26.7316 80.0405 27.4347C79.7577 28.1378 79.3989 28.753 78.9638 29.2803C78.5505 29.8295 78.0285 30.258 77.3977 30.5655C76.767 30.8951 75.9621 31.0599 74.9834 31.0599C74.1133 31.0599 73.2541 30.994 72.4059 30.8622V27.6984C72.7104 27.7423 73.004 27.7863 73.2868 27.8302C73.5695 27.8961 73.8632 27.9291 74.1677 27.9291C74.6027 27.9291 74.9616 27.8741 75.2444 27.7643C75.5271 27.6544 75.7555 27.4896 75.9295 27.2699C76.1253 27.0722 76.2885 26.8305 76.419 26.5449C76.5495 26.2593 76.669 25.9297 76.7778 25.5562L77.202 24.238L70.8071 7.26562Z" fill="#777C99"/>
<path d="M90.4525 8.72971L89.9525 7.55444H90.1791L90.5158 8.38799L90.8508 7.55444H91.0767L90.5792 8.72971H90.4525ZM89.8975 8.72971V7.55444H90.13V8.72971H89.8975ZM90.9 8.72971V7.55444H91.1325V8.72971H90.9ZM89.1083 8.72971V7.65664H89.3408V8.72971H89.1083ZM88.7542 7.75564V7.55444H89.695V7.75564H88.7542Z" fill="#777C99"/>
</g>
</g>
<defs>
<clipPath id="clip0_19_482">
<rect width="91.6667" height="30.3028" fill="white" transform="translate(0 0.75708)"/>
</clipPath>
</defs>
</svg>
