<svg width="130" height="32" viewBox="0 0 130 32" fill="none" xmlns="http://www.w3.org/2000/svg">
<path fill-rule="evenodd" clip-rule="evenodd" d="M14.8062 6.67157C16.64 8.55167 17.6262 11.0368 17.5875 13.6683V13.6651C17.507 18.9638 13.0948 23.2737 7.75438 23.2737H0.251389C0.10958 23.2737 0.0386752 23.1014 0.138586 22.9972L3.79017 19.2923C3.8514 19.2305 3.93198 19.1947 4.019 19.1947H7.82528C10.8871 19.1947 13.4525 16.7226 13.5428 13.6878C13.5879 12.1395 13.0239 10.6757 11.9539 9.56329C10.8838 8.45084 9.44964 7.83931 7.91875 7.83931H4.04478V14.1562C4.04478 14.2115 4.00288 14.2537 3.94809 14.2537H0.096688C0.0418981 14.2537 0 14.2115 0 14.1562V3.85466C0 3.79936 0.0418981 3.75708 0.096688 3.75708H7.91875C10.5261 3.75708 12.9723 4.79146 14.8062 6.67157ZM25.8028 8.99118C21.0844 8.99118 18.9315 12.6408 18.9315 16.2059L18.9283 16.2091C18.9283 19.7481 21.3584 23.479 26.0768 23.479C29.4544 23.479 32.0779 21.5795 32.6773 18.6129C32.6902 18.5511 32.6419 18.4925 32.5806 18.4925H29.0193C28.9774 18.4925 28.9419 18.5218 28.9291 18.5641C28.6035 19.7155 27.5915 20.3043 26.0768 20.3043C24.1462 20.3043 22.9054 19.0781 22.6282 17.1003H32.5291C32.5806 17.1003 32.6225 17.0645 32.6258 17.0125C32.6515 16.7132 32.6741 16.3262 32.6741 15.8447C32.6741 12.6408 30.5212 8.99118 25.8028 8.99118ZM25.8028 11.8308C27.6528 11.8308 28.7292 13.0831 28.8388 14.6445H22.683C23.015 12.6928 24.0657 11.8308 25.8028 11.8308ZM34.3562 16.2059C34.3562 12.6408 36.5091 8.99118 41.2275 8.99118C45.9459 8.99118 48.0988 12.6408 48.0988 15.8447C48.0988 16.3262 48.0762 16.7132 48.0505 17.0125C48.0472 17.0645 48.0053 17.1003 47.9538 17.1003H38.0529C38.3301 19.0781 39.5709 20.3043 41.5015 20.3043C43.0162 20.3043 44.0282 19.7155 44.3538 18.5641C44.3666 18.5218 44.4021 18.4925 44.444 18.4925H48.0053C48.0666 18.4925 48.1149 18.5511 48.102 18.6129C47.5026 21.5795 44.8791 23.479 41.5015 23.479C36.7831 23.479 34.353 19.7481 34.353 16.2091L34.3562 16.2059ZM44.2635 14.6445C44.1539 13.0831 43.0775 11.8308 41.2275 11.8308C39.4903 11.8308 38.4397 12.6928 38.1077 14.6445H44.2635ZM53.9748 9.21562H50.3328V9.20911C50.2781 9.20911 50.2362 9.2514 50.2362 9.3067V28.833C50.2362 28.8884 50.2781 28.9307 50.3328 28.9307H53.9748C54.0295 28.9307 54.0714 28.8884 54.0714 28.833V21.9958C54.8159 22.9424 56.1696 23.4725 57.7424 23.4725C61.7453 23.4725 64.4493 20.6036 64.4493 16.2318C64.4493 11.8601 61.9644 8.99118 58.0453 8.99118C56.2502 8.99118 54.8997 9.66125 54.0714 10.7477V9.3132C54.0714 9.25791 54.0295 9.21562 53.9748 9.21562ZM60.6398 16.2351C60.6398 18.5738 59.2894 20.1352 57.246 20.1352C55.2059 20.1352 53.8523 18.5999 53.8523 16.2351C53.8523 13.8703 55.2059 12.309 57.246 12.309C59.2862 12.309 60.6398 13.8964 60.6398 16.2351ZM70.0568 25.9933C70.118 25.9314 70.1986 25.8989 70.2856 25.8989H74.1983C75.3843 25.8989 76.2126 24.9524 76.2126 23.6708V21.833C75.4939 22.8641 74.0307 23.4756 72.4031 23.4756C68.2906 23.4756 65.8348 20.6066 65.8348 16.2349C65.8348 11.8633 68.2906 8.99427 72.3483 8.99427C74.0597 8.99427 75.4101 9.63506 76.2126 10.6109V9.31629C76.2126 9.261 76.2545 9.2187 76.3093 9.2187H79.9512C80.006 9.2187 80.0479 9.261 80.0479 9.31629V24.0937C80.0479 26.9918 77.9788 28.9402 74.8332 28.9402H67.5397C67.3947 28.9402 67.3238 28.7647 67.4269 28.6638L70.0568 25.9997V25.9933ZM73.0122 20.1318C75.1104 20.1318 76.435 18.5997 76.435 16.2317C76.435 13.8636 75.1104 12.3056 73.0122 12.3056C70.9141 12.3056 69.6185 13.8669 69.6185 16.2317C69.6185 18.5964 70.9721 20.1318 73.0122 20.1318ZM86.71 23.1532V16.4265H86.7132C86.7132 14.0292 87.5673 12.4418 89.4721 12.4418H91.6669C91.7217 12.4418 91.7636 12.3995 91.7636 12.3443V9.30941C91.7636 9.25411 91.7217 9.21181 91.6669 9.21181H90.2166C88.5052 9.21181 87.4545 9.79406 86.71 11.5505V9.30941C86.71 9.25411 86.6681 9.21181 86.6133 9.21181H82.9714C82.9166 9.21181 82.8747 9.25411 82.8747 9.30941V23.1532C82.8747 23.2085 82.9166 23.2508 82.9714 23.2508H86.6133C86.6681 23.2508 86.71 23.2085 86.71 23.1532ZM92.9914 19.2696C92.9914 16.5112 95.0347 14.8393 98.0965 14.8393H100.414C101.104 14.8393 101.461 14.3937 101.461 13.8082C101.461 12.6372 100.578 11.8305 99.0054 11.8305C97.4326 11.8305 96.4851 12.8356 96.4141 13.9676C96.4141 14.0196 96.3722 14.0587 96.3207 14.0587H93.0945C93.0365 14.0587 92.9914 14.0099 92.9946 13.9513C93.1848 11.1865 95.4376 8.98758 99.1988 8.98758C102.731 8.98758 105.297 11.0498 105.297 14.2246V23.1502C105.297 23.2055 105.255 23.2477 105.2 23.2477H101.558C101.503 23.2477 101.461 23.2055 101.461 23.1502V21.2994C100.991 22.6069 99.4469 23.4722 97.5422 23.4722C94.8639 23.4722 92.9882 21.6604 92.9882 19.2663L92.9914 19.2696ZM98.5381 20.6618C100.388 20.6618 101.464 19.2696 101.464 17.4871V17.2919H98.6767C97.4906 17.2919 96.6881 18.0173 96.6881 19.1037C96.6881 20.0242 97.4616 20.665 98.5381 20.665V20.6618ZM111.375 9.21562H107.733L107.739 9.21237C107.685 9.21237 107.643 9.25466 107.643 9.30996V23.1538C107.643 23.209 107.685 23.2514 107.739 23.2514H111.381C111.436 23.2514 111.478 23.209 111.478 23.1538V15.2853C111.478 13.4735 112.496 12.2765 114.098 12.2765C115.587 12.2765 116.554 13.4735 116.554 15.2853V23.1538C116.554 23.209 116.596 23.2514 116.651 23.2514H120.293C120.347 23.2514 120.389 23.209 120.389 23.1538V15.2853C120.389 13.4735 121.408 12.2765 123.01 12.2765C124.499 12.2765 125.465 13.4735 125.465 15.2853V23.1538C125.465 23.209 125.507 23.2514 125.562 23.2514H129.204C129.259 23.2514 129.301 23.209 129.301 23.1538V14.059C129.301 11.2486 127.341 8.99118 124.334 8.99118C122.101 8.99118 120.36 10.1882 119.671 11.5544C119.007 9.88244 117.598 8.99118 115.42 8.99118C113.541 8.99118 112.216 9.91171 111.472 11.1933V9.3132C111.472 9.25791 111.43 9.21562 111.375 9.21562Z" fill="#777C99"/>
</svg>
