<?xml version="1.0" encoding="UTF-8" standalone="no"?>
<svg
   width="873.99402"
   height="110"
   viewBox="0 0 873.99402 110"
   fill="none"
   version="1.1"
   id="svg4"
   sodipodi:docname="elevenlabs.svg"
   inkscape:version="1.2 (dc2aedaf03, 2022-05-15)"
   xmlns:inkscape="http://www.inkscape.org/namespaces/inkscape"
   xmlns:sodipodi="http://sodipodi.sourceforge.net/DTD/sodipodi-0.dtd"
   xmlns="http://www.w3.org/2000/svg"
   xmlns:svg="http://www.w3.org/2000/svg">
  <defs
     id="defs8" />
  <sodipodi:namedview
     id="namedview6"
     pagecolor="#ffffff"
     bordercolor="#ffffff"
     borderopacity="0.25"
     inkscape:showpageshadow="2"
     inkscape:pageopacity="0.0"
     inkscape:pagecheckerboard="0"
     inkscape:deskcolor="#d1d1d1"
     showgrid="false"
     inkscape:zoom="0.60206185"
     inkscape:cx="326.37843"
     inkscape:cy="174.40069"
     inkscape:window-width="1920"
     inkscape:window-height="1009"
     inkscape:window-x="-8"
     inkscape:window-y="-8"
     inkscape:window-maximized="1"
     inkscape:current-layer="svg4" />
  <path
     fill-rule="evenodd"
     clip-rule="evenodd"
     d="M 0.667,0.667 C 0.3,1.033 0,25.558 0,55.167 V 109 H 13 26 V 54.5 0 H 13.667 C 6.883,0 1.033,0.3 0.667,0.667 Z M 39,54.5 V 109 H 52 65 V 54.5 0 H 52 39 Z M 77.667,0.667 C 77.3,1.033 77,25.558 77,55.167 V 109 h 38 38 V 98 87 H 128.5 104 V 76.5 66 H 126.5 149 V 55 44 H 126.5 104 V 33 22 H 128.5 153 V 11 0 h -37.333 c -20.534,0 -37.634,0.3 -38,0.667 z M 165,54.5 V 109 h 13 13 V 54.5 0 H 178 165 Z M 545.667,0.667 C 545.3,1.033 545,25.558 545,55.167 V 109 h 36 36 V 98 87 H 594.5 572 V 43.5 0 h -12.833 c -7.059,0 -13.134,0.3 -13.5,0.667 z M 709.695,0.638 C 709.313,1.021 709,25.558 709,55.167 V 109 h 13 13 v -6 c 0,-3.3 0.337,-5.983 0.75,-5.962 0.413,0.021 2.003,1.849 3.535,4.062 5.456,7.885 17.547,10.921 29.436,7.39 9.593,-2.848 18.432,-13.515 21.219,-25.605 1.361,-5.901 1.324,-22.539 -0.063,-29.086 -2.405,-11.344 -8.282,-19.396 -17.453,-23.911 -11.63,-5.725 -24.827,-3.888 -32.174,4.48 -1.788,2.036 -3.348,4.248 -3.468,4.917 -0.12,0.668 -0.457,-7.785 -0.75,-18.785 L 735.5,0.5 722.945,0.222 C 716.04,0.068 710.077,0.256 709.695,0.638 Z M 235,26.674 c -22.293,2.498 -37,22.704 -34.429,47.302 1.808,17.298 10.605,29.074 25.429,34.039 5.547,1.859 8.185,2.122 18,1.799 10.074,-0.332 12.281,-0.736 17.8,-3.256 7.545,-3.444 14.293,-10.449 16.605,-17.233 0.874,-2.565 1.447,-4.806 1.274,-4.98 -0.174,-0.173 -5.519,-0.613 -11.879,-0.976 l -11.563,-0.66 -1.677,2.559 c -3.518,5.37 -13.299,7.373 -20.143,4.126 -3.762,-1.786 -6.84,-6.205 -7.761,-11.144 L 226.05,75 H 253.025 280 V 67.182 C 280,59.213 278.214,51.317 274.971,44.949 272.649,40.39 265.612,33.353 261.046,31.023 254.568,27.718 242.968,25.782 235,26.674 Z m 163.527,0.451 c -20.903,3.005 -34.069,21.72 -32.213,45.789 1.837,23.83 16.428,37.086 40.818,37.086 11.82,0 17.658,-1.419 24.778,-6.02 6.216,-4.018 10.353,-9.164 12.605,-15.683 l 1.313,-3.797 -5.164,-0.651 c -2.84,-0.358 -8.35,-0.696 -12.245,-0.75 -6.543,-0.091 -7.181,0.087 -8.395,2.356 -2.832,5.291 -13.32,7.239 -20.04,3.721 C 397.82,88.043 395.648,85.69 394.25,82.964 389.924,74.528 388.457,75 419,75 h 27 V 69.136 C 446,56.576 441.893,44.61 435.198,37.664 426.902,29.057 412.96,25.05 398.527,27.125 Z M 499.5,26.911 c -7.853,1.409 -14.369,6.008 -17.838,12.589 -1.566,2.97 -1.582,2.924 -1.622,-4.75 L 480,27 H 467.5 455 v 41 41 h 13 13 l 0.006,-23.75 c 0.003,-13.062 0.45,-25.351 0.993,-27.307 0.544,-1.956 2.371,-4.881 4.06,-6.5 2.628,-2.517 3.856,-2.943 8.487,-2.943 4.782,0 5.798,0.382 8.685,3.268 l 3.269,3.267 0.296,26.983 0.296,26.982 h 13.552 13.551 L 533.837,78.75 C 533.48,48.663 533.465,48.47 530.896,43 525.088,30.631 513.075,24.475 499.5,26.911 Z m 154,0.125 c -7.504,1.004 -14.114,3.808 -18.917,8.025 -3.871,3.399 -8.124,10.683 -8.73,14.953 l -0.353,2.486 11.787,0.282 11.787,0.282 3.251,-3.447 c 4.236,-4.492 9.181,-5.515 14.358,-2.97 5.54,2.723 6.335,8.667 1.506,11.252 -0.97,0.519 -7.297,1.664 -14.06,2.544 -23.515,3.059 -31.307,9.477 -31.399,25.86 -0.091,16.126 10.394,24.584 29.132,23.499 8.728,-0.505 15.183,-3.405 19.014,-8.54 l 2.061,-2.762 0.031,5.25 L 673,109 H 685.5 698 V 79.943 C 698,48.175 697.51,44.287 692.781,38.551 685.224,29.382 669.788,24.858 653.5,27.036 Z m 175,-0.041 c -8.603,1.035 -13.385,2.546 -18.678,5.903 -15.097,9.574 -13.412,32.874 2.884,39.879 2.637,1.133 10.372,3.213 17.19,4.623 13.614,2.813 17.104,4.439 17.104,7.968 0,8.271 -19.211,8.831 -22.299,0.649 L 823.562,83 h -8.642 c -4.752,0 -10.669,0.278 -13.149,0.618 -4.452,0.61 -4.498,0.656 -3.798,3.75 2.315,10.218 10.874,18.11 23.001,21.209 4.831,1.234 9.4,1.545 18,1.226 9.954,-0.369 12.377,-0.812 17.76,-3.245 11.122,-5.026 17.247,-13.662 17.26,-24.34 C 874.011,69.747 865.476,63.447 842.722,59.134 829.346,56.598 826,54.97 826,51 c 0,-7.709 17.315,-8.188 20.784,-0.575 1.167,2.561 1.24,2.575 13.306,2.575 h 12.133 l -0.695,-3.703 c -1.587,-8.457 -7.645,-15.703 -16.189,-19.366 -3.31,-1.419 -20.662,-4.582 -20.813,-3.794 -0.014,0.075 -2.726,0.461 -6.026,0.858 z m -547.527,0.727 c -0.015,0.428 6.149,18.89 13.698,41.028 l 13.725,40.25 15.052,-0.002 15.052,-0.003 13.77,-40.247 c 7.574,-22.137 13.762,-40.598 13.75,-41.026 -0.011,-0.428 -6.201,-0.653 -13.757,-0.5 l -13.736,0.278 -7.47,27.881 c -4.108,15.335 -7.68,27.26 -7.936,26.5 -0.257,-0.759 -3.682,-13.306 -7.61,-27.881 l -7.143,-26.5 -13.684,-0.278 c -7.526,-0.153 -13.696,0.072 -13.711,0.5 z M 233.299,47.901 C 230.072,49.927 227,54.585 227,57.45 c 0,1.328 2.064,1.55 14.43,1.55 h 14.43 l -0.925,-3.226 c -0.509,-1.774 -2.256,-4.556 -3.882,-6.182 -3.955,-3.955 -12.808,-4.799 -17.754,-1.691 z m 166.005,0.055 c -3.352,2.044 -5.64,5.017 -6.767,8.794 L 391.865,59 h 14.693 14.692 l -0.637,-3.184 c -1.688,-8.439 -13.322,-12.73 -21.309,-7.86 z M 744,48.752 c -10.404,5.197 -11.597,29.519 -1.851,37.72 2.31,1.944 4.125,2.528 7.857,2.528 4.104,0 5.385,-0.503 8.31,-3.262 4.151,-3.915 5.671,-8.806 5.678,-18.276 0.007,-8.471 -2.723,-14.769 -7.892,-18.204 -4.079,-2.711 -7.411,-2.85 -12.102,-0.506 z m -81.684,26.221 c -9.109,1.904 -12.95,3.934 -14.336,7.579 -2.186,5.75 3.847,11.137 11.346,10.131 4.958,-0.665 8.641,-3.28 10.922,-7.754 1.724,-3.381 2.461,-12.053 1.002,-11.797 -0.413,0.072 -4.433,0.901 -8.934,1.841 z"
     fill="#ffffff"
     id="path2"
     style="fill:#ffffff;opacity:1;fill-opacity:1" />
</svg>
