<svg width="1597" height="794" viewBox="0 0 1597 794" fill="none" xmlns="http://www.w3.org/2000/svg">
<g clip-path="url(#clip0_4007_60)">
<path d="M1048.74 66H547.737V597H1048.74V66Z" fill="url(#paint0_linear_4007_60)"/>
<g filter="url(#filter0_d_4007_60)">
<path d="M1048.74 66H547.737V597H1048.74V66Z" fill="url(#paint1_linear_4007_60)" fill-opacity="0.01"/>
</g>
<g filter="url(#filter1_d_4007_60)">
<path d="M1048.74 70.6172H547.737V597H1048.74V70.6172Z" fill="url(#paint2_linear_4007_60)" fill-opacity="0.01"/>
</g>
<g filter="url(#filter2_i_4007_60)">
<path d="M547.737 597H1048.74L1152.74 771H436.737L547.737 597Z" fill="url(#paint3_linear_4007_60)"/>
</g>
<path d="M1048.74 63.0996H547.737V597H1048.74V63.0996Z" fill="url(#paint4_linear_4007_60)"/>
<path fill-rule="evenodd" clip-rule="evenodd" d="M702.737 419H638.737V597H702.737V419ZM787.737 419H723.737V597H787.737V419ZM808.737 419H872.737V597H808.737V419ZM957.737 419H893.737V597H957.737V419Z" fill="url(#paint5_linear_4007_60)" fill-opacity="0.35"/>
<path d="M1149.31 766.258L1048.31 597.258" stroke="url(#paint6_linear_4007_60)"/>
<path d="M548.158 597.27L443.237 761.5" stroke="url(#paint7_linear_4007_60)"/>
<path d="M1048.24 597V121" stroke="url(#paint8_linear_4007_60)"/>
<path d="M548.237 597V121" stroke="url(#paint9_linear_4007_60)"/>
<path opacity="0.5" fill-rule="evenodd" clip-rule="evenodd" d="M84.504 720.071L0.736526 786.328L0 785.652L82.9198 720.065L25.7365 719.85L25.7417 718.85L84.1781 719.07L169.023 651.96L122.737 651.666L122.745 650.666L170.278 650.968L254.285 584.521L219.737 584.335L219.744 583.335L255.54 583.528L336.412 519.561H310.737V518.561H337.676L419.382 453.934H384.737V452.934H420.647L482.927 403.672L408.737 403.699L408.736 402.699L484.192 402.672L542 356.947L542.737 357.624L485.784 402.671L547.737 402.649V403.649L484.519 403.672L422.238 452.934H525.491L546.974 434.536L547.737 435.183L527.009 452.934H547.737V453.934H525.841L450.377 518.561H544.851L546.919 516.427L547.737 517.003L546.227 518.561H547.737V519.561H545.258L482.088 584.746L542.744 585.072L542.737 586.072L481.124 585.741L416.399 652.529L525.745 653.223L525.736 654.223L415.436 653.523L350.943 720.074L478.742 720.554L478.737 721.554L349.978 721.07L286.737 786.328L285.919 785.753L348.607 721.065L214.505 720.56L131.737 791.443L130.974 790.796L212.994 720.554L84.504 720.071ZM524.324 453.934H420.974L339.268 518.561H448.859L524.324 453.934ZM543.882 519.561H449.21L373.774 584.163L480.719 584.739L543.882 519.561ZM447.692 519.561H338.004L257.121 583.536L372.265 584.155L447.692 519.561ZM171.857 650.978L255.865 584.529L371.105 585.149L293.338 651.749L171.857 650.978ZM294.844 651.758L372.613 585.157L479.755 585.733L415.032 652.521L294.844 651.758ZM85.7623 719.076L170.602 651.97L292.178 652.741L214.156 719.559L85.7623 719.076ZM215.668 719.565L293.685 652.751L414.069 653.515L349.573 720.068L215.668 719.565ZM1309.74 788.886L1254.22 731.6L1123.74 730.077L1123.75 729.077L1253.24 730.588L1176.76 651.666H1073.74V650.666H1175.79L1113.16 586.04H1048.74V585.04H1112.19L1055.34 526.379H1048.74V525.379H1054.38L1048.74 519.561L1049.55 518.985L1055.75 525.379H1151.07L1077.77 462.603L1048.74 462.457V461.457L1076.59 461.597L1048.74 437.74L1049.5 437.093L1078.12 461.605L1182.63 462.131L1114.05 407.886L1048.74 407.91V406.91L1112.79 406.887L1053.74 360.181L1054.47 359.505L1114.38 406.886L1187.74 406.86V407.86L1115.64 407.886L1184.23 462.139L1215.74 462.298V463.298L1185.5 463.146L1264.18 525.379H1302.74V526.379H1265.45L1339.61 585.041H1376.74V586.041H1340.88L1422.58 650.666H1458.74V651.666H1423.85L1527.67 733.79L1563.75 734.211L1563.74 735.211L1528.96 734.805L1596.47 788.21L1595.74 788.886L1527.34 734.786L1395.31 733.246L1465.5 793.352L1464.74 793.999L1393.77 733.228L1255.61 731.616L1310.55 788.31L1309.74 788.886ZM1152.59 525.379L1079.3 462.611L1183.9 463.137L1262.59 525.379H1152.59ZM1113.57 585.04L1056.72 526.379H1152.24L1220.74 585.041L1113.57 585.04ZM1222.26 585.041L1153.76 526.379H1263.86L1338.02 585.041H1222.26ZM1339.29 586.041H1223.42L1298.89 650.666H1420.99L1339.29 586.041ZM1221.91 586.041L1114.54 586.04L1177.17 650.666H1297.37L1221.91 586.041ZM1422.25 651.666H1300.05L1394.13 732.232L1526.06 733.771L1422.25 651.666ZM1298.54 651.666H1178.13L1254.63 730.605L1392.59 732.214L1298.54 651.666Z" fill="url(#paint10_radial_4007_60)"/>
<path opacity="0.5" d="M449.737 519H543.737L480.737 584H375.737L449.737 519Z" fill="url(#paint11_linear_4007_60)" fill-opacity="0.05"/>
<path opacity="0.5" d="M1221.74 586.5H1116.74L1177.24 649.5L1295.74 650.5L1221.74 586.5Z" fill="url(#paint12_linear_4007_60)" fill-opacity="0.05"/>
</g>
<defs>
<filter id="filter0_d_4007_60" x="501.737" y="10" width="593" height="623" filterUnits="userSpaceOnUse" color-interpolation-filters="sRGB">
<feFlood flood-opacity="0" result="BackgroundImageFix"/>
<feColorMatrix in="SourceAlpha" type="matrix" values="0 0 0 0 0 0 0 0 0 0 0 0 0 0 0 0 0 0 127 0" result="hardAlpha"/>
<feOffset dy="-10"/>
<feGaussianBlur stdDeviation="23"/>
<feComposite in2="hardAlpha" operator="out"/>
<feColorMatrix type="matrix" values="0 0 0 0 0.167 0 0 0 0 0.15 0 0 0 0 1 0 0 0 0.31 0"/>
<feBlend mode="normal" in2="BackgroundImageFix" result="effect1_dropShadow_4007_60"/>
<feBlend mode="normal" in="SourceGraphic" in2="effect1_dropShadow_4007_60" result="shape"/>
</filter>
<filter id="filter1_d_4007_60" x="501.937" y="-0.0734844" width="592.599" height="617.982" filterUnits="userSpaceOnUse" color-interpolation-filters="sRGB">
<feFlood flood-opacity="0" result="BackgroundImageFix"/>
<feColorMatrix in="SourceAlpha" type="matrix" values="0 0 0 0 0 0 0 0 0 0 0 0 0 0 0 0 0 0 127 0" result="hardAlpha"/>
<feOffset dy="-24.8911"/>
<feGaussianBlur stdDeviation="22.8998"/>
<feComposite in2="hardAlpha" operator="out"/>
<feColorMatrix type="matrix" values="0 0 0 0 0.6665 0 0 0 0 0.6375 0 0 0 0 1 0 0 0 1 0"/>
<feBlend mode="normal" in2="BackgroundImageFix" result="effect1_dropShadow_4007_60"/>
<feBlend mode="normal" in="SourceGraphic" in2="effect1_dropShadow_4007_60" result="shape"/>
</filter>
<filter id="filter2_i_4007_60" x="436.737" y="597" width="716.003" height="199" filterUnits="userSpaceOnUse" color-interpolation-filters="sRGB">
<feFlood flood-opacity="0" result="BackgroundImageFix"/>
<feBlend mode="normal" in="SourceGraphic" in2="BackgroundImageFix" result="shape"/>
<feColorMatrix in="SourceAlpha" type="matrix" values="0 0 0 0 0 0 0 0 0 0 0 0 0 0 0 0 0 0 127 0" result="hardAlpha"/>
<feOffset dy="25"/>
<feGaussianBlur stdDeviation="12.5"/>
<feComposite in2="hardAlpha" operator="arithmetic" k2="-1" k3="1"/>
<feColorMatrix type="matrix" values="0 0 0 0 1 0 0 0 0 1 0 0 0 0 1 0 0 0 0.05 0"/>
<feBlend mode="normal" in2="shape" result="effect1_innerShadow_4007_60"/>
</filter>
<linearGradient id="paint0_linear_4007_60" x1="797.737" y1="597" x2="800.223" y2="53.9679" gradientUnits="userSpaceOnUse">
<stop stop-color="#003FFF"/>
<stop offset="1" stop-opacity="0"/>
</linearGradient>
<linearGradient id="paint1_linear_4007_60" x1="797.737" y1="597" x2="783.299" y2="137.245" gradientUnits="userSpaceOnUse">
<stop stop-color="#2A07B9"/>
<stop offset="1" stop-color="#0632B9"/>
</linearGradient>
<linearGradient id="paint2_linear_4007_60" x1="797.737" y1="597" x2="783.299" y2="137.245" gradientUnits="userSpaceOnUse">
<stop stop-color="#2A07B9"/>
<stop offset="1" stop-color="#0632B9"/>
</linearGradient>
<linearGradient id="paint3_linear_4007_60" x1="794.737" y1="572.5" x2="794.737" y2="771" gradientUnits="userSpaceOnUse">
<stop stop-color="#7C99FF"/>
<stop offset="0.48" stop-color="#253AF8" stop-opacity="0.67"/>
<stop offset="1" stop-color="#EEEEFF" stop-opacity="0"/>
</linearGradient>
<linearGradient id="paint4_linear_4007_60" x1="797.737" y1="474.5" x2="793.236" y2="126.058" gradientUnits="userSpaceOnUse">
<stop stop-color="#F0F0FF" stop-opacity="0"/>
<stop offset="1" stop-color="#F0F0FF"/>
</linearGradient>
<linearGradient id="paint5_linear_4007_60" x1="797.737" y1="494" x2="798.794" y2="596.994" gradientUnits="userSpaceOnUse">
<stop stop-color="#AD00FF" stop-opacity="0"/>
<stop offset="0.345" stop-color="#9382FF" stop-opacity="0"/>
<stop offset="1" stop-color="white" stop-opacity="0.26"/>
</linearGradient>
<linearGradient id="paint6_linear_4007_60" x1="1049.17" y1="596.744" x2="1150.17" y2="765.744" gradientUnits="userSpaceOnUse">
<stop stop-color="white"/>
<stop offset="1" stop-color="white" stop-opacity="0"/>
</linearGradient>
<linearGradient id="paint7_linear_4007_60" x1="548.311" y1="597.369" x2="443.083" y2="761.401" gradientUnits="userSpaceOnUse">
<stop stop-color="white"/>
<stop offset="1" stop-color="white" stop-opacity="0"/>
</linearGradient>
<linearGradient id="paint8_linear_4007_60" x1="-nan" y1="-nan" x2="-nan" y2="-nan" gradientUnits="userSpaceOnUse">
<stop stop-color="white" stop-opacity="0"/>
<stop offset="1" stop-color="white"/>
</linearGradient>
<linearGradient id="paint9_linear_4007_60" x1="-nan" y1="-nan" x2="-nan" y2="-nan" gradientUnits="userSpaceOnUse">
<stop stop-color="white" stop-opacity="0"/>
<stop offset="1" stop-color="#D0D0D0"/>
</linearGradient>
<radialGradient id="paint10_radial_4007_60" cx="0" cy="0" r="1" gradientUnits="userSpaceOnUse" gradientTransform="translate(798.737 632.896) rotate(4.20641) scale(546.736 234.566)">
<stop stop-color="white" stop-opacity="0.28"/>
<stop offset="1" stop-color="white" stop-opacity="0"/>
</radialGradient>
<linearGradient id="paint11_linear_4007_60" x1="432.237" y1="584" x2="491.237" y2="519" gradientUnits="userSpaceOnUse">
<stop stop-color="white" stop-opacity="0"/>
<stop offset="0.9999" stop-color="#393939"/>
</linearGradient>
<linearGradient id="paint12_linear_4007_60" x1="1158.24" y1="581" x2="1213.74" y2="651" gradientUnits="userSpaceOnUse">
<stop stop-color="#B4B4B4"/>
<stop offset="0.9999" stop-color="white" stop-opacity="0.04"/>
</linearGradient>
<clipPath id="clip0_4007_60">
<rect width="1597" height="794" fill="white"/>
</clipPath>
</defs>
</svg>
