<svg width="83" height="32" viewBox="0 0 83 32" fill="none" xmlns="http://www.w3.org/2000/svg">
<g clip-path="url(#clip0_19_474)">
<path d="M49.1328 0.779785C43.4579 0.779785 38.8635 5.42057 38.8635 11.1527C38.8635 16.8848 43.4579 21.5256 49.1328 21.5256C54.8076 21.5256 59.402 16.8848 59.402 11.1527C59.402 5.42057 54.7971 0.779785 49.1328 0.779785ZM49.1328 17.6371C45.5873 17.6371 42.7132 14.7339 42.7132 11.1527C42.7132 7.57144 45.5873 4.6683 49.1328 4.6683C52.6782 4.6683 55.5523 7.57144 55.5523 11.1527C55.5523 14.7339 52.6782 17.6371 49.1328 17.6371Z" fill="#777C99"/>
<path d="M34.9509 0.811375C34.6048 0.768994 34.2481 0.747803 33.8915 0.747803C33.7131 0.747803 33.5453 0.747803 33.3775 0.747803C33.2096 0.747803 33.0313 0.768994 32.8635 0.779589C32.1712 0.832566 31.4894 0.949115 30.818 1.12924C29.4439 1.50008 28.1642 2.1464 27.0523 3.047C25.9194 3.9688 25.0069 5.1343 24.388 6.46932C24.0838 7.13683 23.853 7.83613 23.7166 8.55661C23.6432 8.90626 23.5908 9.2665 23.5593 9.62675C23.5488 9.80687 23.5278 9.9764 23.5278 10.1671V10.432V10.6757V14.151L23.5488 17.6263L23.5698 21.1016H27.4194L27.4404 17.6263V14.151L27.4614 10.6757V10.3154C27.4614 10.2095 27.4824 10.0929 27.4929 9.98699C27.5138 9.77508 27.5453 9.55258 27.5873 9.34067C27.6712 8.92745 27.8076 8.51423 27.9859 8.1328C28.3425 7.35933 28.867 6.68123 29.5278 6.14086C30.2201 5.5899 31.0069 5.17668 31.8565 4.94358C32.2971 4.82703 32.7376 4.74227 33.1992 4.69989C33.3145 4.69989 33.4299 4.6787 33.5453 4.6787C33.6607 4.6787 33.7761 4.6787 33.8915 4.6787C34.1117 4.6787 34.332 4.68929 34.5523 4.71048C35.4334 4.79525 36.2831 5.07073 37.0488 5.50514L38.9684 2.1358C37.7411 1.41531 36.3775 0.959711 34.9719 0.80078L34.9509 0.811375Z" fill="#777C99"/>
<path d="M10.3636 0.726772C4.68877 0.673795 0.0524079 5.2722 -3.96216e-05 11.0043C-0.0524872 16.7364 4.49996 21.4196 10.1748 21.4726H13.7412V17.5841H10.3636C6.81814 17.6264 3.91255 14.7551 3.87059 11.1738C3.82863 7.59259 6.67129 4.65767 10.2167 4.61528H10.3636C13.9091 4.61528 16.7832 7.51842 16.7937 11.0997V20.6567C16.7937 24.2062 13.93 27.0987 10.4265 27.1411C8.74821 27.1305 7.14332 26.4418 5.958 25.2445L3.23073 27.9993C5.11884 29.9171 7.67828 31.0084 10.3531 31.0402H10.4895C16.0909 30.9554 20.5909 26.3676 20.6223 20.7097V10.856C20.486 5.21922 15.9335 0.726772 10.3636 0.726772Z" fill="#777C99"/>
<path d="M71.8112 0.779785C66.1364 0.779785 61.542 5.42057 61.542 11.1527C61.542 16.8848 66.1364 21.5256 71.8112 21.5256H75.3252V17.6371H71.8112C68.2658 17.6371 65.3916 14.7339 65.3916 11.1527C65.3916 7.57144 68.2658 4.6683 71.8112 4.6683C75.1364 4.6683 77.9161 7.24298 78.2098 10.5911V30.5105H82.0595V11.1527C82.049 5.43117 77.4756 0.779785 71.8112 0.779785Z" fill="#777C99"/>
</g>
<defs>
<clipPath id="clip0_19_474">
<rect width="82.049" height="30.3028" fill="white" transform="translate(0 0.726807)"/>
</clipPath>
</defs>
</svg>
