<svg width="30" height="30" viewBox="0 0 30 30" fill="none" xmlns="http://www.w3.org/2000/svg">
<g clip-path="url(#clip0_74_47)">
<path d="M13.4369 29.9586C11.1479 29.7118 8.73632 28.8566 6.85534 27.6246C3.15525 25.2011 0.785887 21.5109 0.109628 17.1184C-0.0365427 16.1689 -0.0365427 13.8443 0.109628 12.8949C0.615956 9.60615 2.0604 6.71464 4.34076 4.42499C6.8644 1.89105 10.0799 0.381476 13.6735 0.0436079C14.5826 -0.0418643 16.2842 0.00321325 17.1618 0.136013C21.4303 0.781921 25.097 3.11712 27.5279 6.73785C28.7076 8.4951 29.527 10.6461 29.8732 12.8949C30.0204 13.8508 30.0195 16.1723 29.8716 17.1184C29.1783 21.5534 26.8338 25.1982 23.1013 27.6438C21.3869 28.7671 19.3356 29.5385 17.1618 29.8775C16.421 29.993 14.2039 30.0413 13.4369 29.9586ZM14.3461 26.0888C14.6681 25.9434 15.0169 25.6163 15.1859 25.3014C15.2855 25.1159 15.3132 24.9583 15.3181 24.5485L15.3244 24.0303L16.2632 23.0915L17.202 22.1527L17.5439 22.3715C18.4193 22.9314 19.2869 23.1809 20.3588 23.1809C21.88 23.1809 23.0971 22.6509 24.147 21.5313C26.5151 19.0059 25.7681 14.9526 22.6445 13.3777C22.3261 13.2172 21.7483 13.022 21.312 12.9275L21.1507 12.8926L21.1523 11.7059L21.1539 10.5191L21.4084 10.3648C21.9041 10.0643 22.2469 9.35204 22.1912 8.73826C22.1458 8.23775 21.9483 7.83572 21.5845 7.5032C21.2163 7.16672 20.86 7.02888 20.3583 7.02888C19.8566 7.02888 19.5003 7.16672 19.1321 7.5032C18.6959 7.90189 18.5407 8.26598 18.5466 8.87666C18.5494 9.16751 18.5863 9.424 18.6433 9.55125C18.7995 9.8995 19.083 10.2436 19.3297 10.3845L19.5655 10.5191L19.5658 11.7059L19.5661 12.8926L19.4048 12.9282C18.6653 13.0912 17.9261 13.4009 17.436 13.753C17.1612 13.9504 17.1266 13.961 16.9999 13.8858C16.9244 13.8408 15.458 12.7091 13.7415 11.3709L10.6205 8.93764V8.37921C10.6205 7.88816 10.601 7.78098 10.4585 7.49085C10.2674 7.10173 9.81869 6.66133 9.43077 6.48217C9.0341 6.29898 8.15948 6.29898 7.76281 6.48217C7.37488 6.66133 6.92615 7.10173 6.73505 7.49085C6.59265 7.78084 6.57302 7.88827 6.57302 8.37805C6.57302 8.86784 6.59267 8.97528 6.73505 9.26526C6.92779 9.65773 7.37897 10.0985 7.76281 10.2693C8.1798 10.4548 8.82451 10.4756 9.28875 10.3184L9.6581 10.1934L12.7936 12.6349C14.5182 13.9777 15.9437 15.0999 15.9615 15.1286C15.9793 15.1574 15.8735 15.4255 15.7263 15.7244C15.3174 16.5551 15.207 17.0447 15.207 18.0276C15.207 18.6874 15.2321 18.9411 15.3344 19.3181C15.468 19.81 15.781 20.5233 15.9954 20.8244L16.1216 21.0016L15.1602 21.9647L14.1988 22.9278L13.87 22.8908C12.3502 22.7198 11.4153 24.5098 12.4253 25.6572C12.762 26.0397 13.1459 26.2097 13.6709 26.2088C13.9568 26.2083 14.1616 26.1718 14.3454 26.0888L14.3461 26.0888ZM19.8015 20.6322C19.1368 20.5024 18.3641 19.9246 18.0272 19.3055C17.0632 17.5343 18.3481 15.36 20.3588 15.36C22.0777 15.36 23.3698 17.0125 22.9403 18.6615C22.5724 20.0739 21.2367 20.9125 19.8015 20.6322Z" fill="url(#paint0_linear_74_47)"/>
</g>
<defs>
<linearGradient id="paint0_linear_74_47" x1="14.9915" y1="0" x2="14.9915" y2="30" gradientUnits="userSpaceOnUse">
<stop stop-color="#F77208"/>
<stop offset="1" stop-color="#F79708"/>
</linearGradient>
<clipPath id="clip0_74_47">
<rect width="29.983" height="30" fill="white"/>
</clipPath>
</defs>
</svg>
