<svg width="28" height="30" viewBox="0 0 28 30" fill="none" xmlns="http://www.w3.org/2000/svg">
<g clip-path="url(#clip0_74_50)">
<path d="M8.63055 29.9689C8.54449 29.9254 8.46506 29.8382 8.41716 29.7347L8.38171 29.6581V14.9922V0.326363L8.41793 0.258972C8.46933 0.163262 8.58618 0.0535161 8.67138 0.0209782C8.72339 0.00111425 8.77185 -0.00403826 8.84095 0.00297196C8.89415 0.00835982 13.081 0.69955 18.1449 1.53896C23.2089 2.37838 27.4038 3.07255 27.4669 3.08157C27.6413 3.1065 27.7127 3.15328 27.7875 3.29155L27.8239 3.35895L27.8284 14.8693L27.8329 26.3796L27.7981 26.4726C27.7543 26.5898 27.6414 26.7094 27.5524 26.7329C27.4472 26.7607 8.87895 29.9923 8.78655 29.9989C8.72496 30.0032 8.68315 29.9952 8.63105 29.9689L8.63055 29.9689ZM18.6779 25.5892C22.2904 25.0703 25.2694 24.638 25.2978 24.6287C25.3526 24.6106 25.456 24.5124 25.4901 24.4459C25.5014 24.4239 25.5157 24.3708 25.5218 24.328C25.5309 24.2641 25.5398 24.249 25.5707 24.2446L25.6085 24.2392L25.604 15.0205L25.5995 5.80184L25.5535 5.72359C25.5018 5.63563 25.4235 5.56343 25.3436 5.52994C25.3032 5.51301 12.4338 3.90491 11.9839 3.86059C11.8344 3.84585 11.6815 3.94907 11.6057 4.11598C11.5756 4.18235 11.5746 4.52594 11.5742 15.1933L11.5739 26.2021L11.6089 26.2744C11.6775 26.4162 11.8654 26.526 12.0479 26.5311C12.0817 26.5321 15.0653 26.1082 18.6779 25.5892ZM4.52359 27.5432C4.39916 27.4952 4.32194 27.4228 4.259 27.2949L4.2035 27.1822L4.19844 14.9252C4.19444 5.64973 4.19816 2.64594 4.21296 2.57676C4.25121 2.39824 4.47215 2.24049 4.68883 2.23693C4.73695 2.23608 5.02656 2.27825 5.33234 2.33052C5.63813 2.38279 5.99607 2.44388 6.12777 2.46628C6.29786 2.4952 6.38417 2.5181 6.42569 2.54532C6.49358 2.58983 6.56444 2.69208 6.58799 2.77951C6.59865 2.81906 6.60296 7.10832 6.60015 14.9436L6.59564 27.0467L6.54568 27.1369C6.49113 27.2354 6.41392 27.3076 6.30925 27.358C6.25942 27.382 6.05047 27.4148 5.50765 27.4839C5.10384 27.5353 4.73614 27.577 4.69054 27.5765C4.64492 27.576 4.56992 27.561 4.52359 27.5432ZM0.295414 25.2656C0.202062 25.2401 0.0648227 25.0997 0.0282394 24.9923C0.00190101 24.9152 0 24.2178 0 14.8513V4.7932L0.0352993 4.72032C0.0957774 4.59539 0.265423 4.48293 0.433157 4.45657C0.54465 4.43904 2.10508 4.63804 2.18803 4.68036C2.26919 4.72176 2.34841 4.81122 2.37796 4.89484C2.39709 4.94894 2.40081 6.57124 2.40081 14.8659C2.40081 24.4225 2.3998 24.7751 2.37 24.8521C2.31423 24.9967 2.16986 25.0837 1.9848 25.0841C1.9302 25.0843 0.900559 25.2106 0.412803 25.277C0.384962 25.2808 0.332152 25.2757 0.295414 25.2656Z" fill="url(#paint0_linear_74_50)"/>
</g>
<defs>
<linearGradient id="paint0_linear_74_50" x1="13.9165" y1="0" x2="13.9165" y2="30" gradientUnits="userSpaceOnUse">
<stop stop-color="#278EC1"/>
<stop offset="1" stop-color="#12435B"/>
</linearGradient>
<clipPath id="clip0_74_50">
<rect width="27.8329" height="30" fill="white"/>
</clipPath>
</defs>
</svg>
