<svg width="28" height="30" viewBox="0 0 28 30" fill="none" xmlns="http://www.w3.org/2000/svg">
<g clip-path="url(#clip0_74_53)">
<path d="M0.867596 22.438C0.740939 22.4444 0.616603 22.5065 0.431653 22.6277C0.00401126 22.9081 0 22.9356 0 25.8143C0 28.5115 0.0270014 28.7523 0.379877 29.2009C0.588821 29.4665 0.928676 29.752 1.13505 29.8354C1.34143 29.9187 2.76965 29.9924 4.3088 29.9984C6.87878 30.0088 7.13618 29.9806 7.46252 29.6543C7.65797 29.4588 7.81809 29.1939 7.81809 29.0656C7.81809 28.7731 1.9359 22.9068 1.31813 22.5831C1.12331 22.481 0.994252 22.4317 0.867596 22.438Z" fill="#0A144E"/>
<path d="M23.5443 17.1626C22.9155 17.1566 22.2738 17.2632 21.85 17.4755C21.1042 17.8492 15.1948 23.6605 14.796 24.4126C13.8222 26.2486 14.5368 28.5237 16.3827 29.4651C17.4897 30.0297 19.2628 29.9073 20.2072 29.2011C21.576 28.1775 26.6337 22.9931 26.9097 22.3307C27.7109 20.4081 26.778 18.1352 24.8796 17.3846C24.5147 17.2403 24.0334 17.1673 23.5443 17.1626Z" fill="url(#paint0_linear_74_53)"/>
<path d="M23.5673 3.2543C22.9677 3.24317 22.3539 3.37838 21.766 3.66707C20.9073 4.08878 8.18931 16.8349 7.80299 17.661C6.95076 19.4833 7.79795 21.6925 9.68378 22.5657C10.6084 22.9938 11.7977 22.9834 12.7771 22.539C13.341 22.2832 15.334 20.4324 19.8844 15.9384C23.3624 12.5035 26.4237 9.38092 26.6876 8.99934C27.6634 7.58818 27.4974 5.8359 26.2608 4.49431C25.5265 3.69768 24.5667 3.27287 23.5673 3.2543Z" fill="url(#paint1_linear_74_53)"/>
<path d="M12.7651 0.00118496C12.3116 0.0140161 11.8579 0.131075 11.3717 0.350744C10.3908 0.793944 1.06734 9.98822 0.485139 11.0866C-0.454836 12.8598 0.267025 15.0463 2.11077 16.0095C3.27604 16.6183 4.22719 16.6458 5.36719 16.1039C6.58182 15.5265 15.8921 6.29187 16.3865 5.17415C17.1815 3.37679 16.4249 1.40521 14.5812 0.470312C13.9305 0.140352 13.3481 -0.015309 12.7651 0.00118496Z" fill="url(#paint2_linear_74_53)"/>
</g>
<defs>
<linearGradient id="paint0_linear_74_53" x1="20.779" y1="17.1624" x2="20.779" y2="29.8206" gradientUnits="userSpaceOnUse">
<stop stop-color="#F7B028"/>
<stop offset="1" stop-color="#916717"/>
</linearGradient>
<linearGradient id="paint1_linear_74_53" x1="17.395" y1="3.25366" x2="17.395" y2="22.8797" gradientUnits="userSpaceOnUse">
<stop stop-color="#F75E00"/>
<stop offset="1" stop-color="#913700"/>
</linearGradient>
<linearGradient id="paint2_linear_74_53" x1="8.38677" y1="0" x2="8.38677" y2="16.4894" gradientUnits="userSpaceOnUse">
<stop stop-color="#0094F7"/>
<stop offset="1" stop-color="#005791"/>
</linearGradient>
<clipPath id="clip0_74_53">
<rect width="27.3187" height="30" fill="white"/>
</clipPath>
</defs>
</svg>
