<svg width="24" height="34" viewBox="0 0 24 34" fill="none" xmlns="http://www.w3.org/2000/svg">
<g clip-path="url(#clip0_76_103)">
<path d="M11.8786 22.3381C16.2891 22.3381 19.8644 18.9375 19.8644 14.7426C19.8644 10.5478 16.2891 7.14722 11.8786 7.14722C7.46819 7.14722 3.89282 10.5478 3.89282 14.7426C3.89282 18.9375 7.46819 22.3381 11.8786 22.3381Z" fill="white" stroke="black" stroke-width="1.27127" stroke-linecap="round" stroke-linejoin="round"/>
<path d="M12.0002 0C11.3902 0 11.0949 0.0211242 10.7167 0.122545C7.96916 0.97366 4.63652 5.19618 2.96595 12.5359C0.832648 21.9087 8.48613 25.1105 11.72 25.1105C15.3004 25.1105 23.4005 22.4653 21.0428 12.5359C18.7857 3.03032 15.204 0.356198 12.3946 0.00537278C12.2767 0.00193652 12.1502 0 12.0002 0ZM8.28322 9.43739C8.5465 9.43569 8.83679 9.45874 9.15652 9.50523C10.2866 9.66956 10.5454 9.70839 10.9343 9.77171C11.6108 9.88181 12.9348 9.80067 14.6732 9.54262C15.655 9.39687 16.2086 9.41021 16.695 9.59128C17.2351 9.79232 17.6282 10.2759 17.8226 10.9783C17.9951 11.6016 17.8031 11.6826 17.3159 11.1921C16.7802 10.6528 16.2827 10.4507 15.6531 10.5168C14.9655 10.5889 14.671 10.6401 13.5357 10.8856C13.0819 10.9837 12.7773 11.0091 12.0286 11.0108C11.0914 11.0129 11.0014 11.0018 9.58307 10.7094C9.4423 10.6804 9.16079 10.6348 8.95747 10.6081C8.75415 10.5813 8.45403 10.5415 8.29054 10.5195C7.73197 10.4443 7.03769 10.7389 6.62391 11.2266C6.34396 11.5566 6.11343 11.6127 6.1145 11.3507C6.11493 11.2658 6.1509 11.08 6.19459 10.938C6.50956 9.91397 7.14233 9.44447 8.28322 9.43739ZM11.7186 12.8642C12.4214 12.8627 13.2553 12.8971 13.5073 12.9552C13.648 12.9877 13.84 13.0313 13.9338 13.0521C14.0277 13.0729 14.3092 13.1842 14.5594 13.2995C15.3198 13.6498 15.6943 14.1403 15.696 14.7882C15.6977 15.3913 15.4158 15.7211 14.4832 16.2079C14.0337 16.4425 13.9204 16.556 14.1358 16.556C14.355 16.556 15.0147 16.3727 15.3757 16.2115C15.5119 16.1507 15.6633 16.1086 15.7121 16.118C15.8468 16.1438 16.2081 16.8969 16.3139 17.3722C16.3656 17.6041 16.4068 17.9257 16.4057 18.0869C16.4032 18.4339 16.2762 19.1216 16.2008 19.1959C16.1681 19.2283 15.8555 19.1553 15.3821 19.0049C14.9609 18.8711 14.4755 18.733 14.3035 18.6981C14.1315 18.6631 13.8627 18.6073 13.7063 18.574C13.5499 18.5407 12.9485 18.4994 12.3698 18.4821C11.0701 18.4433 10.4063 18.5224 9.21339 18.8587C9.11955 18.8851 8.9532 18.9317 8.84372 18.9621C8.73424 18.9926 8.5167 19.0534 8.3603 19.0972C8.2039 19.1409 8.01989 19.1944 7.95142 19.216C7.78012 19.27 7.72504 19.1489 7.64251 18.5372C7.5843 18.1057 7.58838 17.96 7.67094 17.5147C7.77188 16.9703 7.91693 16.5951 8.14481 16.2894C8.30392 16.076 8.31549 16.0741 8.63112 16.2131C8.98727 16.37 9.06539 16.3944 9.45266 16.4693C9.81688 16.5397 9.99255 16.5112 9.85588 16.404C9.8153 16.3721 9.59118 16.2481 9.3578 16.1283C8.52088 15.6988 8.16859 15.1535 8.32842 14.535C8.4268 14.1542 8.50179 14.0257 8.78629 13.7499C9.22114 13.3283 9.84195 13.0621 10.749 12.9084C10.9223 12.879 11.2969 12.8652 11.7186 12.8642ZM13.3894 14.0878C13.0374 14.0868 12.5417 14.2039 12.3846 14.3255C12.2561 14.4249 11.7844 14.3875 11.4883 14.2545C11.0925 14.0765 10.3094 14.0325 10.0336 14.1727C9.47981 14.4542 9.44693 14.9772 9.95174 15.4753C10.0848 15.6067 10.2199 15.7142 10.252 15.7142C10.3334 15.7142 10.3793 15.5735 10.3793 15.3236C10.3793 15.2021 10.4162 15.0804 10.4651 15.0403C10.6199 14.9135 11.098 15.0401 11.7577 15.3823C11.9194 15.4662 12.1212 15.4416 12.4392 15.299C13.4013 14.8677 13.621 14.873 13.621 15.3279C13.621 15.564 13.6668 15.7142 13.7389 15.7142C13.8387 15.7142 14.2001 15.3529 14.3068 15.1465C14.6216 14.5377 14.2342 14.0906 13.3894 14.0878ZM11.8581 19.3868C12.4877 19.3806 13.2123 19.4352 13.7348 19.5357C14.042 19.5949 15.2324 19.9366 15.4836 20.0378C15.7095 20.1288 15.6214 20.5246 15.3117 20.8101L15.1715 20.9393L14.7517 20.7907C13.9884 20.5204 13.6778 20.4533 12.7904 20.3667C11.663 20.2567 9.96654 20.458 9.2185 20.7904C8.92499 20.9208 8.81338 20.9372 8.72164 20.8636C8.55191 20.7274 8.38874 20.4373 8.38874 20.2718C8.38874 20.0817 8.49845 20.0147 9.12808 19.8206C9.8982 19.5832 10.3542 19.4967 11.2711 19.4137C11.4489 19.3977 11.6482 19.3888 11.8581 19.3868Z" fill="url(#paint0_linear_76_103)"/>
<path d="M6.12645 4.38232C6.02791 4.42637 5.92982 4.47154 5.8322 4.51781C5.75502 4.58078 5.66766 4.64579 5.57361 4.70536C4.14929 5.6075 2.6962 7.01895 1.93298 8.2417C1.27314 9.29883 0.911647 10.0245 0.624906 10.8673C0.448045 11.3871 0.318289 11.8386 0.256233 12.1504C0.231657 12.2739 0.1663 12.6022 0.110941 12.88C-0.0163491 13.5188 -0.0409165 15.802 0.07295 16.4157C0.281795 17.5412 0.629973 18.8957 0.823071 19.334C0.850269 19.3958 0.94256 19.6357 1.02812 19.8672C1.40501 20.8869 2.01078 22.0786 3.03955 23.8238C3.90089 25.285 6.08703 28.1683 7.59048 29.8261C8.96704 31.344 11.2325 33.6135 11.6305 33.8734C11.8881 34.0415 12.0939 34.0421 12.3569 33.8756C12.5763 33.7366 14.4931 31.8897 15.1885 31.1472C16.3152 29.9443 16.4816 29.7584 17.3233 28.7625C18.6999 27.1337 20.2757 24.9972 20.9453 23.8519C21.6812 22.5932 21.8909 22.2166 22.164 21.6631C22.6093 20.7606 22.7928 20.3532 22.9728 19.8672C23.0585 19.6357 23.1766 19.32 23.2354 19.1657C23.4524 18.5954 23.7799 17.2906 23.9256 16.4157C24.0247 15.8207 24.0249 13.5721 23.9258 13.0764C23.8857 12.8758 23.8267 12.5727 23.7945 12.403C23.5292 11.0032 22.9797 9.67974 22.0675 8.24324C21.2703 6.98788 19.8555 5.61331 18.4268 4.70601C18.374 4.67244 18.3226 4.63669 18.2737 4.60078C18.2036 4.56641 18.1333 4.53262 18.0627 4.4994C19.1683 6.37942 20.1984 8.97924 21.0429 12.5359C23.4005 22.4653 15.3005 25.1104 11.7201 25.1104C8.4862 25.1104 0.832717 21.9087 2.96602 12.5359C3.73824 9.1431 4.86589 6.41788 6.12645 4.38232ZM11.7186 12.8642C11.5921 12.8644 11.4728 12.8664 11.359 12.869C11.4727 12.8664 11.5923 12.8645 11.7186 12.8642ZM12.2106 12.8691C12.264 12.8702 12.3157 12.8719 12.3686 12.8733C12.315 12.8718 12.2649 12.8702 12.2106 12.8691ZM12.6916 12.8843C12.7738 12.8878 12.8558 12.8913 12.931 12.8957C12.8554 12.8913 12.7743 12.8878 12.6916 12.8843ZM12.9856 12.8987C13.0895 12.9053 13.1824 12.9129 13.2643 12.9211C13.1823 12.9129 13.0898 12.9053 12.9856 12.8987ZM13.3909 14.9811C13.369 14.9804 13.3453 14.9817 13.3195 14.9847C13.3711 14.9789 13.4146 14.98 13.4511 14.988C13.4329 14.984 13.4128 14.9816 13.3909 14.9811Z" fill="url(#paint1_linear_76_103)"/>
</g>
<defs>
<linearGradient id="paint0_linear_76_103" x1="12.0311" y1="0" x2="12.0311" y2="25.1105" gradientUnits="userSpaceOnUse">
<stop/>
<stop offset="1" stop-color="#383838"/>
</linearGradient>
<linearGradient id="paint1_linear_76_103" x1="12" y1="4.38232" x2="12" y2="34" gradientUnits="userSpaceOnUse">
<stop stop-color="#FEC70A"/>
<stop offset="1" stop-color="#F19100"/>
</linearGradient>
<clipPath id="clip0_76_103">
<rect width="24" height="34" fill="white"/>
</clipPath>
</defs>
</svg>
