<svg width="122" height="31" viewBox="0 0 122 31" fill="none" xmlns="http://www.w3.org/2000/svg">
<g clip-path="url(#clip0_19_454)">
<path d="M13.1613 0.680285C12.2394 0.709214 11.299 0.894466 10.5363 1.21683C8.62963 2.02263 7.25167 3.35974 6.44343 5.18863C6.07774 6.01604 6.00861 6.09207 5.53968 6.18138C3.82518 6.50791 1.62278 8.36092 0.74619 10.2144C-0.473681 12.7938 -0.190036 15.5712 1.53958 17.9827C1.94329 18.5455 1.97551 18.6558 1.85717 19.0723C1.59193 20.0055 1.5551 21.6712 1.77856 22.6341C2.63888 26.3414 6.22856 28.9427 9.84401 28.4792L10.7831 28.359L11.4935 29.0163C12.3785 29.8352 13.8461 30.5812 15.0762 30.8374C17.9801 31.4423 21.1452 30.0705 22.7837 27.4968C23.0496 27.0792 23.3483 26.4879 23.4474 26.1827C23.6192 25.6545 23.6689 25.6166 24.4819 25.3932C26.9144 24.7248 29.015 22.4563 29.5807 19.8876C29.7407 19.1612 29.7826 18.5288 29.73 17.6347C29.63 15.932 29.2852 15.0876 27.9258 13.2174C27.7956 13.0384 27.8026 12.8551 27.9592 12.3265C28.2195 11.4489 28.211 9.6263 27.9425 8.69864C27.2182 6.19684 25.2445 4.16021 22.7902 3.38215C22.0885 3.1597 21.6274 3.11343 20.4296 3.14487L18.941 3.18397L18.2831 2.59449C17.4319 1.83195 15.8244 1.01392 14.7586 0.80105C14.2609 0.701662 13.7144 0.662928 13.1613 0.680285ZM13.1998 2.88631C14.4608 2.8825 15.8788 3.3298 16.7265 4.02883L17.0328 4.28154L14.9811 5.42565C13.8526 6.055 12.3181 6.93075 11.571 7.37151L10.213 8.17274L10.1441 9.22348C10.1081 9.80136 10.0904 11.1323 10.1081 12.181C10.1263 13.2297 10.1131 14.5934 10.0746 15.2114C10.0381 15.8294 9.9709 16.3275 9.92577 16.3183C9.88065 16.309 9.42115 16.0659 8.90461 15.778C8.38813 15.4901 7.91488 15.2353 7.85312 15.2119C7.69973 15.1538 7.6328 10.2049 7.76114 8.41827C7.84972 7.18601 7.93008 6.83768 8.30094 6.07285C9.11212 4.40005 10.8847 3.11951 12.671 2.9161C12.8426 2.89656 13.0197 2.88685 13.1998 2.88631ZM20.2879 5.22827C20.6515 5.226 21.0171 5.27047 21.4133 5.35436C23.3623 5.76689 24.614 6.71308 25.4305 8.39034C25.8661 9.28502 25.9355 9.56558 25.9857 10.627C26.0172 11.2944 26.006 11.8405 25.9614 11.8405C25.9168 11.8405 25.5924 11.6649 25.2408 11.4503C24.8892 11.2357 23.696 10.5488 22.5891 9.92389C21.4823 9.29893 20.3085 8.61653 19.9804 8.40736C19.6524 8.1982 19.2709 8.02697 19.133 8.02697C18.995 8.02697 18.3277 8.34072 17.6499 8.72418C16.9723 9.10764 16.0858 9.60685 15.68 9.83344C15.2741 10.06 14.8817 10.2913 14.808 10.3474C14.7342 10.4035 14.0701 10.8005 13.3322 11.2297C12.5944 11.6589 11.9454 12.0368 11.89 12.0695C11.8345 12.1022 11.7894 11.4872 11.7894 10.7028V9.27642L13.2987 8.42944C14.1288 7.96355 15.4759 7.19628 16.2921 6.72431C18.125 5.66443 19.1975 5.23513 20.2879 5.22827ZM40.8066 7.64311C36.8423 7.65206 34.1376 9.77228 33.376 13.5188C33.0916 14.918 33.0353 17.7308 33.257 19.4654C33.7006 22.9365 36.139 25.4664 39.4238 25.8638C44.1527 26.4359 47.6171 24.2329 48.4116 20.1485C48.6326 19.0125 48.6901 15.9563 48.5219 14.2921C48.1279 10.3935 45.5613 7.93219 41.616 7.66971C41.3407 7.6514 41.0708 7.64252 40.8066 7.64311ZM101.614 7.94131C101.422 7.94291 101.215 7.94737 101.002 7.95514L99.4596 8.0118L99.153 8.80239C98.9843 9.2373 98.5511 10.4513 98.1903 11.5C97.8296 12.5487 97.3146 14.0197 97.046 14.7687C96.2758 16.917 95.9304 17.893 95.1667 20.0804C94.7744 21.2041 94.1778 22.9048 93.8406 23.8599L93.2275 25.5964H94.8125H96.3975L96.8953 23.9961C97.1692 23.1159 97.4426 22.2732 97.5027 22.1234C97.6081 21.861 97.7371 21.8511 101.018 21.8531C102.891 21.8542 104.497 21.9029 104.587 21.9609C104.677 22.0188 104.879 22.508 105.036 23.0481C105.193 23.5881 105.432 24.3673 105.567 24.7792L105.813 25.5283L107.43 25.5666L109.048 25.6047L108.902 25.2261C108.732 24.7859 107.294 20.713 106.436 18.2418C106.111 17.3054 105.657 16.0183 105.427 15.3816C105.197 14.7449 104.871 13.8256 104.703 13.3387C103.444 9.69093 102.844 8.08825 102.706 8.00063C102.64 7.95861 102.192 7.93657 101.614 7.94131ZM121.461 7.96073L116.162 7.96818L110.863 7.97562L110.824 9.22694L110.786 10.4785L111.831 10.507C112.405 10.5227 113.253 10.5206 113.714 10.5025L114.552 10.4695V16.7236V22.9776L113.935 23.0717C113.596 23.1234 112.879 23.1239 112.342 23.0727C110.81 22.927 110.796 22.9385 110.796 24.3797V25.5964H116.167H121.539L121.5 24.3366L121.461 23.0767L119.784 23.0693C118.862 23.0652 118.032 23.0499 117.94 23.0352C117.809 23.0143 117.772 21.6574 117.772 16.7776V10.5466L119.617 10.5309L121.461 10.5155V9.23811V7.96073ZM6.02056 8.14826V11.9605C6.02056 15.595 6.0987 16.4712 6.42251 16.4712C6.49958 16.4712 6.78766 16.6146 7.06289 16.7899C7.58662 17.1235 10.358 18.7123 12.0241 19.6341C12.5591 19.93 12.9968 20.2199 12.9968 20.2784C12.9968 20.3368 12.5021 20.6687 11.8978 21.0157C11.2934 21.3628 10.7634 21.6467 10.7203 21.6467C10.6772 21.6467 10.5225 21.5637 10.377 21.4624C10.2314 21.361 9.81049 21.1087 9.44156 20.9016C4.9659 18.3894 4.25699 17.9375 3.58525 17.1705C1.26319 14.5194 2.0045 10.2906 5.07887 8.65049L6.02056 8.14826ZM19.0543 9.94463L20.2851 10.6796C20.962 11.0838 22.3007 11.8581 23.2599 12.4004C24.2191 12.9428 25.3119 13.6483 25.6881 13.9683C27.0194 15.1007 27.8051 17.3415 27.4821 19.0837C27.1843 20.6902 26.0803 22.2336 24.6916 22.985C24.2524 23.2227 23.8563 23.4173 23.8112 23.4173C23.7666 23.4173 23.7273 21.6552 23.7273 19.5016C23.7273 17.348 23.6807 15.5162 23.6267 15.4311C23.5725 15.346 22.0283 14.4216 20.1952 13.377C18.362 12.3323 16.8588 11.4214 16.8588 11.3526C16.8588 11.2839 17.3505 10.939 17.9551 10.5863L19.0543 9.94463ZM40.6551 10.3444C41.3948 10.3215 42.1555 10.4107 42.7107 10.6192C43.6844 10.9851 44.6 11.8948 44.9828 12.8769C45.3678 13.8649 45.4597 18.8414 45.1169 20.1438C44.6935 21.7527 43.8133 22.6899 42.3561 23.0837C40.3157 23.635 38.1698 22.9836 37.2652 21.5384C36.6369 20.5345 36.4495 19.6605 36.4024 17.5116C36.3105 13.3316 36.8744 11.6882 38.7258 10.7429C39.1967 10.5025 39.9154 10.3674 40.6551 10.3444ZM101.168 10.8363C101.205 10.9016 101.329 11.2617 101.445 11.6362C102.344 14.5529 103.354 17.75 103.566 18.349C103.705 18.7451 103.82 19.1281 103.82 19.2002C103.82 19.2798 102.766 19.3314 101.137 19.3314C99.6608 19.3314 98.4534 19.2891 98.4534 19.2375C98.4534 19.1058 99.9785 14.1337 100.592 12.2664C100.872 11.4145 101.131 10.771 101.168 10.8363ZM71.3377 12.2616C71.013 12.2712 70.6905 12.3262 70.184 12.4321C68.7613 12.7294 68.2164 13.0057 67.3355 13.8768C66.0272 15.1704 65.6633 16.514 65.7476 19.7399C65.7978 21.6616 65.8343 21.9208 66.1537 22.6294C66.8278 24.1241 67.9106 25.1077 69.4212 25.5975C70.5768 25.9722 72.7651 25.9647 73.9124 25.5824C74.8297 25.2766 75.312 24.9878 76.0269 24.3151C76.4358 23.9304 76.935 23.1667 76.8304 23.0861C76.5794 22.8929 75.1465 22.0553 75.0669 22.0553C75.0094 22.0553 74.7467 22.2681 74.4831 22.528C73.7652 23.2358 72.9387 23.5878 71.8371 23.6551C70.7226 23.7232 70.1443 23.5249 69.4967 22.8526C69.0385 22.3768 68.8379 21.8135 68.7759 20.8295L68.7374 20.2167L72.9841 20.1807L77.2305 20.1448L77.3193 19.3635C77.4147 18.5223 77.2155 16.5141 76.9629 15.7705C76.5582 14.5789 75.3023 13.2254 74.1464 12.7351C73.8874 12.6252 73.1488 12.458 72.505 12.3635C71.9896 12.2878 71.6625 12.252 71.3377 12.2616ZM58.4129 12.2728C57.0313 12.241 55.6592 12.7451 54.732 13.8433L54.181 14.4963V13.543V12.5896L52.7052 12.5661L51.2298 12.5427V21.3211V30.0994L52.8006 30.0611L54.3714 30.0228L54.377 27.0182L54.3826 24.0139L55.0335 24.6643C55.89 25.5202 56.8573 25.8962 58.2061 25.8973C60.4076 25.8988 62.0951 24.9089 62.9598 23.1084C63.5547 21.8699 63.7095 20.833 63.6333 18.5985C63.5651 16.6031 63.4484 16.0456 62.8655 14.9291C61.9836 13.2402 60.1916 12.3136 58.4152 12.2727L58.4129 12.2728ZM86.4465 12.3236C85.3876 12.3277 84.9777 12.3876 84.5012 12.6079C83.7056 12.9758 83.0748 13.5295 82.7579 14.1383L82.5009 14.6325L82.4948 13.5978L82.4887 12.563L81.013 12.5683L79.5373 12.5739V19.085V25.5964H81.0717H82.6061L82.6482 21.2041C82.6847 17.3649 82.7191 16.758 82.9201 16.3853C83.6187 15.09 85.2835 14.6331 86.7429 15.3361C87.0904 15.5036 87.3038 15.7513 87.5355 16.2565C87.8478 16.9375 87.8538 17.013 87.8538 21.2764V25.6049L89.4302 25.5667L91.0066 25.5284V20.7614C91.0066 16.0763 91.0015 15.9799 90.6887 15.1438C90.2798 14.05 89.521 13.1815 88.5535 12.7C87.8658 12.3577 87.6485 12.319 86.4452 12.3236L86.4465 12.3236ZM14.942 12.4257L16.4178 13.2679L17.8935 14.1098L17.9311 15.8259L17.9686 17.5416L16.5895 18.292C15.831 18.7047 15.1197 19.0763 15.009 19.1177C14.8981 19.1593 14.145 18.8076 13.332 18.3343L11.8563 17.4754L11.8187 15.824L11.7812 14.1726L12.6907 13.6363C13.1911 13.3413 13.9023 12.9481 14.2713 12.7627L14.942 12.4257ZM71.5639 14.429C72.2144 14.428 73.2878 14.803 73.6003 15.1409C74.0544 15.6319 74.4311 16.6201 74.4362 17.3224L74.4412 17.9694H71.5487H68.6559L68.7395 17.3224C68.9823 15.4401 69.9671 14.4321 71.566 14.429H71.5639ZM57.2532 14.8586C58.2455 14.8109 59.2746 15.1893 59.8318 15.9703C60.4009 16.7679 60.5173 17.398 60.4646 19.3931C60.4205 21.0656 60.3942 21.2137 60.0163 21.913C59.7078 22.4838 59.47 22.7311 58.9902 22.9802C58.0469 23.47 56.9674 23.5143 56.1108 23.0986C54.7366 22.4317 54.2924 21.3144 54.3908 18.7722C54.4601 16.9819 54.5946 16.506 55.244 15.7551C55.7319 15.1909 56.4814 14.8958 57.2532 14.8586ZM19.766 15.2454C19.7994 15.2454 20.1206 15.4212 20.4793 15.6359C20.838 15.8507 21.3567 16.1346 21.6319 16.2672L22.1323 16.5082L22.1115 20.0996C22.1004 22.0748 22.0349 23.9442 21.9664 24.2539C21.5973 25.9214 20.3536 27.4813 18.8079 28.2161C18.0266 28.5875 17.7182 28.6562 16.6863 28.688C15.8864 28.7127 15.275 28.6568 14.8751 28.5225C14.1401 28.2758 12.9649 27.6241 12.9037 27.4292C12.8626 27.2983 13.6783 26.7845 15.5459 25.7653C18.1403 24.3496 19.4461 23.573 19.6021 23.3524C19.6565 23.2757 19.7027 21.4203 19.7027 19.2292C19.7027 17.0381 19.7325 15.2454 19.766 15.2454ZM17.9244 19.6035C18.0089 19.6033 18.0041 22.3569 17.9194 22.4024C17.9052 22.4101 16.5351 23.187 14.8749 24.1288C13.1258 25.1211 11.4697 25.9615 10.9367 26.1274C7.55446 27.1793 4.07345 24.788 3.78641 21.2155C3.65807 19.6178 3.65287 19.6205 5.1969 20.546C5.93046 20.9856 6.88377 21.5453 7.31542 21.7901C10.7348 23.7291 10.8415 23.7677 11.5005 23.3016C11.6963 23.163 12.9619 22.426 14.3129 21.6637C15.6639 20.9015 17.006 20.1262 17.2953 19.9408C17.5845 19.7554 17.8677 19.6036 17.9244 19.6035Z" fill="#777C99"/>
</g>
<defs>
<clipPath id="clip0_19_454">
<rect width="121.538" height="30.3028" fill="white" transform="translate(0 0.67627)"/>
</clipPath>
</defs>
</svg>
