<svg width="43" height="32" viewBox="0 0 43 32" fill="none" xmlns="http://www.w3.org/2000/svg">
<g clip-path="url(#clip0_19_495)">
<mask id="mask0_19_495" style="mask-type:luminance" maskUnits="userSpaceOnUse" x="0" y="0" width="43" height="32">
<path d="M0.00952148 0.806152H42.656V31.0202H0.00952148V0.806152Z" fill="white"/>
</mask>
<g mask="url(#mask0_19_495)">
<path fill-rule="evenodd" clip-rule="evenodd" d="M17.7508 4.1025C19.1264 2.65177 21.0417 1.75157 23.1599 1.75157C25.9756 1.75157 28.4324 3.34096 29.7403 5.70078C30.9106 5.17144 32.1782 4.89862 33.46 4.90021C38.5386 4.90021 42.6559 9.10437 42.6559 14.2908C42.6559 19.4771 38.5386 23.6815 33.46 23.6815C32.8398 23.6815 32.2342 23.6183 31.6483 23.4987C30.4965 25.5785 28.3008 26.984 25.7812 26.984C24.7621 26.9854 23.7562 26.7511 22.8402 26.2988C21.6726 29.0798 18.9511 31.0297 15.7804 31.0297C12.4776 31.0297 9.66278 28.9145 8.58308 25.948C8.10186 26.0508 7.61136 26.1025 7.11955 26.1022C3.18739 26.1022 0 22.8419 0 18.8202C0 16.1246 1.43187 13.7713 3.56009 12.5124C3.10918 11.4614 2.87715 10.3275 2.87848 9.18164C2.87848 4.55609 6.58777 0.806152 11.1633 0.806152C13.8496 0.806152 16.2371 2.09886 17.7508 4.1025Z" fill="#777C99"/>
</g>
<path fill-rule="evenodd" clip-rule="evenodd" d="M6.17839 16.4795C6.15159 16.5502 6.18795 16.565 6.19658 16.5775C6.27666 16.6362 6.35801 16.6788 6.44013 16.7265C6.87505 16.9596 7.28615 17.0279 7.71559 17.0279C8.5906 17.0279 9.13414 16.5571 9.13414 15.7987V15.7838C9.13414 15.0825 8.52055 14.8277 7.94551 14.6439L7.87044 14.6193C7.43677 14.4768 7.0625 14.3535 7.0625 14.0643V14.0495C7.0625 13.8019 7.28129 13.6199 7.6203 13.6199C7.99723 13.6199 8.44391 13.7467 8.73197 13.9077C8.73197 13.9077 8.81692 13.9632 8.84779 13.8803C8.86456 13.8354 9.01017 13.4384 9.02568 13.3954C9.0423 13.3489 9.01314 13.3139 8.98321 13.2958C8.65424 13.0929 8.19988 12.9548 7.72954 12.9548L7.64224 12.9552C6.84136 12.9552 6.28215 13.4454 6.28215 14.147V14.162C6.28215 14.9014 6.89903 15.1417 7.47689 15.3088L7.56967 15.338C7.99049 15.4687 8.35394 15.5817 8.35394 15.8814V15.8963C8.35394 16.1707 8.11775 16.3746 7.73737 16.3746C7.58989 16.3746 7.11908 16.3721 6.61034 16.0464C6.54874 16.01 6.51364 15.9839 6.46615 15.9545C6.44107 15.9391 6.37838 15.9113 6.35111 15.9945L6.17839 16.4795ZM18.9878 16.4795C18.961 16.5502 18.9974 16.565 19.0063 16.5775C19.0861 16.6362 19.1676 16.6788 19.2496 16.7265C19.6846 16.9596 20.0957 17.0279 20.525 17.0279C21.4 17.0279 21.9437 16.5571 21.9437 15.7987V15.7838C21.9437 15.0825 21.3303 14.8277 20.7551 14.6439L20.68 14.6193C20.2463 14.4768 19.8719 14.3535 19.8719 14.0643V14.0495C19.8719 13.8019 20.0909 13.6199 20.43 13.6199C20.8068 13.6199 21.2533 13.7467 21.5414 13.9077C21.5414 13.9077 21.6263 13.9632 21.6574 13.8803C21.674 13.8354 21.8197 13.4384 21.8351 13.3954C21.8519 13.3489 21.8226 13.3139 21.7928 13.2958C21.4637 13.0929 21.0095 12.9548 20.5391 12.9548L20.4517 12.9552C19.6509 12.9552 19.0917 13.4454 19.0917 14.147V14.162C19.0917 14.9014 19.7085 15.1417 20.2865 15.3088L20.3791 15.338C20.8001 15.4687 21.1635 15.5817 21.1635 15.8814V15.8963C21.1635 16.1707 20.9272 16.3746 20.5471 16.3746C20.3993 16.3746 19.9285 16.3721 19.4199 16.0464C19.3583 16.01 19.3223 15.985 19.2756 15.9545C19.2597 15.9443 19.1859 15.9152 19.1607 15.9945L18.9878 16.4795ZM27.7325 14.9939C27.7325 15.4222 27.6535 15.7605 27.4983 15.9989C27.3441 16.2353 27.1114 16.3503 26.7868 16.3503C26.4622 16.3503 26.2307 16.2355 26.079 15.9992C25.9259 15.7606 25.8481 15.4222 25.8481 14.9939C25.8481 14.5658 25.9259 14.2287 26.079 13.9926C26.2307 13.7586 26.4622 13.645 26.7868 13.645C27.1114 13.645 27.3441 13.7587 27.4983 13.9927C27.6538 14.2287 27.7325 14.5658 27.7325 14.9939ZM28.4632 14.1995C28.3912 13.9537 28.2795 13.7375 28.1307 13.5571C27.9817 13.3762 27.7931 13.2307 27.5696 13.1254C27.3465 13.0199 27.0832 12.9664 26.7868 12.9664C26.4904 12.9664 26.2269 13.0199 26.0036 13.1254C25.7804 13.2307 25.5917 13.3762 25.4427 13.5574C25.2941 13.7381 25.182 13.954 25.1104 14.1995C25.0391 14.4433 25.0029 14.7107 25.0029 14.9939C25.0029 15.2772 25.0391 15.5447 25.1104 15.7882C25.182 16.0335 25.2938 16.2496 25.4428 16.4306C25.5919 16.6118 25.7811 16.756 26.0039 16.8588C26.2274 16.9616 26.4907 17.014 26.7868 17.014C27.083 17.014 27.346 16.9616 27.5693 16.8588C27.7925 16.756 27.9814 16.6118 28.1307 16.4306C28.2795 16.2502 28.3912 16.0338 28.4632 15.7882C28.5343 15.5442 28.5705 15.2769 28.5705 14.9939C28.5705 14.711 28.5343 14.4435 28.4632 14.1995ZM34.4607 16.2356C34.4367 16.1638 34.3674 16.1909 34.3674 16.1909C34.2613 16.232 34.1485 16.2701 34.0278 16.2891C33.9062 16.3085 33.7715 16.3181 33.6275 16.3181C33.2744 16.3181 32.9931 16.2117 32.7923 16.0013C32.5906 15.7908 32.4773 15.4506 32.4785 14.9905C32.4796 14.5723 32.5796 14.2572 32.7589 14.017C32.9367 13.7784 33.2081 13.6559 33.5691 13.6559C33.8704 13.6559 34.1004 13.6913 34.3413 13.7678C34.3413 13.7678 34.3985 13.793 34.4259 13.7167C34.49 13.5369 34.5373 13.4091 34.6057 13.2115C34.6251 13.1552 34.5774 13.1314 34.56 13.1246C34.4654 13.0872 34.2417 13.0258 34.0729 12.9999C33.9151 12.9755 33.7306 12.9628 33.5249 12.9628C33.2181 12.9628 32.9446 13.0159 32.7108 13.1213C32.4774 13.2264 32.2795 13.3718 32.1226 13.5525C31.9657 13.7335 31.8463 13.9498 31.7673 14.195C31.6882 14.439 31.6482 14.7068 31.6482 14.9908C31.6482 15.604 31.8117 16.0995 32.134 16.4625C32.4575 16.8268 32.9428 17.0118 33.5761 17.0118C33.9502 17.0118 34.334 16.9351 34.6105 16.825C34.6105 16.825 34.6632 16.7993 34.6403 16.7371L34.4607 16.2356ZM35.7386 14.5831C35.7736 14.345 35.838 14.1471 35.9385 13.9926C36.09 13.7586 36.3207 13.6296 36.6453 13.6296C36.9701 13.6296 37.184 13.7587 37.3382 13.9927C37.4401 14.1474 37.4846 14.3535 37.502 14.5834L35.7386 14.5831ZM38.1976 14.06C38.1353 13.823 37.9821 13.5836 37.8813 13.4741C37.7222 13.3005 37.5664 13.179 37.4117 13.1119C37.1878 13.0156 36.947 12.9661 36.7038 12.9664C36.3952 12.9664 36.1148 13.0192 35.8874 13.1271C35.6597 13.2353 35.4683 13.3832 35.3183 13.5669C35.168 13.7505 35.0553 13.9689 34.9834 14.2168C34.9113 14.4632 34.8749 14.7318 34.8749 15.0154C34.8749 15.3039 34.9127 15.5728 34.987 15.8146C35.062 16.0584 35.1826 16.2724 35.3453 16.4506C35.5078 16.6294 35.717 16.7697 35.967 16.8674C36.2157 16.965 36.5179 17.0156 36.8644 17.0145C37.5788 17.0121 37.9545 16.8509 38.1096 16.7641C38.1371 16.7486 38.1629 16.7217 38.1306 16.6445L37.9689 16.1863C37.9441 16.1179 37.8758 16.1427 37.8758 16.1427C37.6985 16.2096 37.4476 16.3291 36.8608 16.3278C36.4775 16.3272 36.1935 16.2125 36.015 16.0333C35.8324 15.8501 35.7427 15.581 35.7275 15.2009L38.1994 15.2028C38.1994 15.2028 38.2646 15.2022 38.2714 15.1377C38.274 15.1111 38.3562 14.6237 38.1976 14.06ZM15.9377 14.5831C15.9727 14.345 16.0372 14.1471 16.1376 13.9926C16.2893 13.7586 16.5197 13.6296 16.8446 13.6296C17.1693 13.6296 17.3832 13.7587 17.5375 13.9927C17.6392 14.1474 17.6837 14.3535 17.7011 14.5834L15.9377 14.5831ZM18.3966 14.06C18.3346 13.823 18.1811 13.5836 18.0805 13.4741C17.9214 13.3005 17.7658 13.179 17.611 13.1119C17.3871 13.0156 17.1463 12.9661 16.903 12.9664C16.5944 12.9664 16.314 13.0192 16.0866 13.1271C15.8589 13.2353 15.6675 13.3832 15.5172 13.5669C15.3672 13.7505 15.2545 13.9689 15.1823 14.2168C15.1104 14.4632 15.0741 14.7318 15.0741 15.0154C15.0741 15.3039 15.1116 15.5728 15.1864 15.8146C15.2613 16.0584 15.382 16.2724 15.5443 16.4506C15.707 16.6294 15.9161 16.7697 16.1661 16.8674C16.415 16.965 16.7168 17.0156 17.0637 17.0145C17.7779 17.0121 18.1537 16.8509 18.3089 16.7641C18.3361 16.7486 18.3622 16.7217 18.3297 16.6445L18.1681 16.1863C18.1432 16.1179 18.0749 16.1427 18.0749 16.1427C17.8978 16.2096 17.6468 16.3291 17.0599 16.3278C16.6767 16.3272 16.3925 16.2125 16.214 16.0333C16.0316 15.8501 15.9418 15.581 15.9266 15.2009L18.3987 15.2028C18.3987 15.2028 18.4639 15.2022 18.4706 15.1377C18.4733 15.1111 18.5554 14.6237 18.3966 14.06ZM10.5938 16.222C10.4967 16.1436 10.4833 16.1244 10.4511 16.0735C10.4021 15.9969 10.377 15.8877 10.377 15.7479C10.377 15.5282 10.4491 15.3699 10.5977 15.2636C10.5961 15.2639 10.8108 15.076 11.3147 15.0827C11.5395 15.0867 11.7638 15.1061 11.986 15.1406V16.2782H11.9863C11.9863 16.2782 11.672 16.3465 11.3183 16.3681C10.8155 16.3987 10.5922 16.2215 10.5938 16.222ZM11.5775 14.4632C11.4772 14.4557 11.3473 14.452 11.1915 14.452C10.9798 14.452 10.7749 14.4787 10.5826 14.5311C10.3895 14.5837 10.2159 14.6653 10.0665 14.7733C9.91725 14.8813 9.7945 15.0225 9.70776 15.1861C9.62015 15.3513 9.57549 15.5453 9.57549 15.7628C9.57549 15.9848 9.61357 16.1771 9.6888 16.3342C9.7624 16.4899 9.87321 16.6246 10.0112 16.726C10.1486 16.8273 10.3182 16.9015 10.5149 16.9469C10.7091 16.9918 10.9291 17.0145 11.1696 17.0145C11.4235 17.0145 11.676 16.9929 11.9206 16.9512C12.129 16.9148 12.3366 16.874 12.5433 16.8287C12.6257 16.8095 12.7166 16.7843 12.7166 16.7843C12.7778 16.7686 12.7731 16.7024 12.7731 16.7024L12.7716 14.4137C12.7716 13.9117 12.6394 13.5398 12.3787 13.3088C12.1193 13.0789 11.7374 12.9628 11.2432 12.9628C11.0577 12.9628 10.7596 12.9882 10.5806 13.0245C10.5806 13.0245 10.0408 13.1305 9.81857 13.3067C9.81857 13.3067 9.76967 13.3372 9.79632 13.4062L9.97138 13.8822C9.99317 13.9439 10.0526 13.9228 10.0526 13.9228C10.0526 13.9228 10.0712 13.9153 10.0932 13.9022C10.5687 13.6404 11.1704 13.6482 11.1704 13.6482C11.4374 13.6482 11.6432 13.7029 11.7814 13.81C11.9164 13.9148 11.9849 14.0727 11.9849 14.4064V14.5122C11.7728 14.4811 11.5775 14.4632 11.5775 14.4632ZM31.5189 13.1738C31.5225 13.1654 31.5243 13.1564 31.5244 13.1473C31.5244 13.1382 31.5227 13.1292 31.5192 13.1207C31.5157 13.1123 31.5106 13.1047 31.5042 13.0983C31.4978 13.092 31.4901 13.087 31.4817 13.0837C31.4396 13.0675 31.2294 13.0226 31.0674 13.0124C30.7566 12.9928 30.5843 13.0457 30.4298 13.1162C30.2765 13.1862 30.1068 13.2993 30.0121 13.4283L30.0118 13.123C30.0118 13.0811 29.9825 13.0473 29.9408 13.0473H29.307C29.2659 13.0473 29.2361 13.0811 29.2361 13.123V16.8564C29.2362 16.8766 29.2441 16.8959 29.2582 16.9101C29.2722 16.9244 29.2913 16.9324 29.3112 16.9324H29.9608C29.9807 16.9324 29.9998 16.9244 30.0138 16.9101C30.0279 16.8959 30.0358 16.8766 30.0358 16.8564V14.9915C30.0358 14.741 30.063 14.4914 30.1174 14.3345C30.171 14.1792 30.2439 14.0554 30.3342 13.9664C30.4197 13.8805 30.5244 13.8167 30.6395 13.7805C30.7473 13.7491 30.8589 13.7332 30.9711 13.7332C31.1004 13.7332 31.2427 13.7668 31.2427 13.7668C31.2904 13.7722 31.3169 13.7427 31.333 13.6992C31.3755 13.5848 31.4958 13.242 31.5189 13.1738Z" fill="#03040E"/>
<path fill-rule="evenodd" clip-rule="evenodd" d="M25.4216 11.4436C25.3414 11.419 25.2598 11.3994 25.1772 11.3848C25.0662 11.3661 24.9538 11.3573 24.8412 11.3585C24.3941 11.3585 24.0416 11.4864 23.7941 11.739C23.5484 11.9896 23.3811 12.3715 23.2973 12.874L23.267 13.0436H22.7058C22.7058 13.0436 22.6373 13.0407 22.6229 13.1164L22.5307 13.6368C22.5243 13.6866 22.5455 13.7177 22.6113 13.7174H23.1576L22.6033 16.8497C22.5599 17.1019 22.5102 17.3095 22.4552 17.4667C22.4009 17.6218 22.348 17.7381 22.2828 17.8225C22.2196 17.9042 22.1597 17.9644 22.0565 17.9994C21.9712 18.0285 21.8731 18.0418 21.7656 18.0418C21.7057 18.0418 21.6261 18.0316 21.5673 18.0197C21.5085 18.008 21.478 17.9947 21.4339 17.976C21.4339 17.976 21.3698 17.9512 21.3446 18.0163C21.3241 18.0694 21.1785 18.4748 21.1612 18.5249C21.1437 18.5744 21.1683 18.6134 21.1993 18.6247C21.272 18.651 21.3261 18.6678 21.4252 18.6915C21.5628 18.7243 21.6787 18.7264 21.7874 18.7264C22.0149 18.7264 22.2223 18.694 22.3942 18.6312C22.5672 18.5679 22.7179 18.4576 22.8511 18.3083C22.9951 18.1473 23.0857 17.9787 23.1724 17.7486C23.2581 17.5206 23.3311 17.2376 23.3896 16.9077L23.9466 13.7174H24.761C24.761 13.7174 24.8296 13.7199 24.8439 13.6446L24.936 13.1242C24.9425 13.0744 24.9215 13.0433 24.8553 13.0436H24.0649C24.0689 13.0255 24.1047 12.744 24.1955 12.4791C24.2342 12.366 24.3071 12.2747 24.3688 12.2121C24.4265 12.1524 24.4975 12.1076 24.5759 12.0817C24.6618 12.0548 24.7513 12.0417 24.8412 12.0429C24.9157 12.0429 24.9887 12.052 25.0443 12.0637C25.121 12.0802 25.1507 12.089 25.1708 12.095C25.2514 12.1199 25.2622 12.0958 25.278 12.0563L25.467 11.5308C25.4865 11.4743 25.4391 11.4505 25.4216 11.4436ZM14.3763 16.8563C14.3763 16.8982 14.3468 16.9323 14.3055 16.9323H13.6499C13.6083 16.9323 13.5789 16.8982 13.5789 16.8563V11.5148C13.5789 11.4731 13.6083 11.4393 13.6499 11.4393H14.3055C14.3468 11.4393 14.3763 11.4731 14.3763 11.5148V16.8563Z" fill="#03040E"/>
</g>
<defs>
<clipPath id="clip0_19_495">
<rect width="42.7869" height="30.3028" fill="white" transform="translate(0 0.726807)"/>
</clipPath>
</defs>
</svg>
