<svg width="106" height="31" viewBox="0 0 106 31" fill="none" xmlns="http://www.w3.org/2000/svg">
<path d="M36.3424 17.4961C35.4463 16.9958 34.9746 16.5909 34.9746 16.0191C34.9746 15.2807 35.6113 14.828 36.6254 14.828C37.8046 14.828 38.8423 15.3283 38.8423 15.3283L39.6677 12.7794C39.6677 12.7794 38.9131 12.1838 36.6726 12.1838C33.5596 12.1838 31.3899 13.9943 31.3899 16.5194C31.3899 17.9487 32.404 19.0445 33.7482 19.8306C34.8331 20.45 35.2104 20.9026 35.2104 21.5458C35.2104 22.2366 34.668 22.7845 33.6539 22.7845C32.1445 22.7845 30.7295 21.9984 30.7295 21.9984L29.8569 24.5473C29.8569 24.5473 31.1776 25.4287 33.3709 25.4287C36.5783 25.4287 38.8659 23.8327 38.8659 20.9741C38.9131 19.4018 37.7339 18.306 36.3424 17.4961Z" fill="#777C99"/>
<path d="M49.1247 12.1363C47.5446 12.1363 46.3182 12.8985 45.3513 14.042L45.3041 14.0182L46.672 6.77637H43.0873L39.6205 25.1906H43.1816L44.3608 18.9016C44.8325 16.5195 46.0352 15.0663 47.1672 15.0663C47.9691 15.0663 48.2757 15.6142 48.2757 16.4003C48.2757 16.9006 48.2285 17.4961 48.1106 17.9964L46.7663 25.2144H50.3275L51.7189 17.782C51.884 16.9959 51.9783 16.0668 51.9783 15.4237C52.0255 13.3512 50.9878 12.1363 49.1247 12.1363Z" fill="#777C99"/>
<path d="M60.0912 12.136C55.7989 12.136 52.9453 16.0427 52.9453 20.4021C52.9453 23.1893 54.6433 25.4523 57.8507 25.4523C62.0722 25.4523 64.9022 21.6409 64.9022 17.1862C64.9258 14.5896 63.44 12.136 60.0912 12.136ZM58.346 22.6652C57.1196 22.6652 56.6244 21.617 56.6244 20.3068C56.6244 18.2343 57.6856 14.8755 59.6195 14.8755C60.893 14.8755 61.2939 15.9713 61.2939 17.0433C61.2939 19.2825 60.2327 22.6652 58.346 22.6652Z" fill="#777C99"/>
<path d="M74.0527 12.136C71.6471 12.136 70.2793 14.2799 70.2793 14.2799H70.2321L70.4444 12.3504H67.2842C67.1191 13.6606 66.8361 15.6378 66.5531 17.1385L64.0768 30.2881H67.6379L68.6284 24.9521H68.6992C68.6992 24.9521 69.4303 25.4285 70.7981 25.4285C74.996 25.4285 77.7317 21.093 77.7317 16.7098C77.7317 14.3038 76.6704 12.136 74.0527 12.136ZM70.6566 22.7366C69.7369 22.7366 69.1944 22.2126 69.1944 22.2126L69.784 18.8537C70.2085 16.6145 71.3641 15.1137 72.5905 15.1137C73.6753 15.1137 74.0055 16.138 74.0055 17.0909C74.0055 19.4016 72.6376 22.7366 70.6566 22.7366Z" fill="#777C99"/>
<path d="M82.8257 6.96704C81.6937 6.96704 80.7739 7.87227 80.7739 9.06335C80.7739 10.1353 81.4343 10.8738 82.4484 10.8738H82.4955C83.604 10.8738 84.5709 10.1115 84.5945 8.77749C84.6181 7.70551 83.9106 6.96704 82.8257 6.96704Z" fill="#777C99"/>
<path d="M77.826 25.1906H81.4108L83.8399 12.4221H80.2316L77.826 25.1906Z" fill="#777C99"/>
<path d="M92.896 12.3982H90.4197L90.5377 11.8027C90.7499 10.564 91.4574 9.46816 92.6602 9.46816C93.2969 9.46816 93.7922 9.65873 93.7922 9.65873L94.4997 6.84777C94.4997 6.84777 93.8865 6.53809 92.5658 6.53809C91.2923 6.53809 90.0424 6.89541 89.0755 7.72917C87.8491 8.77733 87.2831 10.2781 87.0001 11.8027L86.9058 12.3982H85.2549L84.7361 15.1139H86.3869L84.5002 25.1905H88.0614L89.9481 15.1139H92.4008L92.896 12.3982Z" fill="#777C99"/>
<path d="M101.48 12.4221C101.48 12.4221 99.24 18.0917 98.2495 21.1885H98.2023C98.1315 20.188 97.3297 12.4221 97.3297 12.4221H93.5799L95.726 24.1424C95.7732 24.4044 95.7496 24.5712 95.6553 24.7379C95.2308 25.5479 94.5468 26.334 93.7214 26.9057C93.0611 27.406 92.3064 27.7157 91.7168 27.9301L92.7073 30.9792C93.4384 30.8125 94.9242 30.2169 96.1977 29.0259C97.825 27.4774 99.3343 25.1191 100.867 21.8793L105.23 12.4221H101.48Z" fill="#777C99"/>
<path d="M17.5698 4.13204C17.5698 4.13204 17.2396 4.22733 16.6972 4.39408C16.6029 4.0844 16.4614 3.72707 16.2727 3.34592C15.6595 2.15484 14.7398 1.51165 13.6549 1.51165C13.5842 1.51165 13.5134 1.51165 13.4191 1.53547C13.3955 1.48783 13.3483 1.46401 13.3248 1.41636C12.8531 0.892287 12.2399 0.65407 11.5088 0.677892C10.0938 0.725535 8.67878 1.74987 7.54677 3.58414C6.74492 4.87051 6.13175 6.49039 5.96666 7.75294C4.33939 8.2532 3.20738 8.61052 3.18379 8.63435C2.35836 8.89638 2.33478 8.92021 2.24045 9.70632C2.1697 10.3019 0 27.0724 0 27.0724L17.8292 30.193V4.10822C17.6877 4.10822 17.617 4.13204 17.5698 4.13204ZM13.4427 5.41841C12.4993 5.70427 11.4616 6.03778 10.4476 6.34746C10.7306 5.22784 11.2966 4.10822 11.9569 3.36975C12.2163 3.10771 12.5701 2.79802 12.971 2.60745C13.3719 3.46503 13.4663 4.6323 13.4427 5.41841ZM11.5088 1.65458C11.839 1.65458 12.122 1.72605 12.3578 1.86898C11.9805 2.05955 11.6032 2.36923 11.2494 2.72656C10.3532 3.70325 9.66929 5.22784 9.38629 6.68096C8.53728 6.943 7.68827 7.20504 6.91001 7.44326C7.42885 5.15637 9.33912 1.70223 11.5088 1.65458ZM8.77312 14.7565C8.86745 16.2811 12.8531 16.6146 13.0889 20.2117C13.254 23.0465 11.6032 24.976 9.2212 25.119C6.344 25.3095 4.7639 23.5944 4.7639 23.5944L5.37707 20.974C5.37707 20.974 6.95717 22.1889 8.23069 22.0936C9.05612 22.046 9.36271 21.3551 9.33912 20.8787C9.2212 18.8777 5.96666 18.9968 5.75441 15.7094C5.56574 12.9461 7.3581 10.1589 11.3201 9.8969C12.8531 9.80161 13.6313 10.1828 13.6313 10.1828L12.7352 13.6131C12.7352 13.6131 11.7211 13.1366 10.5183 13.2319C8.77312 13.351 8.74953 14.4707 8.77312 14.7565ZM14.386 5.13255C14.386 4.4179 14.2917 3.39357 13.9615 2.53599C15.0464 2.75038 15.5652 3.96529 15.801 4.70376C15.3765 4.82287 14.9049 4.9658 14.386 5.13255Z" fill="#777C99"/>
<path d="M18.3716 30.1456L25.7768 28.2875C25.7768 28.2875 22.5931 6.53824 22.5695 6.39531C22.5459 6.25238 22.428 6.15709 22.3101 6.15709C22.1921 6.15709 20.1168 6.10945 20.1168 6.10945C20.1168 6.10945 18.8433 4.87072 18.3716 4.39429V30.1456Z" fill="#777C99"/>
</svg>
