<svg width="30" height="30" viewBox="0 0 30 30" fill="none" xmlns="http://www.w3.org/2000/svg">
<g clip-path="url(#clip0_74_59)">
<path d="M13.9303 29.9739C11.0269 29.7554 8.27527 28.7239 5.98822 26.9969C4.88677 26.1652 3.79616 25.072 2.98765 23.9893C0.58409 20.7706 -0.42455 16.7664 0.163897 12.7795C1.14889 6.10586 6.54206 0.884152 13.2634 0.0964416C14.5057 -0.0491485 15.9344 -0.0291385 17.1812 0.151309C19.3096 0.459369 21.4536 1.27558 23.2468 2.46038C24.684 3.41 26.0141 4.6651 27.0402 6.04C28.7443 8.32324 29.7551 11.0355 29.9755 13.9157C30.0122 14.3967 30.0122 15.6048 29.9755 16.0858C29.6149 20.7991 27.144 24.9923 23.2105 27.566C21.0681 28.9679 18.6288 29.788 16.042 29.9763C15.5927 30.0089 14.3775 30.0075 13.9303 29.9739ZM16.1948 24.2408C18.7724 23.8859 20.9616 22.5991 22.4943 20.538C22.8311 20.0851 23.0847 19.6675 23.3514 19.1269C23.8191 18.1787 24.0901 17.2885 24.2439 16.1955C24.2818 15.9259 24.2927 15.6586 24.2928 15.0007C24.2929 14.118 24.2741 13.8962 24.1395 13.1947C23.6554 10.6719 22.0706 8.39966 19.8601 7.05876C17.6978 5.74718 15.1566 5.36741 12.6903 5.98726C10.3599 6.57293 8.29939 8.10183 7.03964 10.18C5.18589 13.2381 5.26072 17.1483 7.22995 20.1231C8.80417 22.5012 11.3298 24.0175 14.1526 24.279C14.5609 24.3169 15.8127 24.2935 16.1948 24.2408ZM12.8995 21.2234C12.5926 21.1261 12.3701 20.8612 12.3073 20.5184C12.2907 20.4279 12.2833 20.3478 12.2907 20.3404C12.2981 20.333 12.1688 20.2467 12.0033 20.1487C11.2365 19.6946 10.5439 19.0365 10.0506 18.2933C9.32926 17.2064 8.96612 15.8035 9.07965 14.5423C9.34121 11.6366 11.5257 9.40049 14.4144 9.08149C14.7722 9.04197 15.5839 9.0612 15.9157 9.11707L16.1228 9.15195L16.2491 9.02603C16.4417 8.83399 16.607 8.76478 16.8755 8.76378C17.0556 8.76334 17.1237 8.77571 17.2344 8.83017C17.5257 8.97357 17.701 9.24292 17.7184 9.57409C17.7309 9.81086 17.9594 9.11757 15.8334 15.2925C14.9811 17.7682 14.2058 20.0216 14.1105 20.3001C13.9249 20.8424 13.8485 20.9786 13.6557 21.1112C13.5264 21.2002 13.2843 21.281 13.1542 21.2786C13.1073 21.2778 12.9927 21.2529 12.8995 21.2234ZM14.1817 14.7368C14.8044 12.9182 15.3198 11.4085 15.3269 11.3817C15.3388 11.3373 15.31 11.3331 14.9963 11.3332C14.2446 11.3334 13.5929 11.5299 12.9578 11.9479C12.678 12.1319 12.1619 12.6431 11.9789 12.9173C11.5163 13.6105 11.3052 14.3566 11.3423 15.1675C11.3745 15.8714 11.5714 16.4737 11.962 17.0632C12.2004 17.423 12.9625 18.1366 13.0304 18.0637C13.0409 18.0524 13.5589 16.5553 14.1817 14.7368ZM15.4537 20.9075C15.4635 20.8819 15.6471 20.3269 15.8617 19.6743L16.2517 18.4878L16.6053 18.3176C17.5317 17.8717 18.2037 17.1046 18.5127 16.1402C18.6465 15.7225 18.6802 15.4912 18.6785 15.0007C18.6763 14.3295 18.567 13.8964 18.2428 13.2713L18.0735 12.9451L18.4721 11.7293C18.6913 11.0605 18.8751 10.5081 18.8806 10.5015C18.8861 10.495 19.0384 10.6388 19.219 10.8211C20.0306 11.6402 20.5757 12.6313 20.817 13.7268C20.92 14.1945 20.9547 14.5194 20.9547 15.0146C20.9547 15.5099 20.92 15.8347 20.817 16.3024C20.3711 18.3268 18.8651 19.9949 16.8894 20.6527C16.506 20.7803 15.9707 20.9 15.6277 20.9348C15.4549 20.9523 15.4376 20.9496 15.4537 20.9075Z" fill="url(#paint0_linear_74_59)"/>
</g>
<defs>
<linearGradient id="paint0_linear_74_59" x1="15.0015" y1="0" x2="15.0015" y2="30" gradientUnits="userSpaceOnUse">
<stop stop-color="#2661BA"/>
<stop offset="1" stop-color="#2688BA"/>
</linearGradient>
<clipPath id="clip0_74_59">
<rect width="30.003" height="30" fill="white"/>
</clipPath>
</defs>
</svg>
