<svg width="30" height="30" viewBox="0 0 30 30" fill="none" xmlns="http://www.w3.org/2000/svg">
<g clip-path="url(#clip0_74_65)">
<path d="M13.6949 29.9803C13.5016 29.9573 13.1515 29.9133 12.9169 29.8826L12.4903 29.8266V25.4443V21.0619L9.38535 24.1638L6.28042 27.2656L5.74648 26.8536C5.14353 26.3884 3.43959 24.6696 3.00503 24.0883L2.71845 23.705L5.82196 20.6021L8.92548 17.4992H4.5405H0.155516L0.0789242 17.0227C-0.0248647 16.377 -0.0267198 13.9949 0.0759152 13.1603L0.159194 12.4831H4.54233H8.92547L5.82195 9.38026L2.71844 6.27739L3.00502 5.89405C3.43958 5.31278 5.14352 3.59401 5.74647 3.12876L6.28041 2.71674L9.38534 5.8186L12.4903 8.92046V4.5381V0.155748L12.9671 0.0767293C13.5844 -0.0255764 16.4152 -0.0255764 17.0326 0.0767293L17.5094 0.155748V4.5381V8.92046L20.6143 5.8186L23.7193 2.71674L24.2532 3.12876C24.8561 3.59401 26.5601 5.31278 26.9946 5.89405L27.2812 6.27739L24.1777 9.38026L21.0742 12.4831H25.4592H29.8442L29.9232 12.9597C30.0256 13.5766 30.0256 16.4057 29.9232 17.0227L29.8442 17.4992H25.4592H21.0742L24.1777 20.6021L27.2812 23.705L26.9946 24.0883C26.5601 24.6696 24.8561 26.3884 24.2532 26.8536L23.7193 27.2656L20.6143 24.1638L17.5094 21.0619V25.4379V29.8138L17.1832 29.8798C16.7776 29.9619 14.1716 30.0369 13.6949 29.9803ZM16.0063 18.6983C16.4741 18.6405 17.1604 18.5036 17.5312 18.3941L18.2055 18.195L18.4054 17.5211C18.7303 16.4254 18.8466 15.1354 18.7172 14.0632C18.6556 13.5528 18.5153 12.832 18.4054 12.4613L18.2055 11.7874L17.5312 11.5877C16.435 11.263 15.1442 11.1467 14.0713 11.276C13.5606 11.3376 12.8393 11.4778 12.4685 11.5877L11.7942 11.7874L11.5947 12.4613C11.1653 13.9127 11.1162 15.3948 11.4479 16.8973C11.7325 18.1869 11.7237 18.174 12.4772 18.3983C13.6916 18.7597 14.7686 18.8513 16.0063 18.6983Z" fill="url(#paint0_linear_74_65)"/>
</g>
<defs>
<linearGradient id="paint0_linear_74_65" x1="15" y1="0" x2="15" y2="30" gradientUnits="userSpaceOnUse">
<stop stop-color="#F74800"/>
<stop offset="1" stop-color="#FF8A00"/>
</linearGradient>
<clipPath id="clip0_74_65">
<rect width="30" height="30" fill="white"/>
</clipPath>
</defs>
</svg>
